<svg xmlns="http://www.w3.org/2000/svg" width="704" height="498" viewBox="0 0 704 498" fill="none"><path d="M115.148 50.7862V346.309C115.148 354.934 122.141 361.928 130.767 361.928H593.111C596.376 361.928 599.033 359.271 599.033 356.007V48.7857C599.033 44.4168 595.48 40.864 591.111 40.864H125.07C119.597 40.864 115.148 45.297 115.148 50.7862Z" fill="#6083FF"></path><path opacity="0.7" d="M115.148 50.7862V346.309C115.148 354.935 122.141 361.928 132.64 361.864H594.983C596.376 361.928 599.016 359.272 599.016 356.007V48.7857C599.016 44.4168 595.464 40.864 591.095 40.864H125.07C119.597 40.864 115.148 45.297 115.148 50.7862Z" fill="white"></path><path d="M599.033 66.6298H115.148V48.6417C115.148 44.3527 118.636 40.864 122.925 40.864H592.823C596.248 40.864 599.033 43.6486 599.033 47.0734V66.6298Z" fill="url(#paint0_linear_157_520)"></path><path opacity="0.3" d="M592.583 53.7469C592.583 56.7715 590.135 59.2201 587.11 59.2201C584.085 59.2201 581.637 56.7715 581.637 53.7469C581.637 50.7222 584.085 48.2736 587.11 48.2736C590.135 48.2736 592.583 50.7222 592.583 53.7469Z" fill="white"></path><path opacity="0.3" d="M577.028 53.7469C577.028 56.7715 574.579 59.2201 571.554 59.2201C568.53 59.2201 566.081 56.7715 566.081 53.7469C566.081 50.7222 568.53 48.2736 571.554 48.2736C574.579 48.2736 577.028 50.7222 577.028 53.7469Z" fill="white"></path><path opacity="0.3" d="M555.983 59.2201C559.005 59.2201 561.456 56.7696 561.456 53.7469C561.456 50.7241 559.005 48.2736 555.983 48.2736C552.96 48.2736 550.509 50.7241 550.509 53.7469C550.509 56.7696 552.96 59.2201 555.983 59.2201Z" fill="white"></path><path d="M200.703 29.3734C215.026 29.3734 229.349 29.3734 243.673 29.3734" stroke="#6083FF" stroke-miterlimit="10" stroke-linecap="round" stroke-linejoin="round"></path><path d="M255.515 29.3734C258.492 29.3734 261.484 29.3734 264.461 29.3734" stroke="#6083FF" stroke-miterlimit="10" stroke-linecap="round" stroke-linejoin="round"></path><path d="M540.299 119.282H173.881C165.255 119.282 158.261 112.288 158.261 103.662C158.261 95.0361 165.255 88.0426 173.881 88.0426H540.299C548.925 88.0426 555.919 95.0361 555.919 103.662C555.935 112.288 548.925 119.282 540.299 119.282Z" fill="white"></path><path d="M538.907 102.83C538.907 104.27 538.459 105.615 537.707 106.719C536.458 108.527 534.378 109.727 532.009 109.727C528.2 109.727 525.112 106.639 525.112 102.83C525.112 99.0211 528.2 95.9324 532.009 95.9324C535.818 95.9324 538.907 99.0211 538.907 102.83Z" stroke="#6083FF" stroke-miterlimit="10"></path><path d="M542.028 111.392L537.323 107.711" stroke="#6083FF" stroke-miterlimit="10" stroke-linecap="round" stroke-linejoin="round"></path><g opacity="0.4"><path d="M523.591 325.216C523.367 326.352 522.647 327.601 521.703 328.385C521.015 328.961 518.854 330.097 518.614 328.481C518.55 328.033 519.03 325.92 519.222 325.488C519.75 324.224 520.327 325.056 521.191 325.216C522.055 325.392 522.887 324.576 523.591 325.216Z" fill="white"></path><path d="M517.702 193.442C518.006 194.531 518.214 195.603 518.454 196.611C517.622 197.859 515.974 197.395 514.757 198.067C514.181 198.387 514.021 199.524 513.477 199.7C513.029 199.844 512.693 199.236 512.277 199.252C511.189 199.284 510.66 201.428 509.332 200.884C508.564 201.428 509.364 203.509 508.42 203.685C507.748 203.813 507.396 202.772 506.98 202.148C506.5 201.38 505.795 200.964 505.779 200.34C505.763 199.7 506.868 198.611 507.204 198.163C507.636 197.619 508.468 196.579 509.012 196.435C510.02 196.163 511.045 196.547 511.813 196.163C512.469 195.827 512.517 194.579 512.869 194.258C513.173 193.986 513.509 194.066 513.781 193.89C514.485 193.442 515.237 191.874 514.837 190.258C514.581 189.249 513.189 188.145 514.085 186.897C515.414 187.073 517.19 188.657 517.398 190.258C517.478 190.882 517.19 191.506 517.238 192.162C517.286 192.546 517.574 192.946 517.702 193.442Z" fill="white"></path><path d="M518.006 183.552C517.83 184.016 517.494 183.92 517.174 184.192C516.87 184.448 516.502 185.281 516.118 185.377C515.509 185.521 514.837 184.656 514.229 184.832C513.525 185.04 513.941 185.681 513.701 186.465C513.077 186.305 512.069 185.473 512.037 184.656C512.021 184.144 512.581 183.824 512.709 183.2C512.933 182.16 512.357 181.648 512.037 180.655C512.021 180.511 512.117 180.495 512.117 180.383C512.853 180.191 514.309 181.872 515.958 182.192C517.046 182.416 517.942 182.304 518.006 183.552Z" fill="white"></path><path d="M515.222 275.557C515.302 276.309 514.197 276.229 514.085 275.733C514.117 275.157 515.094 274.965 515.222 275.557Z" fill="white"></path><path d="M509.94 175.95C510.693 176.43 512.501 177.503 511.221 178.495C510.453 178.143 509.652 176.975 509.94 175.95Z" fill="white"></path><path d="M506.467 271.572C507.332 271.012 508.276 269.764 509.78 270.388C509.444 271.524 508.308 271.492 507.588 272.02C506.868 272.548 506.243 273.46 505.331 273.556C505.267 273.396 505.155 273.268 505.027 273.188C505.027 272.18 505.875 271.956 506.467 271.572Z" fill="white"></path><path d="M504.435 254.528C505.316 254.528 506.148 254.208 506.772 254.624C506.66 256.897 503.731 255.168 501.795 255.536C501.379 255.616 501.267 256 500.818 255.808C500.85 255.04 501.539 254.272 502.259 254.176C502.803 254.096 503.635 254.528 504.435 254.528Z" fill="white"></path><path d="M505.188 257.329C505.268 258.577 503.843 258.721 503.459 259.681C504.083 260.833 504.323 262.434 505.043 263.49C505.011 264.178 505.155 265.09 504.819 265.395C503.299 265.747 502.483 262.466 501.875 261.314C500.707 261.57 501.779 266.035 500.21 265.475C499.442 265.202 500.226 263.922 500.05 262.946C499.906 262.082 499.202 261.906 499.138 261.218C499.09 260.657 499.65 260.065 499.81 259.489C500.05 258.673 499.89 257.089 500.723 257.041C501.123 257.025 501.667 258.065 501.923 258.129C502.851 258.385 503.923 257.057 505.188 257.329Z" fill="white"></path><path d="M502.403 270.836C502.13 271.524 500.578 271.188 500.45 270.564C500.706 269.859 502.274 270.067 502.403 270.836Z" fill="white"></path><path d="M500.962 273.012C500.882 273.14 500.77 273.268 500.658 273.38C500.082 273.156 499.474 272.996 499.298 272.292C499.73 271.54 500.946 272.164 500.962 273.012Z" fill="white"></path><path d="M498.93 270.756C498.546 271.412 497.218 270.708 496.737 271.396C495.953 271.38 495.169 271.364 495.009 270.58C495.233 269.924 495.953 270.372 496.513 270.308C497.426 270.196 498.69 269.427 498.93 270.756Z" fill="white"></path><path d="M488.288 305.468C488.288 304.667 487.872 303.963 487.759 303.115C487.727 302.811 487.791 302.411 487.759 302.027C487.711 301.467 487.471 301.003 487.535 300.666C487.647 300.074 488.224 300.01 488.368 299.482C488.608 298.634 488.08 298.506 488.064 297.482C488.048 296.762 488.512 296.426 488.816 295.481C488.96 295.049 488.96 294.249 489.12 293.945C489.312 293.561 490.144 293.225 490.48 293.049C491.632 292.361 492.561 291.096 493.729 290.872C494.017 290.808 494.417 290.92 494.641 290.872C495.329 290.728 496.177 290.04 497.138 289.784C498.05 289.528 498.866 289.624 499.554 289.144C500.306 288.616 501.379 287.239 501.667 286.423C502.019 285.431 501.907 284.583 502.579 284.247C502.899 284.087 503.219 284.263 503.555 284.151C503.907 284.039 504.659 283.607 504.915 283.335C505.443 282.774 505.523 281.846 506.116 281.254C506.532 280.838 507.3 280.214 507.86 279.894C508.18 279.702 508.772 279.494 509.06 279.526C510.133 279.638 510.613 281.414 511.781 281.062C512.197 280.934 512.613 279.878 512.997 279.254C513.541 278.325 513.941 277.077 514.886 276.805C515.654 276.581 516.502 277.157 516.918 276.357C517.014 275.781 516.566 275.445 516.918 275.093C517.798 275.157 519.287 276.581 520.615 276.629C521.335 276.661 522.663 275.685 522.807 276.997C522.871 277.573 522.263 278.037 522.135 278.63C522.039 279.046 522.279 279.27 522.055 279.718C521.447 280.006 520.791 280.166 520.775 280.982C520.759 282.022 521.991 282.502 522.727 283.062C523.239 283.447 523.656 284.039 523.928 284.247C524.168 284.407 524.52 284.487 524.68 284.615C525.176 284.999 525.512 285.863 526.184 285.879C526.952 285.895 527.72 284.727 528.137 283.607C528.633 282.294 528.665 280.726 528.889 279.35C528.969 278.886 529.241 278.437 529.337 277.989C529.625 276.757 530.025 275.077 530.921 274.629C531.817 275.781 532.121 278.005 531.977 279.894C532.586 280.438 533.642 280.262 533.786 281.526C533.834 281.958 533.61 282.518 533.642 282.966C533.69 283.735 534.17 284.391 534.25 285.047C534.394 286.247 534.09 287.255 534.554 288.136C535.146 289.24 536.298 289.208 537.051 290.408C537.035 291.144 537.291 291.448 537.435 292.041C537.499 292.313 537.435 292.777 537.515 292.953C537.755 293.561 538.411 293.625 538.651 294.121C538.763 294.377 538.731 294.841 538.875 295.305C539.083 295.977 539.579 296.473 539.931 297.114C540.267 297.738 540.827 298.426 540.907 298.922C541.051 299.818 540.507 300.442 540.379 301.179C540.219 302.075 540.379 303.243 540.075 304.171C539.723 305.259 538.859 306.332 538.187 307.708C537.627 308.828 536.875 310.109 536.074 310.877C535.594 311.341 535.034 311.597 534.57 312.061C533.85 312.765 533.258 313.693 532.618 314.51C531.945 315.374 531.113 316.03 530.585 316.766C529.817 317.838 529.433 319.583 528.105 319.759C527.32 319.855 526.632 319.775 525.912 320.127C524.792 320.655 524.056 321.647 523.496 321.663C522.919 321.679 522.375 320.847 521.831 320.751C521.223 320.655 520.759 321.295 519.863 321.295C519.511 321.295 519.319 321.039 518.806 320.847C517.734 320.431 516.55 320.447 516.39 319.039C516.31 318.27 516.806 317.918 516.758 317.23C516.726 316.542 516.166 316.366 515.926 315.774C516.07 315.15 516.102 314.366 515.542 313.965C515.526 313.405 515.638 313.005 515.846 312.701C515.414 312.925 514.838 313.069 514.341 313.421C513.797 313.821 513.397 314.734 512.757 314.606C512.165 314.35 512.613 313.645 512.533 313.069C512.469 312.637 511.637 310.749 511.253 310.445C510.821 310.093 509.22 309.372 508.692 309.26C506.356 308.828 504.867 310.317 503.027 310.541C502.547 310.589 502.035 310.445 501.603 310.541C500.082 310.861 498.402 312.301 497.458 313.261C495.905 313.453 494.321 312.877 492.705 313.437C491.104 313.997 490.192 315.598 487.728 315.15C487.247 314.654 486.367 314.398 486.367 313.517C486.367 312.829 487.215 312.381 487.503 311.885C487.807 311.357 488.304 310.109 488.336 309.34C488.352 308.732 488 308.012 488.032 307.26C488.016 306.684 488.304 306.06 488.288 305.468Z" fill="white"></path><path d="M487.007 267.667C487.423 267.603 487.727 267.235 488.144 267.219C489.024 267.171 489.888 268.003 490.928 267.843C491.152 268.131 491.008 268.387 491.008 268.851C491.888 269.412 493.345 269.315 493.793 270.388C493.137 271.236 492.144 270.628 491.296 270.484C490.528 270.356 489.712 270.42 488.88 270.308C487.823 270.164 486.863 269.46 485.871 269.315C485.263 269.219 484.639 269.428 484.063 269.315C483.39 269.187 480.862 268.035 480.814 267.235C480.782 266.403 481.95 266.163 483.006 266.323C484.367 266.515 485.279 267.955 487.007 267.667Z" fill="white"></path><path d="M489.04 261.41C488.464 261.218 487.935 261.33 487.679 261.138C487.167 260.753 487.231 259.665 487.071 259.057C486.911 258.433 486.287 258.097 485.935 257.249C485.439 256.016 485.231 253.248 486.543 252.992C487.071 252.88 487.615 253.376 487.983 253.264C488.704 253.056 488.576 251.919 489.184 251.455C489.52 251.199 490.144 251.311 490.624 251.087C491.12 250.863 491.488 250.303 491.824 249.823C492.144 249.375 492.384 248.607 492.8 248.287C493.265 247.919 493.697 247.903 494.081 247.567C495.073 246.654 495.105 245.39 495.889 244.302C496.561 243.374 497.618 245.198 497.698 245.934C498.066 246.51 498.818 246.654 499.122 247.294C498.674 248.895 497.426 249.023 497.698 251.279C497.746 251.647 497.954 252.336 498.146 252.816C498.354 253.344 498.994 253.92 498.978 254.272C498.93 254.944 497.794 254.912 497.538 255.632C497.314 256.288 497.554 256.336 497.458 257.361C497.137 258.097 496.289 258.273 496.017 259.169C495.697 260.241 496.065 261.634 495.345 262.434C494.849 262.402 494.289 262.962 493.681 262.882C493.025 262.802 492.384 261.714 491.344 261.698C490.944 261.698 490.464 262.002 490.064 261.97C489.776 261.938 489.52 261.57 489.04 261.41Z" fill="white"></path><path d="M484.159 259.393C486.079 259.393 486.079 262.978 484.159 262.978C482.238 262.978 482.238 259.393 484.159 259.393Z" fill="white"></path><path d="M481.358 258.961C481.598 258.993 482.43 260.401 482.414 260.769C482.382 261.41 481.598 261.378 481.358 262.226C481.006 263.522 481.518 265.01 480.91 265.667C480.574 265.923 479.95 265.843 479.406 265.843C478.045 264.69 476.957 263.314 475.789 261.762C475.357 261.202 474.845 260.721 474.589 260.129C474.188 259.265 474.06 258.305 473.612 257.505C473.212 256.801 472.492 256.288 472.108 255.504C471.788 254.864 471.756 254.032 471.436 253.424C471.116 252.848 470.604 252.608 470.22 252.16C469.979 251.855 469.835 251.391 469.611 251.071C468.667 249.711 466.843 248.991 466.747 246.99C467.131 246.462 467.531 247.182 468.251 247.358C468.715 247.47 469.275 247.31 469.611 247.454C470.3 247.727 470.764 249.023 471.5 249.727C471.9 250.127 472.444 250.399 472.86 250.815C473.308 251.263 473.628 251.919 473.996 252.176C474.492 252.544 475.165 252.768 475.805 253.264C476.685 253.936 478.237 254.624 478.445 255.984C478.493 256.32 478.317 256.897 478.365 257.153C478.477 257.633 478.973 257.841 479.278 258.241C479.646 258.753 479.726 259.505 480.254 259.601C480.75 259.777 480.782 258.881 481.358 258.961Z" fill="white"></path><path d="M445.75 239.933C446.406 240.189 448.567 243.358 447.943 245.102C447.767 245.598 447.014 246.238 446.278 246.094C444.79 245.806 445.078 241.821 445.526 240.205C445.558 240.077 445.638 239.981 445.75 239.933Z" fill="white"></path><path d="M395.579 285.799C395.643 285.063 396.075 283.879 396.555 283.447C397.243 282.822 398.187 282.886 398.891 282.454C399.468 282.086 400.268 281.494 400.7 280.822C401.068 280.262 401.084 279.606 401.372 279.19C401.58 278.902 402.028 278.822 402.268 278.469C402.492 278.149 402.444 277.557 402.796 277.205C403.836 276.661 404.141 278.966 404.301 280.55C404.349 281.046 404.557 281.574 404.525 281.814C404.413 282.534 403.756 282.694 403.548 283.175C403.5 285.159 402.844 286.887 402.268 288.52C401.772 289.928 401.468 291.48 401.068 292.697C400.924 293.145 400.604 293.481 400.46 293.881C399.916 295.417 399.708 297.85 398.715 298.506C398.363 298.746 396.987 299.146 396.603 299.146C395.675 299.13 394.874 298.298 394.65 297.338C394.522 296.826 394.65 296.281 394.57 295.705C394.474 294.985 394.122 294.361 394.186 293.529C394.346 291.688 395.851 290.792 395.915 289.272C396.011 288.088 395.483 286.951 395.579 285.799Z" fill="white"></path><path d="M359.234 156.826C359.314 158.346 357.298 158.154 357.042 159.451C356.93 160.043 357.282 160.827 357.202 161.355C357.042 162.299 356.274 162.027 355.314 162.539C354.817 162.795 354.337 163.74 353.809 163.804C353.313 163.868 353.009 163.452 352.673 163.532C352.177 163.644 352.337 164.38 351.617 164.524C351.041 164.652 350.016 163.9 349.952 164.796C349.904 165.372 350.864 165.676 351.457 165.612C351.937 165.564 352.273 165.164 352.737 165.164C353.633 165.148 354.209 165.964 354.769 165.98C356.066 166.028 357.33 164.54 358.69 164.716C359.298 164.796 359.666 165.308 360.115 165.26C360.835 165.18 361.459 164.172 362.003 163.804C361.779 162.283 362.019 160.267 363.203 160.171C364.019 160.107 365.236 161.851 365.396 160.171C365.46 159.451 364.756 158.795 364.26 158.811C363.827 158.827 363.251 159.851 362.899 158.987C362.899 158.154 363.683 158.378 364.099 158.17C364.42 158.01 364.644 157.594 365.012 157.45C366.804 156.698 369.301 158.186 369.989 156.362C368.404 154.73 365.684 156.954 363.875 156.81C363.107 156.746 362.083 156.058 361.843 155.178C361.763 154.906 361.827 154.522 361.763 153.993C361.699 153.417 361.443 152.809 361.459 152.457C361.539 150.825 364.932 150.505 364.932 148.472C364.292 147.72 362.387 147.848 361.763 148.648C361.539 148.936 361.555 149.512 361.235 150.105C360.563 151.337 358.37 151.497 357.682 153.001C357.522 153.337 357.266 154.266 357.378 154.81C357.602 155.69 359.17 155.914 359.234 156.826ZM341.278 245.47C339.102 245.086 336.877 246.142 335.389 246.91C334.525 247.358 333.661 248.047 332.892 248.095C332.172 248.143 331.468 247.631 330.78 247.551C329.884 247.438 328.732 247.535 327.835 247.727C326.971 247.919 326.187 248.655 325.419 248.719C323.962 248.847 322.57 247.134 321.642 246.27C321.082 245.742 320.506 245.31 319.978 244.814C319.417 244.286 318.681 243.966 318.249 243.454C317.657 242.765 317.657 241.565 317.337 240.637C316.969 239.549 315.849 238.765 315 237.74C314.36 236.972 312.904 235.82 312.744 234.844C312.664 234.348 312.92 233.755 312.888 233.211C312.856 232.411 312.344 231.963 312.36 231.403C312.376 230.603 313.16 229.995 313.336 229.322C313.432 228.986 313.384 228.49 313.48 228.058C313.688 227.146 314.2 226.586 314.088 225.242C314.04 224.713 313.656 224.217 313.64 223.513C313.624 223.033 313.896 222.777 313.864 222.329C313.8 221.561 312.968 221.401 312.888 220.52C312.808 219.608 313.624 218.84 314.104 217.8C314.312 217.336 314.44 216.616 314.632 216.263C315.048 215.495 315.737 215.127 316.073 214.359C316.313 213.799 316.393 212.967 316.601 212.551C316.873 212.007 317.433 211.718 317.961 211.014C318.393 210.438 318.569 209.734 318.873 209.478C319.257 209.142 319.818 209.062 320.234 208.838C321.626 208.07 322.65 207.093 323.322 205.477C323.114 204.021 323.434 203.397 323.93 202.388C324.395 201.46 324.731 200.564 325.515 200.036C326.459 199.396 327.339 199.332 327.995 198.131C328.331 197.523 328.828 196.483 328.828 195.859C328.828 194.963 328.059 193.81 327.387 193.682C326.699 193.554 325.659 194.307 325.275 193.41C325.147 193.122 325.323 192.45 325.275 192.146C325.195 191.554 324.763 191.138 324.747 190.69C324.715 189.842 325.451 188.945 325.659 187.969C325.947 186.625 325.675 185.617 325.579 184.064C326.635 182.064 328.972 183.056 331.308 183.248C331.66 183.28 332.06 183.152 332.444 183.152C333.837 183.184 334.925 183.696 335.389 182.24C335.565 181.696 335.725 179.663 335.613 179.151C335.485 178.543 334.493 176.975 334.029 176.623C333.277 176.046 332.188 176.302 331.772 175.262C332.124 173.47 333.789 174.958 334.797 174.542C335.309 174.318 335.245 173.262 335.709 173.086C336.013 172.974 336.413 173.454 336.845 173.454C337.213 173.438 338.542 172.654 338.878 172.366C339.358 171.981 339.502 171.165 339.934 170.829C340.222 170.605 340.606 170.637 340.91 170.461C341.55 170.125 342.367 169.453 342.799 168.829C343.423 167.933 343.695 166.812 344.463 166.652C345.471 166.428 347.76 166.892 347.936 165.564C348.096 164.3 347.008 163.308 347.408 161.931C347.728 160.859 348.528 161.035 349.664 160.395C350.208 160.859 350.048 162.203 350.112 163.019C350.816 163.019 352.241 162.763 352.369 162.027C352.545 161.099 351.345 160.139 351.089 159.579C350.8 158.971 350.752 157.898 350.176 157.77C349.024 157.498 347.904 159.675 346.48 159.675C345.535 159.675 344.543 158.811 344.287 157.946C344.143 157.466 344.271 157.002 344.207 156.49C344.111 155.754 343.743 154.986 343.903 153.961C344.479 152.777 345.807 152.585 346.768 151.961C347.136 151.737 347.424 151.241 347.824 151.049C348.496 150.745 349.504 151.049 350.16 150.601C350.576 150.313 350.464 149.817 350.768 149.24C350.961 148.872 351.425 148.664 351.681 148.248C351.857 147.96 351.873 147.512 352.065 147.256C352.721 146.28 353.921 145.912 354.401 144.903C354.609 144.455 354.033 144.295 354.177 143.639C354.417 143.015 355.362 143.479 355.906 143.367C356.658 143.223 357.346 142.135 358.162 141.911C359.01 141.687 359.939 141.831 360.723 141.463C361.203 141.239 361.635 140.726 362.083 140.646C362.243 140.614 362.691 140.742 362.915 140.742C363.203 140.726 363.507 140.518 363.891 140.47C364.452 140.406 365.14 140.63 365.86 140.646C367.044 140.678 368.18 140.214 369.173 140.742C369.685 141.015 369.637 141.719 370.309 142.007C370.645 142.151 371.093 141.943 371.589 142.007C372.325 142.087 373.093 142.711 374.086 142.823C374.438 142.871 374.79 142.775 375.142 142.823C376.214 142.983 377.398 143.655 378.471 144.087C379.351 144.439 381.223 144.887 381.255 145.896C381.303 147.08 379.623 147.432 378.919 147.432C377.735 147.432 376.166 146.6 374.918 147.064C374.934 149.112 376.774 150.665 378.471 150.425C378.615 149.464 377.51 149.993 377.639 149.064C378.391 148.376 379.287 149.528 380.359 149.336C380.775 149.208 380.711 148.488 380.807 147.976C381.703 147.32 382.824 146.36 384.2 147.064C384.264 146.904 384.376 146.776 384.504 146.696C384.6 145.704 383.592 145.175 384.12 144.247C384.376 143.607 385.784 143.831 386.008 144.343C386.12 144.951 385.656 144.887 385.704 145.432C385.976 146.152 386.585 146.264 386.905 146.248C387.641 146.2 387.785 145.4 388.489 144.983C388.777 144.807 389.177 144.791 389.545 144.615C389.977 144.407 390.329 144.007 390.681 143.895C390.937 143.815 391.306 143.895 391.658 143.799C392.106 143.687 392.57 143.255 392.938 143.255C393.386 143.255 393.722 143.879 394.298 143.975C394.618 144.023 394.97 143.767 395.434 143.703C395.803 143.655 396.187 143.751 396.491 143.703C397.211 143.575 397.707 143.127 398.299 143.159C398.715 143.191 399.435 143.863 399.739 143.527C400.22 142.951 399.083 142.519 399.435 141.991C400.588 142.103 401.82 142.071 402.988 142.263C404.717 142.551 406.333 143.591 407.885 143.623C407.741 142.359 406.541 142.727 405.997 142.167C405.837 141.991 405.165 140.662 405.165 140.262C405.165 140.054 406.013 138.31 406.221 138.086C406.893 137.334 409.07 137.334 409.694 138.358C410.126 139.046 409.982 140.102 410.606 140.086C411.134 140.07 411.422 138.486 412.046 138.454C412.558 138.422 412.814 139.462 413.327 139.446C413.951 139.43 414.383 138.038 415.215 137.99C415.663 137.974 415.807 138.262 416.495 138.358C416.975 137.99 416.335 137.51 416.575 136.998C417.423 136.261 419.344 136.822 420.416 136.357C420.72 135.925 420.032 135.621 420.336 135.173C421.264 134.389 422.833 134.325 424.417 133.989C425.377 133.797 426.289 132.981 427.058 132.901C427.858 132.821 428.61 133.461 429.314 133.445C429.746 133.429 430.258 133.285 430.674 133.077C431.107 132.885 431.395 132.389 431.811 132.261C432.467 132.069 433.315 132.357 434.067 132.261C434.883 132.165 435.588 131.78 436.18 131.892C436.724 132.005 437.172 132.693 437.684 132.805C439.268 133.109 440.917 132.517 442.357 132.981C442.613 133.061 442.885 133.381 443.189 133.525C444.165 133.957 444.822 133.813 444.998 135.253C445.766 135.573 446.214 136.421 447.11 136.71C447.718 136.902 448.31 136.614 448.999 136.614C449.895 136.614 451.031 136.662 451.783 136.79C452.215 136.87 452.567 137.254 452.983 137.334C453.288 137.398 453.688 137.302 454.04 137.334C454.504 137.382 454.936 137.622 455.32 137.606C456.104 137.574 456.712 136.726 457.352 136.614C457.704 136.55 458.153 136.758 458.489 136.79C459.753 136.918 461.225 136.598 462.266 136.886C462.826 137.046 463.77 137.782 464.378 138.342C464.826 138.742 465.098 139.398 465.514 139.702C465.914 139.99 466.923 140.502 467.323 140.422C467.803 140.326 467.819 139.686 468.299 139.43C469.803 139.03 472.444 140.006 473.66 139.334C474.124 139.078 474.028 138.486 474.412 138.15C476.669 138.022 478.925 138.262 481.054 138.326C481.806 138.358 482.574 138.102 483.246 138.23C483.998 138.39 484.543 139.286 485.279 139.59C485.775 139.798 486.639 139.686 487.391 139.862C487.887 139.974 488.303 140.342 488.671 140.406C489.472 140.55 490.24 140.294 491.008 140.23C492.736 140.07 494.961 139.958 496.673 140.774C497.585 141.207 497.954 142.103 498.93 142.231C500.322 142.423 502.483 142.087 503.907 142.231C504.243 142.263 504.563 142.439 504.819 142.407C505.299 142.359 505.587 141.879 506.179 141.863C506.932 141.847 508.116 143.255 509.204 143.047C509.668 142.663 508.836 142.135 509.284 141.783C509.716 141.367 510.292 141.783 510.948 141.783C511.301 141.783 511.749 141.559 512.085 141.607C512.917 141.687 513.701 142.583 514.725 142.871C515.541 143.095 516.662 143.191 517.67 143.047C518.39 142.951 519.014 142.663 519.702 142.775C520.038 142.823 520.327 143.127 520.679 143.223C520.999 143.319 521.319 143.223 521.591 143.319C521.847 143.399 522.087 143.687 522.343 143.767C523.751 144.247 525.608 144.487 527.096 145.031C527.976 145.352 528.856 146.008 529.593 146.024C529.945 146.04 530.265 145.832 530.729 145.848C533.001 145.864 535.69 147 535.482 149.56C532.809 150.265 530.585 147.352 527.784 148.2C527.336 148.328 526.84 148.92 526.888 149.464C526.984 151.049 530.297 150.905 530.585 152.457C530.041 152.953 529.449 152.489 529.001 152.553C528.312 152.649 527.176 153.513 526.744 154.009C526.232 154.586 525.784 156.058 525.24 156.186C524.568 156.346 523.543 155.386 522.519 155.642C522.151 155.738 521.799 156.298 521.463 156.362C520.631 156.554 519.574 155.818 519.046 157.002C519.318 157.834 519.158 158.987 519.718 159.451C520.086 159.755 520.551 159.515 520.999 159.723C521.527 159.963 521.815 160.731 522.279 161.179C522.647 161.531 523.047 161.547 523.255 161.995C523.303 162.667 523.031 162.731 523.095 163.18C523.207 163.932 524.199 164.108 524.231 164.636C524.263 165.292 523.607 165.148 523.479 165.82C523.431 166.236 523.879 166.348 523.927 166.908C523.959 167.276 523.671 167.661 523.703 168.093C523.735 168.701 524.135 169.101 524.071 169.629C524.023 170.093 523.703 170.445 523.383 170.621C521.943 169.501 520.631 167.965 519.078 166.54C517.494 165.068 514.965 163.276 514.709 160.203C514.693 159.739 515.541 159.355 515.686 158.667C515.75 158.378 515.589 157.978 515.605 157.578C515.653 156.506 516.39 155.498 516.358 154.858C516.326 154.169 515.237 152.873 514.693 152.681C514.261 152.953 514.693 153.513 514.613 153.945C514.533 154.49 513.973 155.162 513.477 155.21C512.053 155.354 511.893 153.001 509.636 153.673C509.044 153.849 508.228 154.906 508.436 156.218C508.5 156.618 509.412 157.034 509.348 157.578C509.284 158.106 507.3 158.25 506.852 158.218C505.635 158.106 505.011 157.002 503.907 157.034C503.363 157.05 502.899 157.578 502.467 157.674C500.098 158.202 496.561 156.266 495.761 158.763C495.649 159.115 495.713 159.579 495.601 159.947C495.457 160.475 495.105 160.875 494.993 161.211C494.897 161.483 494.913 162.043 494.769 162.475C494.625 162.875 493.2 164.412 494.465 164.828C494.769 164.924 494.913 164.668 495.297 164.732C495.937 164.844 497.025 166.092 497.777 166.092C498.226 166.092 498.866 165.484 499.218 165.452C499.922 165.404 500.418 165.948 500.946 166.268C501.458 166.572 502.226 167.196 502.611 167.18C503.315 167.132 502.979 166.54 503.667 166.268C504.979 166.732 505.587 168.397 506.836 169.709C507.284 170.189 507.956 170.589 508.564 171.245C508.9 171.613 509.956 172.59 510.004 173.054C510.036 173.486 509.716 173.678 509.62 174.046C509.492 174.59 509.78 175.006 509.476 175.406C508.276 174.878 508.004 173.438 507.14 172.238C506.82 171.789 506.499 171.245 506.003 170.605C505.779 170.317 504.979 169.293 504.499 169.517C503.555 169.949 505.027 171.677 505.251 172.062C505.747 172.862 506.419 173.934 506.467 174.782C506.499 175.326 506.179 176.302 506.163 177.231C506.163 177.855 506.291 178.415 506.243 178.959C506.179 179.487 505.875 180.095 505.715 180.687C505.539 181.344 505.491 182.144 505.347 182.592C505.059 183.408 504.067 184.368 503.379 184.4C502.755 184.432 502.483 183.824 501.874 183.856C500.946 183.904 500.77 184.928 500.21 185.761C500.258 186.657 500.498 186.961 500.354 187.569C500.146 188.529 499.042 188.689 499.074 189.649C499.106 190.53 500.098 190.706 500.578 191.106C501.25 191.65 502.435 192.834 503.075 193.826C503.491 194.467 504.099 195.683 504.051 196.355C503.987 197.251 501.842 198.499 500.962 198.163C500.114 197.843 500.402 196.883 500.21 195.987C500.05 195.299 499.602 195.011 499.378 194.451C499.25 194.163 499.314 193.698 499.154 193.362C498.706 192.434 497.906 192.946 496.961 192.37C496.353 191.986 496.529 191.186 496.289 190.466C495.969 189.489 494.593 189.025 493.505 189.281C492.704 189.473 492.448 190.29 491.696 190.466C490.592 189.681 491.92 187.729 490.56 187.569C489.52 187.441 488.831 189.361 488.223 189.922C487.807 190.306 487.071 190.37 487.023 190.914C486.927 191.906 487.903 191.714 488.687 192.098C489.392 192.45 489.472 193.41 490.128 193.458C490.672 193.506 491.024 192.786 491.568 192.738C492.496 192.642 493.248 193.138 493.825 193.554C493.441 194.659 491.424 195.459 491.408 196.915C491.408 197.747 492.224 197.907 492.848 198.451C493.376 198.916 494.065 200.244 494.817 201.172C495.137 201.572 495.649 201.828 495.793 202.084C496.145 202.676 496.081 203.413 496.465 203.813C496.529 204.309 496.273 204.437 496.321 204.901C496.513 205.557 497.345 205.429 497.521 206.085C497.361 207.654 497.906 209.126 496.849 209.718C496.353 212.519 495.809 214.711 494.209 216.247C492.768 217.624 490.88 218.024 489.152 218.696C488.703 218.872 488.351 219.432 487.951 219.608C486.943 220.024 485.167 219.768 485.087 221.241C485.039 221.961 485.855 222.409 485.919 223.145C486.015 224.281 485.167 225.418 484.559 225.498C484.126 225.562 483.182 225.193 483.118 224.233C483.054 223.145 484.238 222.713 484.318 222.057C484.479 220.905 483.486 219.784 482.366 219.88C481.374 219.976 479.101 222.377 479.053 223.689C479.005 224.665 480.67 226.714 481.246 227.322C483.358 229.562 485.615 230.907 485.247 236.38C484.719 237.772 483.358 238.06 482.302 238.829C481.502 239.405 481.102 241.213 479.741 241.373C479.197 241.149 479.517 240.125 479.357 239.645C479.149 238.989 478.077 238.685 477.405 238.012C476.845 237.468 476.621 236.604 476.205 236.108C475.677 235.484 474.892 235.356 474.236 234.924C473.836 234.652 473.516 233.723 473.1 233.739C472.428 233.771 472.668 234.54 472.492 235.82C472.332 237.084 471.564 238.044 471.804 239.533C471.916 240.141 472.54 240.637 472.86 241.261C473.388 242.285 473.452 243.486 473.996 244.078C474.348 244.462 474.956 244.542 475.356 244.894C476.157 245.582 477.565 247.07 477.853 247.887C478.173 248.847 477.869 249.967 478.077 250.975C478.333 252.144 479.597 252.96 478.829 254.144C478.109 253.984 477.469 253.408 476.861 252.96C475.821 252.192 475.34 251.519 474.668 250.239C474.476 249.871 474.172 249.503 474.06 249.151C473.804 248.335 473.852 247.422 473.612 246.43C473.404 245.582 472.588 244.238 471.948 243.534C471.42 242.941 470.475 242.589 470.443 241.725C470.395 240.509 470.779 239.085 470.747 237.644C470.731 237.34 470.555 237.02 470.523 236.652C470.443 235.964 470.587 235.1 470.443 234.476C470.315 233.899 469.963 233.371 469.771 232.843C469.563 232.315 469.371 231.803 469.163 231.115C468.859 230.075 468.507 228.042 467.803 227.946C467.051 227.834 466.298 229.642 465.306 229.674C464.794 229.69 464.122 229.194 464.026 228.586C463.93 228.026 464.266 227.466 464.25 226.858C464.218 225.642 463.498 225.177 462.97 224.313C462.746 223.961 462.698 223.481 462.522 223.225C462.186 222.729 461.529 222.457 461.081 221.961C460.665 221.481 460.217 220.792 460.025 220.328C459.737 219.624 459.641 218.696 459.193 218.6C458.761 218.504 458.281 219.24 457.833 219.416C457.368 219.592 456.248 219.832 455.8 219.864C454.28 219.992 453.063 219.512 453.239 221.673C452.999 222.649 452.151 222.665 451.575 223.129C450.855 223.721 450.327 224.905 449.543 225.85C449.159 226.314 448.598 226.602 448.262 227.034C447.974 227.386 447.878 227.962 447.574 228.298C446.774 229.21 445.558 229.29 445.014 230.571C444.982 232.075 445.606 233.211 445.462 234.652C445.398 235.308 444.998 235.884 444.934 236.556C444.886 237.132 445.126 237.756 445.014 238.364C444.95 238.701 444.646 238.861 444.406 239.277C444.197 239.645 444.117 240.125 443.957 240.365C443.701 240.749 443.285 241.021 443.045 241.357C442.661 241.901 442.581 242.285 442.213 242.349C440.565 242.637 440.149 238.861 439.428 237.276C439.092 236.556 438.404 235.884 438.068 235.004C437.684 233.995 437.556 232.715 437.012 231.563C436.548 230.571 435.892 229.594 435.572 228.57C435.299 227.706 435.075 226.634 434.819 225.674C434.547 224.665 434.259 223.385 434.211 222.585C434.147 221.401 434.403 220.68 433.603 220.232C432.883 220.44 432.547 221.321 431.715 221.321C430.914 221.321 428.754 219.64 429.378 218.152C428.85 217.256 427.522 216.76 426.513 215.703C425.937 215.095 425.409 213.655 424.401 213.527C424.129 213.495 423.761 213.687 423.489 213.703C422.849 213.767 421.712 213.639 420.992 213.703C420.08 213.783 418.976 214.039 417.824 213.879C417.087 213.783 416.175 213.607 415.407 213.511C414.447 213.399 413.151 213.111 412.622 212.519C412.286 212.151 412.158 210.966 411.566 210.79C410.862 210.598 410.478 211.238 409.838 211.43C408.461 211.814 407.293 211.094 406.365 210.342C405.709 209.814 405.101 209.542 404.637 209.158C403.484 208.23 403.276 205.461 401.548 205.445C400.94 205.445 399.98 205.893 399.883 206.709C399.819 207.285 400.46 208.358 400.716 208.79C401.564 210.23 403.116 210.758 403.58 212.679C403.9 212.823 404.525 212.343 404.861 212.775C405.149 213.607 404.861 215.127 405.533 215.495C408.669 216.119 409.566 214.055 410.958 212.599C411.774 213.239 411.502 213.799 411.79 214.503C412.078 215.223 412.526 215.799 413.07 216.039C413.455 216.215 413.935 216.055 414.511 216.311C414.863 216.472 416.351 218.168 416.399 218.76C416.431 219.288 415.423 221.113 415.119 221.561C414.815 222.009 414.351 222.249 414.207 222.649C414.095 222.969 414.127 223.625 414.063 223.833C413.919 224.201 413.247 224.665 412.862 225.097C412.446 225.562 411.966 225.914 411.582 226.282C411.102 226.714 410.814 227.322 410.302 227.546C409.294 227.994 408.349 227.802 407.517 228.458C406.973 228.89 406.973 229.851 406.317 230.363C405.629 230.907 404.445 230.907 403.452 231.451C402.812 231.803 402.428 232.475 401.868 232.715C401.644 232.811 401.356 232.731 401.116 232.811C400.62 232.971 400.156 233.387 399.675 233.531C399.307 233.643 398.907 233.595 398.539 233.707C397.371 234.107 396.315 235.532 395.146 234.7C394.602 233.179 394.506 231.243 393.866 229.899C393.546 229.21 392.89 228.986 392.666 228.266C392.634 227.69 393.226 227.85 393.274 227.354C393.082 226.378 392.314 225.914 391.85 225.081C391.626 224.681 391.514 224.105 391.242 223.625C390.345 222.057 388.569 221.241 388.217 219.272C388.121 218.744 388.233 218.328 388.137 217.912C387.993 217.24 387.609 216.536 387.225 216.007C386.937 215.607 386.344 215.335 386.024 214.743C385.8 214.359 385.752 213.799 385.576 213.383C384.824 211.702 383.736 210.214 382.552 209.03C381.943 209.142 381.271 209.19 380.967 209.67C381.271 210.854 381.751 211.846 382.248 212.839C382.712 213.751 383.368 214.711 383.672 215.735C383.784 216.119 383.768 216.6 383.896 217C384.376 218.44 385.864 218.872 386.152 220.536C386.36 221.641 386.104 222.409 386.376 223.529C386.633 224.601 387.945 225.225 388.489 226.25C388.937 227.082 388.937 228.266 389.241 229.066C389.689 230.235 390.953 230.731 391.882 231.515C392.714 232.219 393.306 233.307 393.994 234.059C394.394 234.492 394.954 234.572 395.05 235.052C395.178 235.66 394.842 235.868 394.746 236.412C395.322 237.132 395.883 238.476 396.859 238.589C397.259 238.637 397.755 238.156 398.363 238.044C398.667 237.996 399.019 238.108 399.275 238.044C399.675 237.964 400.028 237.532 400.492 237.404C401.26 237.212 402.156 237.292 403.132 237.132C404.06 236.988 404.685 236.044 405.389 236.316C406.157 237.34 405.613 238.492 405.389 239.485C405.309 239.837 405.309 240.189 405.245 240.477C404.829 242.093 403.772 243.278 403.276 244.734C403.132 245.182 403.148 245.726 402.972 246.19C402.412 247.647 401.244 249.071 400.332 250.271C399.819 250.943 399.371 251.551 398.827 252.08C398.283 252.608 397.627 252.912 397.019 253.44C395.819 254.496 394.554 256.016 393.706 257.425C393.37 257.969 393.226 258.593 392.874 259.057C392.378 259.713 391.626 260.033 391.21 260.689C390.89 261.202 390.681 262.13 390.297 263.042C389.881 264.082 389.017 264.786 389.161 266.211C389.225 266.755 389.625 267.107 389.769 267.667C390.009 268.627 389.817 269.443 389.689 270.468C390.121 271.716 390.425 273.092 391.194 273.908C391.29 275.749 391.066 277.525 391.194 279.078C391.274 280.07 391.594 280.79 391.274 281.702C390.985 282.502 389.897 283.911 389.241 284.423C388.521 284.983 387.433 285.111 386.681 285.783C386.152 286.247 385.704 287.047 385.176 287.592C384.28 288.488 383.064 289.32 382.984 290.216C382.936 290.728 383.32 291.528 383.432 292.025C383.72 293.369 384.008 295.289 383.512 296.73C382.968 298.298 380.199 297.978 379.895 299.626C379.799 300.122 380.087 300.538 380.039 301.083C380.007 301.547 379.511 303.211 379.287 303.707C378.951 304.459 378.199 304.795 377.703 305.436C377.078 306.236 376.774 307.404 376.118 308.236C375.222 309.388 374.022 310.589 372.869 311.597C371.861 312.461 370.069 313.373 368.5 313.501C367.588 313.581 366.596 313.245 365.636 313.405C365.284 313.469 364.9 313.853 364.436 313.949C364.163 313.997 363.891 313.885 363.603 313.949C363.123 314.046 362.691 314.494 362.243 314.494C361.267 314.478 360.019 313.085 359.987 311.693C359.971 311.149 360.371 310.653 360.371 310.157C360.355 309.581 359.779 308.844 359.314 307.804C358.866 306.796 358.706 305.644 358.258 304.811C357.794 303.931 357.17 303.515 356.818 302.811C356.13 301.419 356.066 299.77 355.842 298.09C355.762 297.546 355.458 296.954 355.394 296.282C355.314 295.449 355.474 294.521 355.314 293.833C355.185 293.305 354.705 292.761 354.401 292.105C353.873 290.936 353.489 289.4 353.041 288.488C352.609 287.64 351.761 286.743 351.681 285.767C351.633 285.111 351.745 283.879 351.825 283.223C351.905 282.582 352.305 282.086 352.433 281.414C352.513 280.966 352.417 280.454 352.513 279.958C352.897 277.877 354.801 277.125 354.545 274.613C354.433 273.54 353.809 273.012 353.713 271.796C353.665 271.236 353.953 270.724 353.937 270.164C353.921 269.395 353.393 268.259 353.105 267.539C352.337 265.539 351.873 263.714 350.768 262.194C350.16 261.362 349.376 260.786 348.88 260.017C348.48 259.393 347.984 258.225 347.968 257.745C347.952 257.233 348.304 256.897 348.416 256.385C348.576 255.712 348.592 254.448 348.8 253.392C348.896 252.912 349.328 251.727 349.248 250.943C349.168 250.191 348.24 248.735 347.44 248.495C346.383 248.175 345.295 248.895 343.967 248.767C342.847 248.031 342.927 245.758 341.278 245.47ZM382.984 277.909C383.336 277.237 383.768 275.365 382.984 274.917C382.936 274.917 382.888 274.917 382.84 274.917C382.504 275.669 382.136 277.493 382.984 277.909ZM381.927 258.961C382.184 258.337 382.776 257.665 382.68 256.881C382.456 255.136 379.751 256 379.431 257.249C379.223 258.081 379.559 258.753 379.271 259.601C379.575 260.273 380.311 260.401 381.239 260.321C381.767 260.065 381.703 259.537 381.927 258.961ZM377.334 268.307C377.639 267.635 376.854 267.203 376.726 266.499C376.582 265.667 376.902 264.674 376.278 264.226C376.198 264.226 376.134 264.226 376.054 264.226C375.51 265.715 376.278 268.163 377.334 268.307ZM428.77 178.303C428.482 177.615 427.666 178.511 428.018 179.119C428.53 179.151 428.722 178.799 428.77 178.303ZM411.198 182.016C412.414 181.728 411.214 179.391 410.286 179.663C409.086 180.031 410.366 182.208 411.198 182.016ZM405.613 193.714C405.997 190.578 403.948 190.338 403.58 188.097C403.756 188.129 403.66 187.841 403.804 187.825C404.301 187.537 405.053 188.289 405.309 187.553C405.309 186.481 404.188 185.681 403.052 186.193C402.732 185.921 402.684 185.312 402.604 184.736C401.756 184.128 399.627 182.784 399.659 181.568C399.691 180.559 400.764 179.999 401.996 180.031C402.524 179.551 402.188 178.095 401.692 177.759C399.739 177.247 398.699 177.599 397.467 178.671C396.875 179.183 396.219 179.535 395.883 179.855C395.579 180.143 395.178 180.912 395.21 181.312C395.258 181.872 395.931 182.208 396.187 182.944C396.315 183.328 396.299 183.808 396.411 184.128C396.747 185.008 397.579 185.569 398.219 186.305C398.667 186.817 399.932 187.953 399.948 188.577C399.964 189.089 399.563 189.201 399.419 189.762C399.275 190.306 399.115 191.57 399.195 192.034C399.355 193.026 400.22 193.058 401.004 193.49C401.788 193.906 402.54 194.643 403.34 194.675C404.22 194.643 405.133 194.307 405.613 193.714ZM387.897 187.185C389.945 186.737 389.001 184.672 387.977 183.92C387.193 183.36 386.248 182.864 385.336 182.192C384.808 181.808 382.792 181.072 382.776 180.287C382.76 179.439 384.28 179.151 383.688 177.663C382.648 177.359 380.199 177.839 380.375 179.199C380.471 179.983 381.255 179.551 381.431 180.383C380.695 180.703 379.799 181.536 379.015 181.376C378.087 181.2 377.847 179.839 377.35 179.023C376.63 179.055 376.166 178.191 375.318 178.303C374.438 178.415 373.958 179.967 373.51 180.751C373.27 181.168 372.885 181.376 372.757 181.744C372.677 181.968 372.757 182.32 372.677 182.656C372.421 183.664 371.685 184.032 371.765 184.928C371.829 185.713 372.549 186.065 372.597 186.737C372.549 187.441 371.621 187.073 371.685 187.921C373.029 189.265 373.11 187.297 373.798 187.009C374.342 186.785 375.43 187.185 376.134 187.009C376.694 186.865 377.142 186.209 377.799 185.921C378.199 185.745 378.679 185.585 379.239 185.553C381.639 185.441 383.192 187.313 385.272 187.361C385.944 187.377 387.177 187.345 387.897 187.185ZM383.064 197.875C383.112 196.899 382.76 196.163 382.68 194.803C381.287 193.794 380.247 195.731 378.839 195.523C377.975 195.395 377.35 194.178 376.422 194.339C375.91 194.435 375.654 195.219 375.142 195.331C374.07 195.571 373.574 194.291 372.421 194.787C370.805 193.314 370.085 190.898 369.701 188.177C368.821 186.785 367.476 187.921 366.836 188.817C366.436 188.817 365.94 188.561 365.86 189.089C365.556 190.77 367.828 190.946 367.812 192.082C367.812 192.818 366.932 192.754 366.532 193.266C366.116 193.81 366.388 194.291 365.86 194.627C364.372 194.835 363.875 193.858 363.891 192.274C363.251 191.106 362.435 190.242 361.859 189.281C361.651 188.929 361.315 188.369 361.251 187.825C361.203 187.409 361.411 186.865 361.331 186.369C361.171 185.505 359.827 184.848 358.994 184.368C358.098 183.856 356.994 183.376 356.354 182.736C355.906 182.288 355.698 181.488 355.298 181.2C354.961 180.944 354.545 180.992 354.241 180.751C353.825 180.399 353.889 179.823 353.329 179.663C353.041 179.535 352.609 179.999 352.417 180.303C352.049 182.288 353.393 182.416 354.001 183.296C354.417 183.904 354.625 184.8 355.057 185.2C355.506 185.617 356.13 185.553 356.722 185.841C357.122 186.033 357.394 186.641 357.778 186.929C358.498 187.457 359.65 187.553 359.747 188.561C359.298 188.929 358.29 188.033 357.938 188.929C357.842 189.521 358.322 189.826 358.322 190.386C358.306 191.282 357.474 192.258 356.738 192.114C356.658 191.586 357.138 191.154 357.122 190.578C357.09 189.425 355.153 187.665 354.177 187.137C353.713 186.881 353.153 186.881 352.737 186.593C352.001 186.097 350.704 184.864 350.24 184.144C349.696 183.28 349.248 181.696 348.048 181.792C347.568 181.824 347.168 182.368 346.768 182.608C346.4 182.832 345.999 183.04 345.631 183.328C345.199 183.68 344.831 184.032 344.431 184.048C343.487 184.096 342.687 183.2 341.87 183.408C341.598 183.472 341.374 183.776 341.038 184.128C341.022 184.656 341.166 184.992 341.118 185.569C340.878 186.081 340.142 186.049 339.614 186.385C338.83 186.881 338.142 187.889 337.501 188.657C337.085 189.137 336.717 189.537 336.669 189.922C336.637 190.226 336.877 190.786 336.829 191.186C336.765 191.618 336.077 192.53 335.629 192.914C335.357 193.138 335.005 193.17 334.717 193.362C334.125 193.778 333.853 194.339 333.357 194.451C332.044 194.739 329.644 194.131 329.66 195.811C329.676 196.931 330.924 196.931 331.692 196.899C332.764 196.851 333.661 197.171 334.253 196.995C334.653 196.867 335.101 196.323 335.533 196.083C335.805 195.939 336.077 195.939 336.285 195.811C336.733 195.539 336.989 195.091 337.341 194.899C338.03 194.515 339.31 194.227 340.062 194.179C341.086 194.114 342.143 194.307 343.455 194.179C343.919 194.13 344.383 193.778 344.895 193.73C345.711 193.65 346.8 194.114 347.456 194.098C347.92 194.082 348.432 193.538 348.96 193.554C349.568 193.57 350.208 194.082 350.32 194.547C350.384 194.819 350.192 195.235 350.24 195.635C350.32 196.291 350.8 196.563 350.768 196.995C350.72 197.555 349.552 198.323 349.712 198.996C349.824 199.428 350.656 199.876 351.073 200.18C351.505 200.5 352.225 200.932 352.737 200.996C353.169 201.06 353.537 200.852 353.937 200.9C354.593 200.98 355.634 201.46 356.05 201.812C356.754 202.404 356.658 203.381 357.474 203.717C357.826 203.861 358.45 203.781 358.914 203.893C360.019 204.181 360.835 205.269 361.635 205.157C362.899 204.981 362.323 203.557 362.467 202.532C362.787 200.212 366.548 200.324 367.3 201.892C367.844 202.068 368.34 201.924 368.965 202.164C369.333 202.308 369.589 202.788 369.941 202.884C370.197 202.964 370.581 202.836 370.917 202.884C372.357 203.077 373.67 204.373 374.918 204.149C375.702 204.005 376.278 203.125 377.03 203.061C378.471 202.948 379.399 204.357 380.951 203.701C382.104 203.221 381.847 201.796 382.232 200.34C382.504 199.316 383.032 198.644 383.064 197.875ZM464.378 166.972C464.682 165.82 464.218 164.652 463.626 163.884C462.762 164.06 463.386 165.148 463.322 165.788C463.242 166.684 462.442 167.308 462.49 168.237C462.201 168.637 461.705 168.797 461.657 169.501C462.137 169.901 462.346 169.181 462.714 168.781C463.29 168.141 464.186 167.757 464.378 166.972ZM444.614 135.525C443.781 135.525 443.477 135.925 442.949 136.245C442.661 136.421 442.085 136.534 442.277 137.062C442.997 136.966 444.438 136.566 444.614 135.525ZM412.782 146.68C414.559 147.176 415.391 144.775 414.207 143.415C413.935 143.095 413.006 142.983 412.622 142.231C412.158 141.351 412.222 140.166 411.118 140.422C411.102 140.534 411.134 140.678 411.038 140.694C410.942 142.679 413.343 143.175 413.295 144.775C413.295 145.608 412.558 145.688 412.782 146.68Z" fill="white"></path><path d="M387.961 143.223C387.737 142.247 389.289 142.407 389.017 143.319C388.777 143.591 388.121 143.575 387.961 143.223Z" fill="white"></path><path d="M378.695 197.427C378.727 196.675 380.151 196.403 380.423 197.059C380.327 197.795 378.983 198.291 378.695 197.427Z" fill="white"></path><path d="M352.817 192.53C353.601 191.762 355.361 192.29 356.434 192.258C356.226 192.946 356.194 193.858 355.746 194.259C354.529 193.986 353.361 193.618 352.817 192.53Z" fill="white"></path><path d="M347.312 187.729C348.352 186.433 349.44 187.121 349.04 189.634C348.8 190.386 347.712 191.394 347.232 190.274C347.392 189.393 347.328 188.737 347.312 187.729Z" fill="white"></path><path d="M348.816 184.832C348.896 185.601 348.64 185.937 348.288 186.193C347.296 185.985 348.048 183.84 348.816 184.832Z" fill="white"></path><path d="M334.189 166.428C334.269 165.916 333.933 165.26 333.501 164.972C333.261 164.812 332.877 164.876 332.589 164.7C331.852 164.22 331.58 163.196 331.164 162.971C331.212 161.979 330.94 161.259 331.164 160.619C331.308 160.235 332.284 159.115 332.829 158.891C333.485 158.618 334.173 158.859 334.557 158.25C334.733 158.218 334.845 158.266 334.941 158.346C334.941 158.923 334.541 159.019 334.493 159.531C334.589 160.347 335.789 159.835 335.917 160.619C335.805 161.467 335.165 161.627 335.165 162.251C335.165 162.795 336.077 163.804 336.525 164.524C336.861 165.052 337.438 165.436 337.726 165.98C337.982 166.444 338.046 167.004 338.254 167.244C338.654 167.693 339.55 167.773 339.614 168.429C339.694 169.293 338.718 169.629 338.862 170.605C337.822 171.581 336.093 171.069 334.413 171.325C333.645 171.437 332.813 172.35 331.996 171.597C331.804 170.989 332.669 170.909 332.749 170.333C332.685 169.805 332.124 169.869 331.996 169.421C332.22 168.717 332.893 168.573 332.829 167.517C333.245 166.972 334.061 167.18 334.189 166.428Z" fill="white"></path><path d="M328.524 164.252C329.532 163.516 331.292 164.076 331.388 164.972C331.468 165.66 330.86 165.756 330.636 166.508C330.444 167.196 330.668 168.029 330.412 168.509C330.188 168.925 329.548 168.893 329.132 169.053C328.188 169.389 326.347 170.733 325.579 169.229C325.691 168.429 326.331 168.269 326.555 167.597C326.571 167.068 326.107 166.796 326.171 166.236C326.267 165.548 326.699 165.788 327.307 165.516C327.771 165.324 327.948 164.668 328.524 164.252Z" fill="white"></path><path d="M277.008 144.583C277.168 145.383 275.023 146.44 274.815 145.4C274.655 144.567 276.464 143.527 277.008 144.583Z" fill="white"></path><path d="M274.511 348.869C274.127 348.869 273.759 348.869 273.375 348.869C273.583 348.725 274.319 348.725 274.511 348.869Z" fill="white"></path><path d="M271.119 138.15C271.215 138.022 271.471 138.022 271.567 138.15C271.487 138.358 271.439 138.598 271.119 138.518C271.119 138.39 271.119 138.278 271.119 138.15Z" fill="white"></path><path d="M264.413 152.569C264.429 153.065 262.909 153.897 262.749 152.937C262.717 152.761 262.749 152.425 263.053 152.217C263.453 151.897 264.397 152.073 264.413 152.569Z" fill="white"></path><path d="M233.03 236.764C232.982 236.892 232.918 236.988 232.886 237.132C232.07 237.084 232.806 235.868 233.03 236.764Z" fill="white"></path><path d="M202.399 173.406C202.927 173.038 203.439 173.966 203.071 174.398C202.495 174.542 202.351 173.742 202.399 173.406Z" fill="white"></path><path d="M284.626 176.767C284.274 176.655 283.794 176.687 283.345 176.591C282.961 176.51 282.497 176.366 282.145 176.318C281.217 176.19 280.209 176.51 279.649 175.87C280.545 174.43 281.745 173.022 282.897 171.789C283.233 171.421 283.97 171.165 283.81 170.429C283.169 169.757 282.385 170.477 281.777 170.877C281.137 171.309 280.385 171.933 279.665 172.062C278.416 172.286 276.768 171.629 275.744 172.43C275.6 173.118 276.896 172.846 276.72 173.886C276.224 173.982 275.744 174.03 275.36 173.614C275.008 173.23 275.216 172.67 274.976 172.43C274.591 172.045 273.135 171.933 272.479 172.062C271.679 172.222 270.991 172.782 270.895 173.598C271.855 174.126 273.423 173.054 273.759 174.414C273.231 175.55 272.015 176.158 272.175 177.679C272.239 178.255 272.815 179.039 273.231 179.135C273.647 179.215 273.887 178.719 274.287 178.767C274.719 178.815 274.623 179.407 275.12 179.311C275.84 178.943 276.24 177.711 277.088 177.775C278.08 179.231 276.192 179.935 275.12 180.399C273.919 180.927 272.335 181.2 271.423 181.664C270.943 181.904 269.118 184.032 268.862 182.384C268.67 181.2 269.758 181.552 269.998 180.575C268.83 180.303 267.742 181.184 266.686 181.664C265.165 182.352 262.605 182.784 262.237 184.832C262.157 185.248 262.381 186.017 262.157 186.289C261.981 186.513 260.892 186.545 260.428 186.737C259.708 187.041 259.068 187.681 258.62 187.825C258.284 187.937 257.788 187.905 257.564 188.001C256.971 188.273 256.747 189.249 256.059 189.906C255.771 190.178 255.147 190.37 254.923 190.626C254.539 191.09 254.475 192.258 253.787 192.434C253.355 192.482 252.987 192.034 252.586 192.338C252.538 193.49 252.923 195.059 252.506 196.243C251.61 197.123 250.634 197.731 249.482 198.515C248.842 198.948 248.282 199.06 247.513 199.508C246.969 199.828 246.473 200.612 245.849 201.044C244.409 202.068 242.664 203.269 242.68 205.845C242.68 206.405 242.92 206.997 242.984 207.653C243.016 208.038 242.952 208.406 242.984 208.838C243.08 209.782 243.64 210.998 242.984 211.638C241.976 211.142 240.68 210.966 239.96 210.102C239.768 209.206 240.36 208.47 240.264 207.653C240.184 206.997 239.432 205.829 238.983 205.749C238.519 205.669 238.103 206.245 237.623 206.197C237.063 206.149 236.535 205.205 235.815 205.109C234.758 204.965 233.974 205.397 232.79 205.205C231.654 205.941 231.318 207.237 229.925 207.109C229.429 207.061 228.981 206.613 228.421 206.469C227.813 206.309 226.869 206.053 226.229 206.101C224.948 206.197 224.02 207.317 222.916 208.006C221.94 208.614 220.563 209.366 220.275 210.63C220.115 211.302 220.243 212.263 220.051 212.903C219.923 213.319 219.619 213.687 219.443 214.087C218.595 215.943 217.891 218.392 218.547 221.065C218.643 221.465 219.475 223.689 219.827 224.137C220.211 224.633 221.363 225.385 222.02 225.401C222.564 225.417 223.22 225.065 223.748 224.953C224.372 224.825 225.14 224.809 225.716 224.585C227.349 223.961 227.029 221.305 228.661 220.408C229.365 220.024 230.197 219.944 231.446 219.864C231.846 220.264 232.038 220.968 231.974 221.593C231.926 222.057 231.574 222.473 231.366 223.129C231.19 223.705 231.158 224.393 230.982 224.857C230.758 225.465 230.261 225.914 230.069 226.49C229.957 226.858 230.021 227.322 229.925 227.674C229.749 228.266 229.093 228.698 229.397 229.306C231.014 230.075 232.966 229.082 234.374 229.402C234.967 229.53 236.199 230.395 236.183 231.483C236.183 232.299 235.655 232.843 235.575 233.755C235.479 234.892 235.095 236.284 235.047 237.196C234.983 238.7 236.887 241.293 238.215 241.277C239.656 241.261 240.488 239.565 242.216 240.461C242.792 240.765 243.4 241.869 244.025 241.821C244.553 241.773 245.337 240.685 245.689 239.917C246.121 238.989 246.137 238.204 246.889 237.74C247.705 237.244 248.346 237.484 249.386 237.02C249.85 236.812 250.25 236.46 250.666 236.108C251.034 235.804 251.418 235.02 251.866 235.564C252.474 236.284 251.13 236.7 251.642 237.468C252.683 238.14 253.227 236.236 253.979 236.204C254.219 236.188 255.051 236.764 255.483 237.116C256.075 237.58 256.267 238.236 256.923 238.38C257.34 238.476 257.996 238.188 258.588 238.284C259.356 238.412 259.82 239.213 260.396 239.197C261.1 239.181 261.452 238.236 262.061 238.108C263.389 237.82 263.885 238.284 264.477 239.293C265.133 239.437 265.149 238.38 265.757 238.748C265.421 239.533 265.869 239.901 266.142 240.557C266.318 240.973 266.286 241.277 266.446 241.469C266.798 241.885 267.502 241.885 268.03 242.285C268.59 242.701 268.894 243.486 269.534 244.366C270.19 245.262 271.295 246.206 272.175 246.27C273.007 246.334 273.679 245.982 274.367 246.094C275.92 246.318 276.896 247.262 277.984 248.271C278.592 248.831 279.152 249.231 279.345 249.903C279.489 250.367 279.409 251.007 279.569 251.535C279.905 252.656 281.265 253.216 280.769 255.168C280.993 255.744 281.505 255.952 282.049 256.352C282.481 256.672 282.849 257.345 283.329 257.441C283.633 257.505 283.97 257.329 284.242 257.345C285.106 257.425 285.682 257.809 286.434 258.161C286.898 258.369 287.49 258.465 287.794 258.705C288.179 259.009 288.227 260.065 288.707 260.337C289.011 260.513 289.699 260.273 290.211 260.337C291.027 260.449 292.115 261.041 292.852 261.057C293.3 261.073 293.668 260.833 294.052 260.881C295.892 261.057 296.948 263.714 298.725 264.514C299.285 264.77 300.149 264.594 300.533 264.786C301.205 265.138 301.766 267.587 301.814 268.675C301.974 271.972 299.861 273.028 298.645 275.205C298.389 275.653 298.245 276.389 297.893 277.013C297.173 278.293 296.356 278.565 296.452 280.918C296.484 281.558 296.756 282.198 296.756 282.918C296.756 283.799 296.692 284.935 296.532 285.735C296.404 286.343 295.988 286.823 295.924 287.367C295.86 287.912 296.052 288.344 296.004 288.824C295.94 289.352 295.508 290.088 295.172 290.808C294.468 292.361 294.324 294.169 292.916 294.793C292.083 295.161 290.963 294.953 290.051 295.337C289.683 295.497 289.219 295.897 288.771 296.153C287.458 296.89 285.586 297.882 285.218 299.514C284.898 300.97 285.666 302.123 285.442 303.771C285.202 304.267 284.898 304.763 284.53 305.307C284.21 305.82 284.05 306.428 283.698 306.94C283.249 307.628 282.545 307.916 282.273 308.844C282.177 309.148 282.241 309.532 282.129 310.028C282.081 310.205 281.809 310.493 281.681 310.845C281.553 311.165 281.569 311.581 281.457 311.837C281.105 312.669 280.081 314.574 279.345 314.83C277.776 315.358 276.128 314.029 275.04 314.285C275.2 315.198 275.744 315.102 276.096 315.742C276.304 316.11 276.416 316.606 276.704 317.006C277.04 317.47 277.344 317.646 277.376 318.19C277.456 319.311 276.736 320.431 276.24 320.815C275.792 321.167 274.848 321.375 274.047 321.535C273.487 321.647 272.047 321.647 271.791 322.079C271.407 322.703 271.999 324.256 271.711 324.88C271.151 326.208 269.63 324.848 268.846 325.248C268.782 325.936 268.99 326.656 269.454 326.976C269.934 327.312 270.655 326.88 270.959 327.52C270.799 328.417 269.998 328.545 269.822 329.425C269.838 330.289 270.062 330.513 269.966 331.057C269.774 332.225 268.27 332.177 268.302 333.41C268.366 335.266 271.263 334.498 271.327 336.306C271.359 337.395 270.495 337.411 270.19 338.483C270.03 339.059 270.286 339.187 270.19 339.667C270.062 340.307 269.438 340.499 269.438 341.203C269.438 342.068 270.495 343.028 271.023 343.748C271.535 344.452 272.207 345.46 272.911 345.925C273.967 346.629 275.552 346.469 276 347.733C275.856 348.501 275.248 348.693 274.639 348.917C274.591 348.917 274.543 348.917 274.495 348.917C274.287 348.773 273.567 348.773 273.359 348.917C273.007 348.917 272.655 348.917 272.303 348.917C271.295 348.357 270.062 348.005 268.83 347.477C268.382 347.285 267.886 346.837 267.39 346.581C267.022 346.373 266.622 346.309 266.334 346.117C265.677 345.701 264.957 344.372 264.301 343.86C263.901 343.54 263.277 343.364 263.021 343.044C262.781 342.74 262.637 342.068 262.413 341.684C262.173 341.268 261.725 340.963 261.436 340.499C260.812 339.491 260.012 338.147 259.996 337.411C259.996 336.69 260.572 336.194 260.38 335.506C260.188 334.866 259.036 335.01 258.876 334.226C258.78 333.762 259.212 332.978 259.18 332.321C259.164 331.937 258.572 331.425 258.796 330.865C259.068 330.225 259.58 330.913 259.996 330.593C259.676 329.281 260.028 327.184 258.94 326.784C258.38 327.344 259.5 328.609 258.556 328.961C257.644 328.481 257.852 327.024 257.644 325.968C257.516 325.264 257.228 324.64 257.196 323.888C257.18 323.488 257.324 323.039 257.276 322.623C257.116 321.407 255.979 320.399 255.915 319.183C255.883 318.59 256.219 318.094 256.299 317.454C256.347 317.022 256.251 316.542 256.299 316.094C256.363 315.518 256.635 314.99 256.683 314.462C256.779 313.469 256.683 311.757 256.539 310.925C256.347 309.884 255.659 308.988 255.563 307.852C255.531 307.436 255.675 306.748 255.643 306.22C255.611 305.724 255.387 305.243 255.339 304.683C255.307 304.171 255.451 303.675 255.483 303.051C255.563 301.915 255.291 300.65 255.339 299.514C255.355 299.178 255.499 298.938 255.483 298.602C255.467 297.674 255.211 296.73 255.179 295.785C255.115 294.057 255.339 292.841 255.099 291.256C254.923 290.056 254.699 288.2 254.347 287.447C253.947 286.599 252.362 285.175 251.562 284.631C251.034 284.279 250.41 284.151 249.834 283.815C248.602 283.094 246.217 281.558 245.689 280.102C245.529 279.686 245.561 279.126 245.385 278.645C245.065 277.717 244.361 276.917 243.881 276.021C242.952 274.308 242.2 272.164 241.24 270.404C240.76 269.507 240.344 268.483 239.816 267.779C239.512 267.363 238.503 266.963 238.375 266.323C238.199 265.491 237.687 264.338 237.767 263.698C237.879 262.834 239.272 262.13 239.272 261.346C239.272 260.673 238.519 260.289 238.359 259.713C237.975 258.321 238.583 257.521 239.031 256.352C239.175 255.968 239.336 255.36 239.48 255.088C239.752 254.592 240.312 254.448 240.68 253.904C240.888 253.6 241.016 252.976 241.288 252.544C241.864 251.631 242.792 251.279 243.016 250.463C243.208 249.791 243.32 246.43 243.096 245.294C242.968 244.638 242.456 244.094 242.264 243.486C241.928 242.397 241.848 241.197 240.904 241.213C240.328 241.229 239.912 241.997 239.544 242.477C239.448 243.117 239.496 243.822 238.935 244.014C238.071 244.318 237.751 242.925 236.743 242.557C236.343 242.413 235.703 242.413 235.463 242.285C234.726 241.885 234.502 240.605 233.734 240.109C233.094 239.693 232.534 239.837 232.15 239.197C231.99 238.764 232.118 237.964 232.07 237.388C231.238 236.812 230.55 234.636 229.573 234.123C228.933 233.787 227.957 233.819 227.157 233.483C226.789 233.323 226.485 233.131 226.101 233.035C225.62 232.907 225.124 232.891 224.74 232.667C223.252 231.771 222.436 228.89 220.595 228.954C219.811 228.986 219.043 229.866 218.339 229.866C217.635 229.866 216.434 229.178 215.554 228.682C214.626 228.17 213.602 227.882 212.834 227.418C212.209 227.034 211.793 226.346 211.249 226.058C210.833 225.834 210.225 225.802 209.889 225.61C209.409 225.337 208.897 224.745 208.305 224.249C207.728 223.769 207.12 223.049 207.104 222.441C207.072 221.737 207.648 221.129 207.712 220.44C207.904 218.28 206.576 216.728 205.744 215.463C205.12 214.519 204.4 213.719 203.792 212.839C203.824 212.263 203.824 212.151 203.792 211.574C203.327 211.03 202.927 210.214 202.431 209.398C201.983 208.662 201.119 207.878 200.991 207.045C200.847 206.021 201.311 205.125 200.991 204.149C200.447 202.5 198.558 203.253 198.798 205.413C198.862 206.005 199.567 206.821 199.775 207.413C199.999 208.022 199.951 208.774 200.159 209.494C200.351 210.198 200.943 210.79 201.135 211.574C201.455 212.823 201.439 214.151 201.743 214.935C201.999 215.623 202.959 216.279 202.415 217.112C201.695 217.288 201.423 216.439 200.975 215.927C200.735 215.655 199.823 215.127 199.695 214.471C199.583 213.943 199.983 213.223 199.839 212.567C199.583 211.286 197.438 211.254 197.422 209.942C197.422 209.11 198.318 209.014 198.334 208.214C198.334 207.333 197.342 206.597 197.134 205.861C196.942 205.189 196.91 204.101 196.83 203.14C196.766 202.244 196.846 201.204 196.67 200.516C196.51 199.892 195.742 199.044 195.23 198.707C194.573 198.259 194.045 198.451 193.725 197.795C193.437 197.235 193.261 196.051 193.197 195.443C193.085 194.354 193.165 193.154 193.117 192.002C193.069 190.834 192.973 189.713 193.117 188.465C193.485 187.585 194.173 187.153 194.557 186.289C194.83 185.681 194.862 184.944 195.166 184.288C195.726 183.104 196.926 182.016 197.726 180.847C198.606 179.583 199.407 178.383 199.919 176.943C200.095 176.43 200.591 175.294 200.527 174.67C200.431 173.806 199.054 173.086 199.166 172.045C199.23 171.405 199.999 171.405 200.223 170.781C200.335 170.461 200.447 169.549 200.447 169.149C200.463 168.269 200.079 167.356 200.223 166.428C200.351 165.628 201.327 165.308 200.831 164.428C200.335 163.564 199.423 164.892 198.862 164.332C198.35 163.82 198.958 163.196 199.006 162.251C199.022 161.867 198.83 161.451 198.862 161.163C198.91 160.763 199.567 160.075 199.391 159.803C198.99 159.179 198.526 157.61 197.662 157.082C196.558 156.41 195.358 156.858 193.821 156.538C192.877 156.346 192.429 155.274 191.565 155.354C191.021 155.402 190.717 156.138 189.98 156.538C189.244 156.922 188.3 156.794 187.564 156.986C186.844 157.178 186.492 157.786 185.755 157.706C185.131 157.642 185.131 156.97 184.395 156.89C184.107 156.858 183.563 157.098 183.115 157.162C181.947 157.306 179.85 157.386 178.666 157.066C177.594 156.778 176.921 156.378 175.721 155.706C174.825 155.21 173.161 154.586 173.225 153.801C173.273 153.289 174.809 152.761 175.417 152.537C176.393 152.185 177.001 151.593 177.754 151.545C178.042 151.529 178.426 151.753 178.81 151.721C179.194 151.689 179.674 151.257 180.17 151.177C181.226 151.001 182.715 151.241 182.587 149.993C181.787 149.224 178.522 150.553 178.442 148.904C178.394 147.912 179.674 147.608 180.634 147.368C181.499 147.144 182.811 146.776 183.579 146.824C184.443 146.872 185.579 148.04 186.076 146.728C186.316 145.8 185.787 145.031 185.627 144.279C186.268 143.223 187.452 143.351 188.348 143.191C189.372 143.015 190.204 142.791 191.213 142.279C192.093 141.831 193.037 141.543 194.077 141.367C195.102 141.207 196.094 140.742 197.022 140.646C197.774 140.566 198.478 140.63 199.214 140.47C199.855 140.326 200.543 139.894 201.247 139.926C201.727 139.958 202.127 140.374 202.607 140.47C203.055 140.566 203.567 140.438 204.048 140.566C204.416 140.662 204.736 140.951 205.104 141.015C205.68 141.111 206.288 140.918 206.832 141.015C207.344 141.095 207.776 141.479 208.273 141.559C209.441 141.735 210.769 141.479 211.889 141.735C212.321 141.831 212.706 142.087 213.17 142.183C213.618 142.279 214.098 142.167 214.53 142.279C215.122 142.423 215.634 143.111 216.258 143.191C217.427 143.335 218.739 142.583 219.955 142.471C220.835 142.391 221.748 142.519 222.676 142.295C223.524 142.087 224.34 141.703 225.092 141.655C225.508 141.639 225.844 141.799 226.229 141.751C226.613 141.687 227.093 141.127 227.509 141.207C228.069 141.319 227.973 142.167 228.565 142.391C229.221 141.975 229.877 142.423 230.598 142.391C231.302 142.359 231.926 141.975 232.71 142.119C234.086 142.375 236.007 143.991 237.079 143.111C237.351 142.887 237.287 142.503 237.527 141.927C237.863 141.143 238.519 140.23 238.359 139.11C236.839 139.142 235.399 140.022 233.686 140.102C231.942 138.79 234.15 137.974 235.415 137.382C236.455 136.886 237.287 135.797 238.583 135.573C239.64 135.397 240.792 135.845 242.056 136.021C242.792 136.117 243.512 135.957 243.945 136.117C244.681 136.389 245.065 137.27 245.673 137.478C245.945 137.574 246.377 137.558 246.729 137.654C247.401 137.846 248.009 138.278 248.698 137.654C249.226 137.766 249.29 138.454 249.834 138.566C250.33 138.246 250.714 137.414 251.498 137.206C251.834 137.11 252.186 137.27 252.554 137.206C253.163 137.094 253.995 136.085 254.363 137.03C254.203 137.686 253.387 137.782 252.923 138.294C252.522 138.758 251.898 139.814 251.946 140.294C252.042 141.159 253.115 140.822 253.147 141.927C252.987 142.567 252.378 142.279 251.866 142.567C251.402 142.823 251.226 143.367 250.73 143.479C249.354 143.783 248.218 143.063 247.033 143.111C246.985 143.735 247.625 144.087 247.945 144.295C249.018 144.967 249.898 144.887 251.418 144.839C252.202 144.823 253.083 145.111 253.755 144.567C254.171 144.215 254.155 143.447 254.507 143.031C254.939 142.519 255.915 142.007 256.539 142.119C256.875 142.183 257.372 142.679 257.372 143.031C257.388 143.847 256.395 143.591 256.395 144.487C257.036 144.951 258.716 143.991 258.812 143.223C258.876 142.663 258.268 142.343 258.284 141.767C258.316 140.822 259.388 140.838 259.26 139.862C258.748 139.366 258.204 139.974 257.676 139.862C256.939 139.718 256.267 138.646 255.947 137.958C256.267 137.478 256.955 137.798 257.452 137.862C258.012 136.934 259.036 136.582 260.476 136.405C260.988 136.341 261.661 136.101 261.917 136.678C262.045 137.542 260.86 138.054 261.084 139.03C262.093 139.334 262.429 137.686 263.277 137.03C263.645 136.742 264.173 136.55 264.717 136.309C265.181 136.101 265.693 135.573 266.078 135.589C266.494 135.605 266.574 136.021 266.99 136.229C267.358 136.421 267.854 136.101 267.966 136.678C267.086 138.502 263.837 137.446 262.989 139.302C263.181 140.55 262.477 141.735 263.069 142.567C263.485 143.159 264.429 142.759 264.653 143.383C264.941 144.215 263.741 144.215 264.045 145.191C264.845 145.768 265.789 144.647 266.526 144.199C267.326 143.719 268.318 143.143 268.414 142.023C268.014 141.111 266.526 141.815 266.302 140.838C266.174 140.31 266.75 139.126 266.91 138.934C267.694 137.878 270.447 136.373 272.415 136.582C272.783 136.63 273.167 136.902 273.551 136.95C274.848 137.11 276.384 136.277 277.392 136.95C278.208 136.373 279.2 137.03 280.337 136.854C281.217 137.478 280.977 138.806 282.305 139.398C282.657 139.558 283.121 139.446 283.585 139.574C283.938 139.67 284.322 140.166 284.722 140.39C285.298 140.694 285.73 140.63 285.858 141.111C285.986 141.591 285.442 141.895 285.474 142.375C285.794 142.695 285.522 143.175 285.698 143.639C286.018 144.471 286.85 144.423 287.65 144.823C288.227 145.111 289.443 145.96 289.379 146.632C289.347 147.08 288.227 147.864 287.874 148.088C287.618 148.232 286.338 148.984 285.906 148.904C285.202 148.776 284.914 147.048 283.938 147.096C283.521 147.112 283.121 147.416 283.105 148.088C283.089 149.272 284.21 149.32 284.242 150.361C284.274 151.593 283.681 151.673 282.817 152.441C282.193 152.137 281.665 151.705 280.849 151.625C280.369 152.313 281.649 152.553 281.233 153.433C280.017 153.737 279.104 153.017 277.984 152.617C277.632 152.489 277.136 152.537 276.848 152.345C276.416 152.041 276.288 151.161 275.936 150.713C275.536 150.185 274.719 149.432 274.047 149.448C273.119 149.448 271.759 150.841 271.023 149.544C271.535 147.464 273.951 149.016 275.552 148.28C276.144 148.008 276.352 147.256 276.832 146.92C277.808 146.248 279.393 146.152 279.249 144.839C279.168 144.167 278.4 144.183 277.968 143.847C277.376 143.383 276.928 141.751 276.08 141.671C275.648 141.623 275.328 142.071 274.88 142.119C273.903 142.231 272.815 141.655 271.935 142.119C271.519 142.407 271.807 142.855 271.487 143.383C271.231 143.815 270.607 143.943 270.351 144.375C270.062 144.887 270.126 145.528 269.742 145.912C269.118 146.568 267.806 146.68 267.022 147C266.67 147.144 266.222 147.64 265.885 147.64C265.261 147.64 264.989 146.632 264.301 147C264.237 147.976 265.149 148.36 265.741 148.808C266.366 149.288 267.022 149.784 267.246 150.617C266.638 152.185 265.645 150.537 264.685 150.521C263.613 150.505 262.045 152.969 261.132 150.969C261.356 149.913 262.333 149.752 262.573 148.696C261.501 148.92 260.588 149.993 259.324 150.329C258.796 150.473 258.284 150.441 257.82 150.601C256.923 150.921 256.283 151.721 255.339 152.137C254.971 152.297 254.523 152.249 254.139 152.409C253.227 152.777 252.138 153.433 251.194 154.041C250.234 154.666 249.146 155.322 248.554 155.946C248.234 156.282 247.401 157.466 247.417 157.85C247.449 158.394 248.298 158.57 248.33 159.115C248.314 159.451 247.833 160.171 248.186 160.651C248.49 161.099 249.114 160.731 249.77 160.827C250.922 161.003 251.674 162.139 252.554 162.731C253.227 163.18 254.219 163.708 254.971 163.82C256.011 163.98 257.164 163.452 257.308 164.46C257.452 165.42 256.331 165.756 256.251 166.364C256.811 167.244 255.867 167.677 255.867 168.445C255.867 169.069 256.507 170.013 257.068 170.077C257.836 170.157 258.94 169.181 259.26 168.269C259.628 167.18 259.468 165.708 260.172 164.908C263.693 165.02 266.654 162.987 266.43 158.65C266.414 158.218 266.206 157.674 266.286 157.194C266.398 156.49 267.39 155.898 267.262 155.018C268.254 154.65 268.206 152.761 269.23 152.473C270.078 152.249 271.055 153.193 272.175 153.113C272.543 153.081 273.007 152.697 273.375 152.745C274.111 152.873 274.559 153.961 275.104 154.474C275.6 154.922 276.112 154.778 276.24 155.386C276.096 156.394 275.504 156.426 275.552 157.386C275.6 158.218 276.32 158.843 276.688 158.923C277.232 159.051 278.032 158.698 278.576 158.378C279.585 157.802 280.449 156.074 281.297 156.298C281.969 156.474 282.481 159.003 282.577 159.931C282.689 160.907 282.465 161.659 282.497 162.555C282.593 164.092 284.194 163.932 284.978 164.732C285.218 164.972 285.314 165.596 285.506 165.916C285.89 166.524 286.354 166.524 286.418 167.18C286.562 168.749 285.234 168.877 285.362 170.621C285.09 171.293 284.402 171.261 284.45 172.158C284.53 173.582 286.242 172.494 286.706 173.614C286.962 174.206 286.658 174.654 286.482 175.518C287.074 176.35 287.058 177.695 286.034 177.695C285.426 177.759 285.266 176.943 284.626 176.767ZM203.087 174.414C203.439 173.982 202.943 173.038 202.415 173.422C202.351 173.742 202.495 174.542 203.087 174.414ZM255.739 182.656C255.419 182.288 254.395 182.4 253.707 182.48C253.211 182.544 252.635 182.672 252.571 183.12C253.355 183.536 255.483 183.856 255.739 182.656ZM251.818 181.12C252.41 180.559 252.154 179.407 251.514 179.215C251.274 179.135 250.938 179.439 250.538 179.391C250.106 179.359 249.69 178.879 249.338 178.847C248.73 178.783 248.121 179.135 247.897 179.487C247.881 180.031 248.234 180.111 248.202 180.671C247.465 181.296 247.849 183.408 248.586 183.488C249.354 183.568 249.754 181.168 250.778 180.943C251.13 180.847 251.322 181.184 251.818 181.12ZM250.762 184.736C249.69 184.272 248.698 185.04 247.817 185.184C247.289 185.264 246.345 185.056 246.457 186.001C246.553 186.769 247.545 186.497 248.121 186.273C249.306 185.825 250.058 185.44 250.762 184.736ZM247.433 177.855C248.938 177.087 247.129 174.718 246.457 174.494C245.241 174.11 243.496 175.566 242.088 176.03C241.288 176.286 240.536 176.318 240.36 177.119C241.08 178.543 242.488 176.815 243.528 177.023C244.057 177.135 244.361 177.999 244.889 178.111C245.225 178.191 247.289 177.919 247.433 177.855ZM246.377 179.295C246.073 178.847 244.377 179.343 243.881 179.743C243.544 180.015 243.32 180.703 242.968 181.2C242.616 181.712 242.216 182.112 241.912 182.56C241.64 182.96 240.12 185.617 241.304 185.921C241.816 186.049 242.856 184.768 242.968 184.288C243.304 182.624 243.929 181.44 245.001 180.655C245.641 180.207 246.281 180.271 246.377 179.295ZM236.951 169.149C237.799 169.117 238.359 166.124 236.951 166.524C236.007 166.78 235.783 169.197 236.951 169.149ZM232.886 237.132C232.918 237.004 232.998 236.908 233.03 236.764C232.806 235.868 232.07 237.084 232.886 237.132ZM200.975 161.259C200.991 161.083 200.895 161.051 200.895 160.891C200.671 160.891 200.399 160.843 200.447 161.163C200.559 161.435 200.847 161.483 200.975 161.259ZM280.257 147.032C280.625 147.08 280.833 146.952 280.785 146.488C280.449 146.2 279.953 146.584 280.257 147.032ZM271.583 138.15C271.487 138.022 271.231 138.022 271.135 138.15C271.135 138.262 271.135 138.39 271.135 138.518C271.439 138.598 271.503 138.374 271.583 138.15ZM242.904 145.127C243.16 144.935 243.544 144.663 243.352 144.215C242.52 143.751 241.112 144.103 239.88 143.943C239.175 142.759 238.023 142.583 237.911 144.487C239.336 145.864 241.464 143.863 242.904 145.127ZM229.413 154.474C229.845 154.298 230.438 154.394 230.55 153.833C230.197 153.497 229.829 153.033 229.413 153.017C228.869 153.001 228.597 153.577 228.053 153.929C227.413 154.33 226.533 154.426 226.469 155.114C227.637 155.37 228.693 154.762 229.413 154.474ZM229.029 147.944C229.509 147.848 230.005 148.104 230.309 147.576C229.941 145.576 227.653 146.808 226.309 146.936C226.021 147.496 225.652 147.96 225.556 148.744C226.597 149.08 227.861 148.184 229.029 147.944ZM251.658 240.573C252.25 240.461 252.074 238.812 251.354 239.213C250.81 239.517 251.098 240.685 251.658 240.573Z" fill="white"></path><path d="M200.895 160.907C200.879 161.067 200.991 161.099 200.975 161.275C200.847 161.483 200.559 161.451 200.447 161.179C200.399 160.843 200.671 160.907 200.895 160.907Z" fill="white"></path><path d="M198.638 166.252C198.478 166.844 198.046 167.1 197.582 167.34C197.438 167.212 197.31 167.052 197.198 166.892C197.23 166.028 198.254 165.388 198.638 166.252Z" fill="white"></path></g><path d="M211.425 293.977C202.703 291.689 195.614 288.632 190.156 284.807L200.799 260.914C205.92 264.29 211.873 267.027 218.643 269.091C225.396 271.172 232.054 272.196 238.599 272.196C251.034 272.196 257.26 269.091 257.26 262.866C257.26 259.585 255.483 257.169 251.946 255.584C248.394 254 242.696 252.336 234.854 250.591C226.229 248.735 219.043 246.75 213.25 244.622C207.472 242.493 202.495 239.085 198.366 234.396C194.221 229.707 192.157 223.385 192.157 215.415C192.157 208.438 194.061 202.132 197.886 196.515C201.711 190.898 207.408 186.449 214.978 183.184C222.564 179.919 231.862 178.271 242.872 178.271C250.394 178.271 257.82 179.119 265.133 180.799C272.447 182.496 278.88 184.976 284.434 188.241L274.447 212.295C263.533 206.405 252.955 203.461 242.696 203.461C236.263 203.461 231.574 204.421 228.629 206.325C225.684 208.23 224.212 210.71 224.212 213.767C224.212 216.824 225.957 219.112 229.445 220.648C232.934 222.169 238.551 223.753 246.297 225.402C255.019 227.258 262.253 229.242 267.982 231.371C273.711 233.499 278.672 236.876 282.865 241.517C287.058 246.158 289.171 252.448 289.171 260.417C289.171 267.283 287.266 273.508 283.441 279.078C279.617 284.647 273.887 289.08 266.254 292.409C258.62 295.737 249.338 297.402 238.439 297.402C229.141 297.418 220.147 296.266 211.425 293.977Z" fill="url(#paint1_linear_157_520)"></path><path d="M395.995 270.084V295.113H304.038V180.575H393.866V205.605H336.109V224.905H387.001V249.119H336.109V270.068H395.995V270.084Z" fill="url(#paint2_linear_157_520)"></path><path d="M516.368 205.909C511.263 196.851 504.237 189.761 495.291 184.64C486.345 179.519 476.263 176.943 465.044 176.943C453.826 176.943 443.744 179.503 434.798 184.64C425.852 189.761 418.826 196.851 413.721 205.909C408.616 214.967 406.071 225.161 406.071 236.508C406.071 247.855 408.616 258.049 413.721 267.107C418.826 276.165 425.852 283.255 434.798 288.376C443.744 293.513 453.826 296.073 465.044 296.073C476.263 296.073 486.345 293.513 495.291 288.376C504.237 283.255 511.263 276.165 516.368 267.107C521.473 258.049 524.018 247.855 524.018 236.508C524.018 225.161 521.473 214.967 516.368 205.909Z" fill="#6083FF"></path><path opacity="0.3" d="M427.858 189.329C422.145 193.826 417.424 199.348 413.727 205.893C412.127 208.726 410.814 211.686 409.71 214.759L407.774 221.305C406.653 226.122 406.061 231.179 406.061 236.492C406.061 247.839 408.606 258.033 413.711 267.091C418.816 276.149 425.842 283.239 434.788 288.36L465.034 236.492L427.858 189.329Z" fill="black"></path><path opacity="0.2" d="M427.858 189.329L465.05 236.492L467.419 176.927C467.419 176.943 446.342 174.574 427.858 189.329Z" fill="white"></path><path d="M235.975 361.865V394.4" stroke="#6083FF" stroke-miterlimit="10"></path><path d="M74.8184 99.2452V135.573H115.788" stroke="#6083FF" stroke-miterlimit="10"></path><path d="M596.632 104.046H634.64V130.66" stroke="#6083FF" stroke-miterlimit="10"></path><path d="M172.984 106.975H6.70715C3.09034 106.975 0.161682 104.046 0.161682 100.429V7.06436C0.161682 3.44754 3.09034 0.518887 6.70715 0.518887H172.968C176.585 0.518887 179.514 3.44754 179.514 7.06436V100.413C179.53 104.03 176.601 106.975 172.984 106.975Z" fill="#6083FF"></path><path opacity="0.5" d="M172.984 106.975H6.70715C3.09034 106.975 0.161682 104.046 0.161682 100.429V7.06436C0.161682 3.44754 3.09034 0.518887 6.70715 0.518887H172.968C176.585 0.518887 179.514 3.44754 179.514 7.06436V100.413C179.53 104.03 176.601 106.975 172.984 106.975Z" fill="white"></path><path d="M27.1277 59.6522C27.9119 58.948 48.9086 38.2234 48.9086 38.2234L69.6173 48.4177L89.8618 24.6043L110.57 54.435L130.767 41.2641" stroke="#263238" stroke-width="0.5" stroke-miterlimit="10"></path><path d="M33.6253 68.9823H23.9111V90.4912H33.6253V68.9823Z" fill="#6083FF"></path><path d="M53.6137 54.7711H43.8995V90.4912H53.6137V54.7711Z" fill="#6083FF"></path><path d="M73.9703 58.3559H64.2561V90.4911H73.9703V58.3559Z" fill="#6083FF"></path><path d="M94.711 38.2234H84.9968V90.4912H94.711V38.2234Z" fill="#6083FF"></path><path d="M115.66 65.9416H105.945V90.4911H115.66V65.9416Z" fill="#6083FF"></path><path d="M33.9773 57.2036C33.9773 60.0843 31.6408 62.4208 28.7601 62.4208C25.8795 62.4208 23.543 60.0843 23.543 57.2036C23.543 54.323 25.8795 51.9865 28.7601 51.9865C31.6408 52.0025 33.9773 54.323 33.9773 57.2036Z" fill="#6083FF"></path><path d="M53.9658 38.2234C53.9658 41.104 51.6293 43.4405 48.7487 43.4405C45.868 43.4405 43.5315 41.104 43.5315 38.2234C43.5315 35.3427 45.868 33.0062 48.7487 33.0062C51.6293 33.0062 53.9658 35.3427 53.9658 38.2234Z" fill="#6083FF"></path><path d="M74.8185 46.7853C74.8185 49.6659 72.482 52.0025 69.6013 52.0025C66.7207 52.0025 64.3842 49.6659 64.3842 46.7853C64.3842 43.9046 66.7207 41.5681 69.6013 41.5681C72.482 41.5681 74.8185 43.9046 74.8185 46.7853Z" fill="#6083FF"></path><path d="M95.0631 24.5883C95.0631 27.4689 92.7265 29.8055 89.8459 29.8055C86.9653 29.8055 84.6287 27.4689 84.6287 24.5883C84.6287 21.7076 86.9653 19.3711 89.8459 19.3711C92.7265 19.3871 95.0631 21.7076 95.0631 24.5883Z" fill="#6083FF"></path><path d="M115.772 54.435C115.772 57.3157 113.435 59.6522 110.554 59.6522C107.674 59.6522 105.337 57.3157 105.337 54.435C105.337 51.5544 107.674 49.2179 110.554 49.2179C113.435 49.2179 115.772 51.5544 115.772 54.435Z" fill="#6083FF"></path><path d="M136.4 53.6189H126.686V90.4911H136.4V53.6189Z" fill="#6083FF"></path><path opacity="0.3" d="M53.6137 54.7711H43.8995V90.4912H53.6137V54.7711Z" fill="black"></path><path opacity="0.3" d="M94.711 38.2234H84.9968V90.4912H94.711V38.2234Z" fill="black"></path><path opacity="0.3" d="M136.4 53.6189H126.686V90.4911H136.4V53.6189Z" fill="black"></path><path d="M157.877 65.9416H148.163V90.4911H157.877V65.9416Z" fill="#6083FF"></path><path d="M130.751 41.248L153.028 53.6188" stroke="#263238" stroke-width="0.5" stroke-miterlimit="10"></path><path d="M137.12 41.248C137.12 44.1287 134.784 46.4652 131.903 46.4652C129.023 46.4652 126.686 44.1287 126.686 41.248C126.686 38.3674 129.023 36.0309 131.903 36.0309C134.784 36.0309 137.12 38.3674 137.12 41.248Z" fill="#6083FF"></path><path d="M153.028 58.836C155.909 58.836 158.245 56.5002 158.245 53.6188C158.245 50.7375 155.909 48.4017 153.028 48.4017C150.147 48.4017 147.811 50.7375 147.811 53.6188C147.811 56.5002 150.147 58.836 153.028 58.836Z" fill="#6083FF"></path><path d="M695.534 293.769H567.025C562.656 293.769 559.12 290.232 559.12 285.863V139.446C559.12 135.077 562.656 131.54 567.025 131.54H695.534C699.903 131.54 703.44 135.077 703.44 139.446V285.863C703.44 290.232 699.903 293.769 695.534 293.769Z" fill="#6083FF"></path><path opacity="0.5" d="M695.534 293.769H567.025C562.656 293.769 559.12 290.232 559.12 285.863V139.446C559.12 135.077 562.656 131.54 567.025 131.54H695.534C699.903 131.54 703.44 135.077 703.44 139.446V285.863C703.44 290.232 699.903 293.769 695.534 293.769Z" fill="white"></path><path d="M703.434 156.372H559.13V138.96C559.13 134.863 562.442 131.55 566.539 131.55H696.168C700.185 131.55 703.45 134.815 703.45 138.832V156.372H703.434Z" fill="url(#paint3_linear_157_520)"></path><path opacity="0.5" d="M698.015 145.784C698.015 148.776 695.582 151.209 692.589 151.209C689.597 151.209 687.164 148.776 687.164 145.784C687.164 142.791 689.597 140.358 692.589 140.358C695.582 140.358 698.015 142.791 698.015 145.784Z" fill="white"></path><path opacity="0.5" d="M682.619 145.784C682.619 148.776 680.187 151.209 677.194 151.209C674.201 151.209 671.769 148.776 671.769 145.784C671.769 142.791 674.201 140.358 677.194 140.358C680.187 140.374 682.619 142.791 682.619 145.784Z" fill="white"></path><path opacity="0.5" d="M667.224 145.784C667.224 148.776 664.791 151.209 661.799 151.209C658.806 151.209 656.373 148.776 656.373 145.784C656.373 142.791 658.806 140.358 661.799 140.358C664.791 140.374 667.224 142.791 667.224 145.784Z" fill="white"></path><path opacity="0.6" d="M684.044 177.135H597.224V182.192H684.044V177.135Z" fill="white"></path><path opacity="0.6" d="M660.694 188.065H598.568V193.122H660.694V188.065Z" fill="#263238"></path><path d="M591.191 177.135H574.115V182.192H591.191V177.135Z" fill="#6083FF"></path><path d="M684.044 200.212H597.224V205.269H684.044V200.212Z" fill="#6083FF"></path><path d="M591.191 200.212H574.115V205.269H591.191V200.212Z" fill="#6083FF"></path><path d="M684.044 248.303H597.224V253.36H684.044V248.303Z" fill="#6083FF"></path><path opacity="0.6" d="M614.3 263.282H597.224V268.339H614.3V263.282Z" fill="white"></path><path d="M684.044 212.375H597.224V217.432H684.044V212.375Z" fill="#6083FF"></path><path opacity="0.6" d="M591.191 212.375H574.115V217.432H591.191V212.375Z" fill="#263238"></path><path opacity="0.6" d="M659.35 222.985H597.224V228.042H659.35V222.985Z" fill="white"></path><path opacity="0.6" d="M628.287 233.964H597.224V239.021H628.287V233.964Z" fill="#263238"></path><path d="M321.162 497.047H212.049C207.68 497.047 204.143 493.51 204.143 489.141V399.905C204.143 395.536 207.68 391.999 212.049 391.999H321.162C325.531 391.999 329.067 395.536 329.067 399.905V489.141C329.067 493.51 325.531 497.047 321.162 497.047Z" fill="#6083FF"></path><path opacity="0.5" d="M321.162 497.047H212.049C207.68 497.047 204.143 493.51 204.143 489.141V399.905C204.143 395.536 207.68 391.999 212.049 391.999H321.162C325.531 391.999 329.067 395.536 329.067 399.905V489.141C329.067 493.51 325.531 497.047 321.162 497.047Z" fill="white"></path><path d="M329.061 410.323H204.153V399.409C204.153 395.312 207.466 391.999 211.563 391.999H321.796C325.813 391.999 329.077 395.264 329.077 399.281V410.323H329.061Z" fill="url(#paint4_linear_157_520)"></path><path opacity="0.5" d="M322.01 402.513C322.01 404.722 320.218 406.514 318.009 406.514C315.801 406.514 314.008 404.722 314.008 402.513C314.008 400.305 315.801 398.513 318.009 398.513C320.218 398.513 322.01 400.305 322.01 402.513Z" fill="white"></path><path opacity="0.5" d="M310.647 402.513C310.647 404.722 308.855 406.514 306.647 406.514C304.438 406.514 302.646 404.722 302.646 402.513C302.646 400.305 304.438 398.513 306.647 398.513C308.855 398.513 310.647 400.305 310.647 402.513Z" fill="white"></path><path opacity="0.5" d="M299.285 402.513C299.285 404.722 297.492 406.514 295.284 406.514C293.075 406.514 291.283 404.722 291.283 402.513C291.283 400.305 293.075 398.513 295.284 398.513C297.492 398.513 299.285 400.305 299.285 402.513Z" fill="white"></path><path d="M264.653 453.405L275.488 423.638C279.521 425.111 283.217 427.383 286.354 430.328C289.491 433.272 291.987 436.809 293.7 440.746L264.653 453.405Z" fill="#F5F5F5"></path><path d="M264.653 453.405L273.887 483.7C270.895 484.612 267.79 485.076 264.653 485.076C247.273 485.076 232.982 470.785 232.982 453.405C232.982 436.025 247.273 421.734 264.653 421.734C268.302 421.734 271.919 422.358 275.344 423.59L264.653 453.405Z" fill="#6083FF"></path><path d="M264.653 453.405L293.748 440.89C295.444 444.843 296.324 449.1 296.324 453.405C296.324 467.264 287.234 479.571 273.999 483.668L264.653 453.405Z" fill="#6083FF"></path><path opacity="0.3" d="M264.653 453.405L293.748 440.89C295.444 444.843 296.324 449.1 296.324 453.405C296.324 467.264 287.234 479.571 273.999 483.668L264.653 453.405Z" fill="black"></path><defs><linearGradient id="paint0_linear_157_520" x1="599.033" y1="53.7469" x2="115.148" y2="53.7468" gradientUnits="userSpaceOnUse"><stop stop-color="#6083FF"></stop><stop offset="1" stop-color="#5F5DFF"></stop></linearGradient><linearGradient id="paint1_linear_157_520" x1="289.171" y1="237.836" x2="190.156" y2="237.836" gradientUnits="userSpaceOnUse"><stop stop-color="#6083FF"></stop><stop offset="1" stop-color="#5F5DFF"></stop></linearGradient><linearGradient id="paint2_linear_157_520" x1="395.995" y1="237.844" x2="304.038" y2="237.844" gradientUnits="userSpaceOnUse"><stop stop-color="#6083FF"></stop><stop offset="1" stop-color="#5F5DFF"></stop></linearGradient><linearGradient id="paint3_linear_157_520" x1="703.45" y1="143.961" x2="559.13" y2="143.961" gradientUnits="userSpaceOnUse"><stop stop-color="#6083FF"></stop><stop offset="1" stop-color="#5F5DFF"></stop></linearGradient><linearGradient id="paint4_linear_157_520" x1="329.077" y1="401.161" x2="204.153" y2="401.161" gradientUnits="userSpaceOnUse"><stop stop-color="#6083FF"></stop><stop offset="1" stop-color="#5F5DFF"></stop></linearGradient></defs></svg>