<svg width="148" height="38" viewBox="0 0 148 38" fill="none" xmlns="http://www.w3.org/2000/svg">
<path d="M36.8015 10.1935H40.1149V26.1176H36.8015V10.1935Z" fill="#263238"/>
<path d="M41.9704 20.6626C41.9704 19.5169 42.3113 18.3971 42.95 17.4449C43.5885 16.4928 44.4961 15.7513 45.5576 15.3143C46.6192 14.8775 47.7867 14.7648 48.9123 14.9907C50.0381 15.2167 51.0711 15.7709 51.8807 16.5833C52.6903 17.3959 53.24 18.4298 53.46 19.5543C53.68 20.6788 53.5604 21.843 53.1164 22.8997C52.6725 23.9562 51.9241 24.8575 50.9662 25.4892C50.0084 26.1209 48.8839 26.4547 47.7357 26.4481C46.9743 26.4541 46.2191 26.3082 45.5148 26.0191C44.8105 25.73 44.171 25.3036 43.634 24.7648C43.0969 24.2259 42.6733 23.5854 42.3876 22.881C42.102 22.1766 41.9602 21.4224 41.9704 20.6626ZM50.2761 20.6626C50.263 20.1687 50.1043 19.6895 49.8198 19.2852C49.5353 18.8807 49.1377 18.569 48.6765 18.3889C48.2153 18.2088 47.7113 18.1684 47.2273 18.2728C46.7432 18.377 46.3007 18.6213 45.9551 18.9753C45.6096 19.3291 45.3761 19.7768 45.2843 20.2624C45.1924 20.7478 45.2459 21.2496 45.4383 21.7049C45.6307 22.1601 45.9533 22.5488 46.366 22.822C46.7785 23.0952 47.2626 23.2411 47.7578 23.2413C48.095 23.2479 48.4299 23.185 48.7416 23.0565C49.0533 22.9281 49.335 22.7369 49.5693 22.4949C49.8036 22.2529 49.9852 21.9652 50.1031 21.65C50.2209 21.3347 50.2723 20.9986 50.254 20.6626H50.2761Z" fill="#263238"/>
<path d="M66.6113 15.2076V25.5775C66.6113 29.2362 63.7397 30.79 60.8349 30.79C59.8103 30.8739 58.7826 30.6708 57.8675 30.2035C56.9524 29.7363 56.186 29.0234 55.6549 28.1452L58.4492 26.5363C58.6756 26.9918 59.0359 27.3677 59.4819 27.6137C59.9278 27.8598 60.4383 27.9645 60.9454 27.9138C61.2684 27.9535 61.5963 27.9215 61.9054 27.8201C62.2146 27.7186 62.4975 27.5503 62.7338 27.3271C62.9703 27.1038 63.1543 26.8313 63.2728 26.5288C63.3914 26.2264 63.4414 25.9015 63.4194 25.5775V24.5747C63.0339 25.0411 62.5445 25.4114 61.9905 25.6563C61.4364 25.9012 60.8329 26.0138 60.2275 25.9853C58.7628 25.9853 57.3582 25.4048 56.3226 24.3714C55.2869 23.3381 54.7051 21.9366 54.7051 20.4753C54.7051 19.0138 55.2869 17.6124 56.3226 16.5791C57.3582 15.5457 58.7628 14.9652 60.2275 14.9652C60.8329 14.9366 61.4364 15.0493 61.9905 15.2941C62.5445 15.539 63.0339 15.9093 63.4194 16.3757V15.2737L66.6113 15.2076ZM63.4194 20.4422C63.4414 19.9149 63.3048 19.3932 63.0273 18.944C62.7497 18.4948 62.344 18.1387 61.8618 17.9215C61.3799 17.7043 60.8439 17.636 60.3225 17.7253C59.8014 17.8145 59.3187 18.0573 58.9369 18.4224C58.5551 18.7875 58.2914 19.2583 58.1799 19.7741C58.0684 20.29 58.114 20.8272 58.3109 21.317C58.5079 21.8067 58.8472 22.2264 59.2851 22.5222C59.7232 22.818 60.2398 22.9764 60.7687 22.9768C61.1138 23.0016 61.4603 22.9539 61.7857 22.8368C62.1112 22.7197 62.4085 22.5357 62.6582 22.2969C62.9081 22.058 63.1049 21.7695 63.236 21.4501C63.367 21.1306 63.4296 20.7872 63.4194 20.4422Z" fill="#263238"/>
<path d="M68.478 20.6627C68.478 19.5179 68.8184 18.3989 69.456 17.4472C70.0936 16.4956 70.9999 15.7541 72.0601 15.3165C73.1202 14.8789 74.2867 14.765 75.4118 14.9891C76.537 15.2133 77.5701 15.7654 78.3806 16.5755C79.1911 17.3859 79.7425 18.4178 79.9649 19.5408C80.1874 20.6638 80.0711 21.8274 79.6305 22.8844C79.1899 23.9414 78.445 24.8442 77.49 25.4786C76.5349 26.113 75.4128 26.4504 74.2655 26.4483C73.5025 26.4557 72.7456 26.3109 72.0394 26.0226C71.3332 25.7344 70.6917 25.3083 70.1527 24.7695C69.6137 24.2306 69.1878 23.5897 68.9003 22.8846C68.6128 22.1794 68.4692 21.424 68.478 20.6627ZM76.7837 20.6627C76.7707 20.1684 76.6116 19.6888 76.3267 19.2841C76.0417 18.8796 75.6433 18.5677 75.1816 18.3881C74.7198 18.2083 74.2151 18.1685 73.7308 18.2738C73.2465 18.3789 72.804 18.6244 72.4589 18.9794C72.1137 19.3343 71.8813 19.7831 71.7907 20.2693C71.7 20.7555 71.7551 21.2576 71.9492 21.7126C72.1433 22.1677 72.4676 22.5555 72.8817 22.8275C73.2956 23.0993 73.7808 23.2434 74.2765 23.2414C74.6137 23.248 74.9486 23.1851 75.2602 23.0566C75.572 22.9282 75.8537 22.737 76.0879 22.495C76.3222 22.253 76.5039 21.9653 76.6218 21.6501C76.7396 21.3348 76.791 20.9987 76.7727 20.6627H76.7837Z" fill="#263238"/>
<path d="M81.5879 12.2874C81.5879 11.8994 81.7032 11.5201 81.9192 11.1975C82.1352 10.8749 82.4423 10.6235 82.8015 10.475C83.1607 10.3265 83.556 10.2878 83.9375 10.3635C84.3187 10.4391 84.669 10.6259 84.944 10.9003C85.219 11.1746 85.4062 11.5242 85.4821 11.9046C85.558 12.2851 85.519 12.6796 85.3701 13.038C85.2214 13.3964 84.9693 13.7027 84.6461 13.9183C84.3228 14.1339 83.9428 14.2489 83.5539 14.2489C83.0342 14.2432 82.5375 14.0347 82.1701 13.6681C81.8026 13.3013 81.5936 12.8058 81.5879 12.2874ZM81.9082 15.2076H85.2216V26.1176H81.9082V15.2076Z" fill="#263238"/>
<path d="M99.4036 20.6625C99.4401 21.388 99.3333 22.1138 99.0888 22.798C98.8434 23.4821 98.465 24.1111 97.9751 24.6488C97.4861 25.1866 96.8941 25.6223 96.2356 25.9311C95.5762 26.2399 94.8624 26.4155 94.1355 26.448C93.5177 26.4891 92.8991 26.3904 92.3255 26.1595C91.7517 25.9285 91.2377 25.5714 90.8216 25.1146V30.5034H87.5082V15.2075H90.8216V16.2324C91.2383 15.777 91.7527 15.4215 92.3264 15.1925C92.9003 14.9633 93.5185 14.8668 94.1355 14.91C94.8596 14.9425 95.5705 15.1171 96.2272 15.4238C96.8838 15.7306 97.4739 16.1634 97.9629 16.6976C98.4528 17.2317 98.8312 17.8567 99.0785 18.5372C99.3258 19.2174 99.4363 19.9396 99.4036 20.6625ZM96.0904 20.6625C96.0773 20.1506 95.9124 19.654 95.6183 19.2349C95.3232 18.8158 94.9111 18.4928 94.4334 18.3064C93.9557 18.1199 93.433 18.0785 92.9314 18.187C92.4299 18.2956 91.9718 18.5495 91.6143 18.9168C91.2568 19.2841 91.0159 19.7485 90.9219 20.2519C90.8278 20.7552 90.8846 21.275 91.0855 21.7462C91.2863 22.2173 91.6219 22.6189 92.0505 22.9005C92.479 23.1822 92.9813 23.3313 93.4944 23.3294C93.8461 23.3443 94.1964 23.2849 94.5233 23.155C94.8502 23.0252 95.1462 22.8279 95.3907 22.5762C95.6361 22.3244 95.8253 22.0236 95.9452 21.6939C96.0661 21.3641 96.1148 21.0126 96.0904 20.6625Z" fill="#263238"/>
<path d="M109.487 22.8447C109.487 25.3574 107.278 26.4262 104.937 26.4262C103.981 26.512 103.023 26.31 102.184 25.8464C101.345 25.3828 100.665 24.6788 100.232 23.8256L103.081 22.2166C103.194 22.6098 103.439 22.9525 103.774 23.1871C104.111 23.4218 104.516 23.5343 104.925 23.506C105.709 23.506 106.108 23.2635 106.108 22.8227C106.108 21.6215 100.728 22.2607 100.728 18.4808C100.728 16.1004 102.738 14.9103 105.013 14.9103C105.879 14.8716 106.738 15.0674 107.5 15.4768C108.263 15.8862 108.9 16.4939 109.344 17.2355L106.493 18.7343C106.368 18.4499 106.162 18.2081 105.901 18.038C105.641 17.8678 105.337 17.7767 105.025 17.7755C104.451 17.7755 104.109 17.9959 104.109 18.3816C104.109 19.6379 109.487 18.8114 109.487 22.8447Z" fill="#263238"/>
<path d="M121.493 15.2078V26.1177H118.179V25.0928C117.802 25.5465 117.325 25.9054 116.784 26.1409C116.243 26.3764 115.655 26.4817 115.064 26.4483C112.856 26.4483 110.967 24.8724 110.967 21.93V15.2078H114.28V21.4341C114.254 21.6944 114.285 21.9573 114.371 22.2046C114.457 22.4518 114.595 22.6774 114.777 22.8661C114.959 23.0546 115.18 23.2017 115.424 23.297C115.668 23.3922 115.93 23.4334 116.191 23.4178C117.384 23.4178 118.224 22.7125 118.224 21.2137V15.2078H121.493Z" fill="#263238"/>
<path d="M140.269 19.4175V26.1177H136.955V19.704C136.955 18.602 136.436 17.9188 135.387 17.9188C134.338 17.9188 133.675 18.6792 133.675 19.9685V26.1177H130.362V19.704C130.362 18.602 129.843 17.9188 128.794 17.9188C127.745 17.9188 127.081 18.6792 127.081 19.9685V26.1177H123.768V15.2078H127.081V16.2107C127.425 15.7676 127.872 15.4167 128.386 15.1898C128.899 14.9627 129.461 14.8666 130.02 14.9102C130.579 14.8811 131.138 14.9979 131.639 15.249C132.142 15.5002 132.569 15.8772 132.88 16.3428C133.245 15.8562 133.726 15.4696 134.281 15.2192C134.834 14.9686 135.443 14.8624 136.05 14.9102C138.635 14.9102 140.269 16.6955 140.269 19.4175Z" fill="#263238"/>
<path d="M143.052 15.1417C144.395 15.1417 145.482 14.0562 145.482 12.7172C145.482 11.3783 144.395 10.2928 143.052 10.2928C141.71 10.2928 140.622 11.3783 140.622 12.7172C140.622 14.0562 141.71 15.1417 143.052 15.1417Z" fill="#263238"/>
<path d="M17.064 7.32856V2.64502H2.26402V34.8237H17.064V30.1402C14.0322 30.1402 11.1245 28.9384 8.98084 26.7994C6.83704 24.6605 5.63267 21.7594 5.63267 18.7344C5.63267 15.7094 6.83704 12.8082 8.98084 10.6692C11.1245 8.53025 14.0322 7.32856 17.064 7.32856Z" fill="#263238"/>
<path d="M17.0638 7.32855V30.1402C20.0956 30.1402 23.0033 28.9384 25.1471 26.7994C27.2908 24.6604 28.4952 21.7594 28.4952 18.7344C28.4952 15.7094 27.2908 12.8082 25.1471 10.6692C23.0033 8.53024 20.0956 7.32855 17.0638 7.32855Z" fill="#263238"/>
</svg>
