<svg width="164" height="43" viewBox="0 0 164 43" fill="none" xmlns="http://www.w3.org/2000/svg">
<path d="M48.7639 11.3472H52.7317V27.4246H48.7639V11.3472ZM54.3055 21.3542C54.3055 17.3779 56.7391 15.0053 60.4952 15.0053C64.2514 15.0053 66.6849 17.3779 66.6849 21.3542C66.6849 25.3304 64.3042 27.7163 60.4952 27.7163C56.6862 27.7163 54.3055 25.3967 54.3055 21.3542ZM62.7039 21.3542C62.7039 19.1672 61.8442 17.8815 60.4952 17.8815C59.1462 17.8815 58.2998 19.207 58.2998 21.3542C58.2998 23.5014 59.133 24.8003 60.4952 24.8003C61.8574 24.8003 62.7039 23.5809 62.7039 21.3674V21.3542ZM68.1794 28.2067H71.9884C72.1697 28.6103 72.4762 28.9444 72.8623 29.1594C73.2484 29.3743 73.6933 29.4585 74.131 29.3995C75.6388 29.3995 76.4323 28.5777 76.4323 27.3849V25.1581H76.353C76.0368 25.8406 75.5238 26.4125 74.8803 26.7999C74.2367 27.1874 73.4919 27.3727 72.7423 27.3319C69.8458 27.3319 67.9281 25.1184 67.9281 21.3144C67.9281 17.5105 69.7533 15.1114 72.7952 15.1114C73.5684 15.081 74.3323 15.2882 74.9848 15.7051C75.6372 16.122 76.1469 16.7288 76.4455 17.4441V15.2307H80.4133V27.2921C80.4133 30.1948 77.8607 31.9974 74.0914 31.9974C70.5865 31.9974 68.4042 30.4201 68.1794 28.22V28.2067ZM76.4455 21.3409C76.4455 19.4058 75.5594 18.1864 74.1574 18.1864C72.7555 18.1864 71.8958 19.3925 71.8958 21.3409C71.8958 23.2893 72.7423 24.3894 74.1574 24.3894C75.5726 24.3894 76.4455 23.3158 76.4455 21.3542V21.3409ZM81.9077 21.3409C81.9077 17.3647 84.3414 14.9921 88.0974 14.9921C91.8536 14.9921 94.3 17.3647 94.3 21.3409C94.3 25.3172 91.9198 27.703 88.0974 27.703C84.2752 27.703 81.9077 25.3967 81.9077 21.3542V21.3409ZM90.3062 21.3409C90.3062 19.154 89.4465 17.8683 88.0974 17.8683C86.7484 17.8683 85.9681 19.207 85.9681 21.3674C85.9681 23.5279 86.8014 24.8136 88.1504 24.8136C89.4994 24.8136 90.3062 23.5809 90.3062 21.3674V21.3409ZM95.8081 12.3413C95.7977 11.9397 95.9061 11.5443 96.121 11.2049C96.3349 10.8654 96.645 10.5973 97.0107 10.4346C97.3774 10.2719 97.7836 10.2219 98.1785 10.2909C98.5734 10.3599 98.9391 10.5448 99.2285 10.8222C99.5188 11.0996 99.7196 11.4569 99.8063 11.849C99.893 12.2411 99.8619 12.65 99.7167 13.0244C99.5716 13.3985 99.318 13.7211 98.99 13.9511C98.6611 14.1811 98.2718 14.3082 97.8713 14.3161C97.6055 14.3344 97.3397 14.2975 97.089 14.2076C96.8383 14.1177 96.6083 13.9769 96.4151 13.7939C96.2209 13.611 96.0673 13.3898 95.9626 13.1443C95.858 12.899 95.8052 12.6346 95.8081 12.3678V12.3413ZM95.8081 15.2572H99.7761V27.4246H95.8081V15.2572ZM114.179 21.3409C114.179 25.3172 112.42 27.5837 109.404 27.5837C108.631 27.6334 107.861 27.444 107.199 27.041C106.537 26.638 106.014 26.0409 105.701 25.3304H105.622V31.3214H101.654V15.2307H105.622V17.4044H105.701C105.999 16.6822 106.512 16.0695 107.17 15.6498C107.828 15.23 108.598 15.0235 109.378 15.0584C112.42 15.1114 114.232 17.3911 114.232 21.3674L114.179 21.3409ZM110.211 21.3409C110.211 19.4058 109.325 18.1732 107.937 18.1732C106.547 18.1732 105.661 19.4191 105.648 21.3409C105.635 23.2628 106.547 24.4955 107.937 24.4955C109.325 24.4955 110.211 23.2893 110.211 21.3674V21.3409ZM120.99 14.9788C124.283 14.9788 126.28 16.5429 126.373 19.0479H122.763C122.763 18.1864 122.048 17.643 120.95 17.643C119.853 17.643 119.363 18.0671 119.363 18.69C119.363 19.3131 119.8 19.5118 120.686 19.6974L123.225 20.2143C125.646 20.7312 126.677 21.7121 126.677 23.5544C126.677 26.0727 124.389 27.6898 121.017 27.6898C117.644 27.6898 115.435 26.0727 115.263 23.5941H119.086C119.204 24.4955 119.919 25.0256 121.083 25.0256C122.247 25.0256 122.776 24.6413 122.776 24.0051C122.776 23.3689 122.405 23.2363 121.453 23.0375L119.165 22.5471C116.797 22.0567 115.554 20.7975 115.554 18.9419C115.58 16.5562 117.71 15.0053 120.99 15.0053V14.9788ZM139.917 27.3982H136.094V25.1317H136.014C135.804 25.8926 135.341 26.5587 134.702 27.0192C134.062 27.4797 133.283 27.7069 132.497 27.6632C131.894 27.6976 131.291 27.6018 130.728 27.3825C130.165 27.1632 129.656 26.8254 129.235 26.3919C128.814 25.9584 128.489 25.4393 128.286 24.8697C128.082 24.3003 128.003 23.6935 128.053 23.0905V15.2307H132.02V22.176C132.02 23.6207 132.761 24.3894 133.991 24.3894C134.279 24.39 134.565 24.3288 134.828 24.21C135.09 24.091 135.325 23.9171 135.516 23.7001C135.705 23.4828 135.848 23.2274 135.932 22.9509C136.014 22.6743 136.04 22.383 136.001 22.0964V15.2307H139.969L139.917 27.3982ZM141.834 15.2307H145.67V17.5767H145.749C145.959 16.8258 146.412 16.166 147.037 15.7008C147.661 15.2356 148.423 14.9909 149.2 15.0053C149.993 14.9419 150.778 15.1792 151.404 15.6705C152.028 16.1617 152.447 16.8705 152.573 17.6562H152.653C152.892 16.8622 153.389 16.1709 154.065 15.6909C154.74 15.211 155.556 14.9697 156.382 15.0053C156.922 14.9872 157.459 15.0831 157.958 15.2867C158.46 15.4901 158.911 15.797 159.285 16.1869C159.66 16.5769 159.948 17.0415 160.132 17.5503C160.315 18.0591 160.39 18.6012 160.35 19.1407V27.4246H156.382V20.201C156.382 18.8756 155.787 18.2659 154.677 18.2659C154.429 18.2638 154.183 18.315 153.956 18.416C153.73 18.517 153.529 18.6654 153.365 18.8514C153.201 19.0374 153.077 19.2563 153.004 19.4936C152.932 19.7312 152.912 19.9814 152.943 20.2276V27.4246H149.174V20.148C149.174 18.9286 148.579 18.2659 147.494 18.2659C147.245 18.2661 146.996 18.3193 146.769 18.4224C146.54 18.5255 146.334 18.6759 146.169 18.8637C146.002 19.0515 145.878 19.2726 145.803 19.5124C145.729 19.752 145.706 20.0048 145.736 20.2541V27.4246H141.768L141.834 15.2307Z" fill="#263238"/>
<path d="M37.6673 14.0761C36.9943 12.5338 36.1036 11.0964 35.0222 9.80824C33.4239 7.84701 31.4291 6.24728 29.1694 5.11432C26.9096 3.98136 24.436 3.34084 21.9114 3.23493C19.3869 3.12902 16.8685 3.5601 14.5222 4.49983C12.1759 5.43954 10.0547 6.8666 8.2984 8.68706C6.54204 10.5075 5.19029 12.68 4.33214 15.0618C3.47399 17.4435 3.12886 19.9804 3.3195 22.5053C3.51014 25.0304 4.2322 27.4863 5.43819 29.7114C6.64417 31.9366 8.30672 33.8807 10.3164 35.4155C11.6059 36.4201 13.0308 37.2367 14.5487 37.841C16.6766 38.715 18.9543 39.1652 21.2541 39.1665C26.0014 39.156 30.5509 37.2596 33.9053 33.893C37.2596 30.5264 39.1452 25.9644 39.1487 21.2069C39.1521 18.7528 38.6477 16.3248 37.6673 14.0761ZM21.2409 6.87897C23.3063 6.87877 25.3466 7.33113 27.219 8.20441C26.7625 8.40213 26.2823 8.54022 25.7906 8.61531C24.1726 8.85003 22.6737 9.60286 21.5176 10.7614C20.3616 11.92 19.6103 13.4221 19.376 15.0436C19.2733 15.9531 18.8605 16.7991 18.2076 17.439C17.5546 18.0789 16.7014 18.4734 15.7919 18.556C14.1739 18.7907 12.675 19.5436 11.5188 20.7022C10.3628 21.8607 9.61155 23.3628 9.37737 24.9844C9.29807 25.8491 8.92994 26.6617 8.33253 27.2906C7.30178 25.108 6.83875 22.6995 6.98651 20.2893C7.13427 17.8791 7.88802 15.5456 9.17762 13.5058C10.4673 11.4661 12.2508 9.78637 14.3623 8.62305C16.4738 7.45975 18.8447 6.85068 21.2541 6.85247L21.2409 6.87897ZM10.3032 30.485C10.4619 30.3392 10.6206 30.2065 10.7793 30.0475C11.956 28.9043 12.7112 27.3952 12.9219 25.7664C13.0073 24.8508 13.4152 23.9957 14.0725 23.3541C14.7052 22.6943 15.5564 22.2888 16.4664 22.2143C18.0844 21.9795 19.5833 21.2267 20.7394 20.0681C21.8954 18.9095 22.6467 17.4074 22.8809 15.7859C22.9381 14.8282 23.3481 13.9261 24.0316 13.2543C24.6798 12.6073 25.5391 12.2166 26.4519 12.1542C27.9384 11.9493 29.3246 11.287 30.4197 10.2589C31.6664 11.2955 32.7226 12.5424 33.5409 13.9436C33.4907 14.0115 33.433 14.0738 33.369 14.1291C32.7377 14.7947 31.8875 15.209 30.9751 15.2955C29.3554 15.5261 27.8542 16.2777 26.6973 17.4369C25.5407 18.5962 24.7907 20.1006 24.5606 21.7238C24.4673 22.6362 24.0622 23.4884 23.4139 24.1357C22.7655 24.7831 21.9137 25.186 21.0029 25.276C19.38 25.5089 17.8756 26.2603 16.7127 27.4183C15.5501 28.5764 14.7911 30.0795 14.5487 31.7043C14.4775 32.352 14.2555 32.9741 13.9006 33.5202C12.5437 32.7127 11.3283 31.6873 10.3032 30.485ZM21.2409 35.6011C19.8989 35.6025 18.5632 35.4151 17.2732 35.0445C17.7146 34.22 18.0014 33.3215 18.1197 32.3936C18.2123 31.4831 18.6156 30.6326 19.2612 29.9855C19.907 29.3384 20.7556 28.9343 21.6641 28.8414C23.2845 28.6093 24.7864 27.8577 25.9452 26.6988C27.1037 25.5402 27.857 24.0365 28.0919 22.4131C28.1845 21.5026 28.5879 20.652 29.2335 20.005C29.8792 19.3579 30.728 18.9538 31.6364 18.8609C32.8558 18.7019 34.0181 18.247 35.0222 17.5355C35.5798 19.6533 35.6458 21.8711 35.2153 24.0186C34.7848 26.166 33.869 28.1862 32.5386 29.924C31.208 31.6616 29.4981 33.071 27.5396 34.0436C25.5812 35.0162 23.4266 35.5264 21.2409 35.5348V35.6011Z" fill="#263238"/>
</svg>
