<svg width="169" height="38" viewBox="0 0 169 38" fill="none" xmlns="http://www.w3.org/2000/svg">
<g clip-path="url(#clip0_28_2294)">
<rect width="38" height="38" rx="19" fill="url(#paint0_linear_28_2294)"/>
<path d="M30.5849 27.7547H29.0943L28.566 27.2453C30.4151 25.0943 31.5283 22.3019 31.5283 19.2642C31.5283 12.4906 26.0377 7 19.2642 7C12.4906 7 7 12.4906 7 19.2642C7 26.0377 12.4906 31.5283 19.2642 31.5283C22.3019 31.5283 25.0943 30.4151 27.2453 28.566L27.7547 29.0943V30.5849L37.1887 40L40 37.1887L30.5849 27.7547ZM19.2642 27.7547C14.566 27.7547 10.7736 23.9623 10.7736 19.2642C10.7736 14.566 14.566 10.7736 19.2642 10.7736C23.9623 10.7736 27.7547 14.566 27.7547 19.2642C27.7547 23.9623 23.9623 27.7547 19.2642 27.7547Z" fill="white"/>
<circle cx="19.25" cy="19.25" r="9.25" fill="url(#paint1_linear_28_2294)"/>
<path d="M22.8808 14.6303C22.9947 14.5973 23.1147 14.5911 23.2314 14.6124C23.3481 14.6338 23.4582 14.6819 23.553 14.7531C23.6479 14.8243 23.7249 14.9166 23.7779 15.0227C23.8309 15.1288 23.8585 15.2458 23.8585 15.3644L23.8578 19.6082C23.8576 19.7502 23.8179 19.8892 23.7431 20.0099C23.6684 20.1305 23.5616 20.228 23.4346 20.2915C23.3076 20.3549 23.1655 20.3818 23.0242 20.3691C22.8828 20.3565 22.7478 20.3047 22.6341 20.2197L21.4142 19.3021L18.3086 23.439C18.1276 23.6797 17.8642 23.8453 17.5688 23.904C17.2734 23.9626 16.9667 23.9103 16.7075 23.757L16.596 23.6827L14.1167 21.8201L10.8343 26.1924C10.5222 26.6085 9.95387 26.7177 9.51403 26.4658L9.40704 26.3953C9.20872 26.2462 9.07154 26.03 9.0212 25.7871C8.97087 25.5442 9.01085 25.2913 9.13363 25.0757L9.20421 24.9688L12.9763 19.9448C13.1572 19.7037 13.4207 19.5379 13.7163 19.4792C14.012 19.4206 14.3189 19.4731 14.5781 19.6268L14.6888 19.7011L17.1674 21.563L19.7841 18.0785L18.5604 17.1594C18.4545 17.0795 18.3712 16.9735 18.3186 16.8517C18.266 16.7298 18.246 16.5965 18.2606 16.4646C18.2751 16.3327 18.3237 16.2069 18.4015 16.0995C18.4794 15.992 18.5838 15.9067 18.7046 15.8518L18.8063 15.8146L22.8815 14.6296L22.8808 14.6303Z" fill="white"/>
</g>
<path d="M41.36 32L50.12 17.84L41.24 4H47.12L53.4 13.76L59.16 4H64.92L56.16 18.08L65.12 32H59.24L52.88 22.12L47.12 32H41.36ZM76.6472 32.48C74.5939 32.48 72.7805 32.1333 71.2072 31.44C69.6339 30.72 68.3939 29.7067 67.4872 28.4C66.5805 27.0667 66.1139 25.4533 66.0872 23.56H71.4872C71.5405 24.8667 72.0072 25.9733 72.8872 26.88C73.7939 27.76 75.0339 28.2 76.6072 28.2C77.9672 28.2 79.0472 27.88 79.8472 27.24C80.6472 26.5733 81.0472 25.6933 81.0472 24.6C81.0472 23.4533 80.6872 22.56 79.9672 21.92C79.2739 21.28 78.3405 20.76 77.1672 20.36C75.9939 19.96 74.7405 19.5333 73.4072 19.08C71.2472 18.3333 69.5939 17.3733 68.4472 16.2C67.3272 15.0267 66.7672 13.4667 66.7672 11.52C66.7405 9.86667 67.1272 8.45333 67.9272 7.28C68.7539 6.08 69.8739 5.16 71.2872 4.52C72.7005 3.85333 74.3272 3.52 76.1672 3.52C78.0339 3.52 79.6739 3.85333 81.0872 4.52C82.5272 5.18666 83.6472 6.12 84.4472 7.32C85.2739 8.52 85.7139 9.94667 85.7672 11.6H80.2872C80.2605 10.6133 79.8739 9.74666 79.1272 9C78.4072 8.22667 77.3939 7.84 76.0872 7.84C74.9672 7.81333 74.0205 8.09333 73.2472 8.68C72.5005 9.24 72.1272 10.0667 72.1272 11.16C72.1272 12.0933 72.4205 12.84 73.0072 13.4C73.5939 13.9333 74.3939 14.3867 75.4072 14.76C76.4205 15.1333 77.5805 15.5333 78.8872 15.96C80.2739 16.44 81.5405 17 82.6872 17.64C83.8339 18.28 84.7539 19.1333 85.4472 20.2C86.1405 21.24 86.4872 22.5867 86.4872 24.24C86.4872 25.7067 86.1139 27.0667 85.3672 28.32C84.6205 29.5733 83.5139 30.5867 82.0472 31.36C80.5805 32.1067 78.7805 32.48 76.6472 32.48ZM99.6744 32C97.5944 32 95.9277 31.4933 94.6744 30.48C93.421 29.4667 92.7944 27.6667 92.7944 25.08V16.44H89.3944V12.16H92.7944L93.3944 6.84H97.9144V12.16H103.274V16.44H97.9144V25.12C97.9144 26.08 98.1144 26.7467 98.5144 27.12C98.941 27.4667 99.661 27.64 100.674 27.64H103.154V32H99.6744ZM116.683 32.48C114.763 32.48 113.029 32.04 111.483 31.16C109.963 30.28 108.749 29.0667 107.843 27.52C106.963 25.9467 106.523 24.1333 106.523 22.08C106.523 20.0267 106.976 18.2267 107.883 16.68C108.789 15.1067 110.003 13.88 111.523 13C113.069 12.12 114.803 11.68 116.723 11.68C118.616 11.68 120.323 12.12 121.843 13C123.389 13.88 124.603 15.1067 125.483 16.68C126.389 18.2267 126.843 20.0267 126.843 22.08C126.843 24.1333 126.389 25.9467 125.483 27.52C124.603 29.0667 123.389 30.28 121.843 31.16C120.296 32.04 118.576 32.48 116.683 32.48ZM116.683 28.04C118.016 28.04 119.176 27.5467 120.163 26.56C121.149 25.5467 121.643 24.0533 121.643 22.08C121.643 20.1067 121.149 18.6267 120.163 17.64C119.176 16.6267 118.029 16.12 116.723 16.12C115.363 16.12 114.189 16.6267 113.203 17.64C112.243 18.6267 111.763 20.1067 111.763 22.08C111.763 24.0533 112.243 25.5467 113.203 26.56C114.189 27.5467 115.349 28.04 116.683 28.04ZM131.42 32V12.16H135.98L136.46 15.88C137.18 14.6 138.154 13.5867 139.38 12.84C140.634 12.0667 142.1 11.68 143.78 11.68V17.08H142.34C141.22 17.08 140.22 17.2533 139.34 17.6C138.46 17.9467 137.767 18.5467 137.26 19.4C136.78 20.2533 136.54 21.44 136.54 22.96V32H131.42ZM156.568 32.48C154.568 32.48 152.795 32.0533 151.248 31.2C149.701 30.3467 148.488 29.1467 147.608 27.6C146.728 26.0533 146.288 24.2667 146.288 22.24C146.288 20.1867 146.715 18.36 147.568 16.76C148.448 15.16 149.648 13.92 151.168 13.04C152.715 12.1333 154.528 11.68 156.608 11.68C158.555 11.68 160.275 12.1067 161.768 12.96C163.261 13.8133 164.421 14.9867 165.248 16.48C166.101 17.9467 166.528 19.5867 166.528 21.4C166.528 21.6933 166.515 22 166.488 22.32C166.488 22.64 166.475 22.9733 166.448 23.32H151.368C151.475 24.8667 152.008 26.08 152.968 26.96C153.955 27.84 155.141 28.28 156.528 28.28C157.568 28.28 158.435 28.0533 159.128 27.6C159.848 27.12 160.381 26.5067 160.728 25.76H165.928C165.555 27.0133 164.928 28.16 164.048 29.2C163.195 30.2133 162.128 31.0133 160.848 31.6C159.595 32.1867 158.168 32.48 156.568 32.48ZM156.608 15.84C155.355 15.84 154.248 16.2 153.288 16.92C152.328 17.6133 151.715 18.68 151.448 20.12H161.328C161.248 18.8133 160.768 17.7733 159.888 17C159.008 16.2267 157.915 15.84 156.608 15.84Z" fill="#263238"/>
<defs>
<linearGradient id="paint0_linear_28_2294" x1="38" y1="19" x2="-6.26167e-08" y2="19" gradientUnits="userSpaceOnUse">
<stop stop-color="#6083FF"/>
<stop offset="1" stop-color="#5F5DFF"/>
</linearGradient>
<linearGradient id="paint1_linear_28_2294" x1="28.5" y1="19.25" x2="10" y2="19.25" gradientUnits="userSpaceOnUse">
<stop stop-color="#6083FF"/>
<stop offset="1" stop-color="#5F5DFF"/>
</linearGradient>
<clipPath id="clip0_28_2294">
<rect width="38" height="38" rx="19" fill="white"/>
</clipPath>
</defs>
</svg>
