<svg xmlns="http://www.w3.org/2000/svg" width="800" height="648" viewBox="0 0 800 648" fill="none"><path d="M525.782 359.345C524.454 352.911 521.893 346.926 518.405 341.613L524.758 333.947L511.187 320.376L503.521 326.73C498.208 323.241 492.223 320.696 485.789 319.352L484.861 309.462H465.673L464.745 319.352C458.311 320.68 452.326 323.241 447.013 326.73L439.347 320.376L425.776 333.947L432.129 341.613C428.641 346.926 426.096 352.911 424.752 359.345L414.861 360.273V379.461L424.752 380.39C426.08 386.823 428.641 392.808 432.129 398.122L425.776 405.787L439.347 419.358L447.013 413.005C452.326 416.494 458.311 419.038 464.745 420.383L465.673 430.273H484.861L485.789 420.383C492.223 419.054 498.208 416.494 503.521 413.005L511.187 419.358L524.758 405.787L518.405 398.122C521.893 392.808 524.438 386.823 525.782 380.39L535.672 379.461V360.273L525.782 359.345ZM501.249 369.875C501.249 384.231 489.614 395.865 475.259 395.865C460.904 395.865 449.269 384.231 449.269 369.875C449.269 355.52 460.904 343.885 475.259 343.885C489.614 343.885 501.249 355.52 501.249 369.875Z" fill="#EBEBEB"></path><path d="M571.456 75.729C569.696 67.2151 566.319 59.3093 561.71 52.2838L570.096 42.1375L552.156 24.1974L542.01 32.5833C534.984 27.9743 527.078 24.5975 518.565 22.8371L517.332 9.7622H491.951L490.718 22.8371C482.204 24.5975 474.299 27.9743 467.273 32.5833L457.127 24.1974L439.187 42.1375L447.573 52.2838C442.964 59.3093 439.587 67.2151 437.826 75.729L424.751 76.9613V102.343L437.826 103.575C439.587 112.089 442.964 119.995 447.573 127.021L439.187 137.167L457.127 155.107L467.273 146.705C474.299 151.314 482.204 154.691 490.718 156.451L491.951 169.526H517.332L518.565 156.451C527.078 154.691 534.984 151.314 542.01 146.705L552.156 155.107L570.096 137.167L561.71 127.037C566.319 120.011 569.696 112.105 571.456 103.591L584.531 102.359V76.9613L571.456 75.729ZM539.017 89.6522C539.017 108.632 523.638 124.012 504.657 124.012C485.677 124.012 470.298 108.632 470.298 89.6522C470.298 70.6719 485.677 55.2924 504.657 55.2924C523.638 55.2924 539.017 70.6719 539.017 89.6522Z" fill="#F0F0F0"></path><path d="M259.61 41.6574C258.634 36.9363 256.762 32.5513 254.201 28.6465L258.858 23.0132L248.904 13.0589L243.271 17.716C239.366 15.1554 234.981 13.283 230.26 12.3068L229.572 5.05714H215.489L214.8 12.3068C210.079 13.283 205.694 15.1554 201.789 17.716L196.156 13.0589L186.202 23.0132L190.859 28.6465C188.298 32.5513 186.426 36.9363 185.45 41.6574L178.2 42.3455V56.4287L185.45 57.1169C186.426 61.8379 188.298 66.2229 190.859 70.1278L186.202 75.7611L196.156 85.7153L201.789 81.0583C205.694 83.6188 210.079 85.4913 214.8 86.4675L215.489 93.7171H229.572L230.26 86.4675C234.981 85.4913 239.366 83.6188 243.271 81.0583L248.904 85.7153L258.858 75.7611L254.201 70.1278C256.762 66.2229 258.634 61.8379 259.61 57.1169L266.86 56.4287V42.3455L259.61 41.6574ZM241.606 49.3871C241.606 59.9175 233.061 68.4634 222.53 68.4634C212 68.4634 203.454 59.9175 203.454 49.3871C203.454 38.8568 212 30.3108 222.53 30.3108C233.061 30.3108 241.606 38.8407 241.606 49.3871Z" fill="#F0F0F0"></path><path d="M233.269 424.976C232.82 422.815 231.956 420.799 230.788 419.022L232.916 416.446L228.355 411.885L225.779 414.013C223.986 412.845 221.986 411.981 219.826 411.533L219.505 408.204H213.056L212.736 411.533C210.575 411.981 208.559 412.845 206.783 414.013L204.206 411.885L199.645 416.446L201.773 419.022C200.605 420.815 199.741 422.815 199.293 424.976L195.964 425.296V431.745L199.293 432.065C199.741 434.226 200.605 436.242 201.773 438.019L199.645 440.595L204.206 445.156L206.783 443.028C208.575 444.196 210.575 445.06 212.736 445.508L213.056 448.837H219.505L219.826 445.508C221.986 445.06 224.002 444.196 225.779 443.028L228.355 445.156L232.916 440.595L230.788 438.019C231.956 436.226 232.82 434.226 233.269 432.065L236.597 431.745V425.296L233.269 424.976ZM225.027 428.513C225.027 433.33 221.122 437.251 216.289 437.251C211.456 437.251 207.551 433.346 207.551 428.513C207.551 423.696 211.456 419.775 216.289 419.775C221.122 419.775 225.027 423.68 225.027 428.513Z" fill="#EBEBEB"></path><path d="M97.526 170.598C97.0779 168.438 96.2137 166.422 95.0454 164.645L97.1739 162.069L92.6129 157.507L90.0363 159.636C88.2439 158.468 86.2435 157.604 84.083 157.155L83.7629 153.827H77.3135L76.9934 157.155C74.8329 157.604 72.8164 158.468 71.04 159.636L68.4635 157.507L63.9024 162.069L66.0309 164.645C64.8627 166.438 63.9985 168.438 63.5504 170.598L60.2216 170.919V177.368L63.5504 177.688C63.9985 179.849 64.8627 181.865 66.0309 183.641L63.9024 186.218L68.4635 190.779L71.04 188.651C72.8325 189.819 74.8329 190.683 76.9934 191.131L77.3135 194.46H83.7629L84.083 191.131C86.2435 190.683 88.2599 189.819 90.0363 188.651L92.6129 190.779L97.1739 186.218L95.0454 183.641C96.2137 181.849 97.0779 179.849 97.526 177.688L100.855 177.368V170.919L97.526 170.598ZM89.2842 174.135C89.2842 178.952 85.3793 182.873 80.5462 182.873C75.7291 182.873 71.8082 178.968 71.8082 174.135C71.8082 169.318 75.7131 165.397 80.5462 165.397C85.3633 165.397 89.2842 169.318 89.2842 174.135Z" fill="#F0F0F0"></path><path d="M712.096 76.4813C711.392 73.1045 710.064 69.9678 708.239 67.1992L711.568 63.1823L704.463 56.0767L700.446 59.4054C697.661 57.581 694.524 56.2367 691.164 55.5485L690.683 50.3634H680.633L680.137 55.5485C676.76 56.2527 673.624 57.581 670.855 59.4054L666.838 56.0767L659.732 63.1823L663.061 67.1992C661.237 69.9838 659.892 73.1205 659.204 76.4813L654.019 76.9774V87.0276L659.204 87.5237C659.908 90.9005 661.237 94.0212 663.061 96.8058L659.684 100.823L666.79 107.928L670.807 104.6C673.592 106.424 676.728 107.768 680.089 108.456L680.585 113.642H690.635L691.116 108.456C694.492 107.752 697.629 106.424 700.398 104.6L704.415 107.928L711.52 100.823L708.191 96.8058C710.016 94.0212 711.36 90.8845 712.048 87.5237L717.233 87.0276V76.9774L712.096 76.4813ZM699.245 82.0025C699.245 89.5242 693.148 95.6216 685.626 95.6216C678.105 95.6216 672.007 89.5242 672.007 82.0025C672.007 74.4808 678.105 68.3834 685.626 68.3834C693.148 68.3834 699.245 74.4808 699.245 82.0025Z" fill="#F0F0F0"></path><path d="M634.094 26.9821C633.646 24.8216 632.782 22.8051 631.614 21.0287L633.742 18.4522L629.181 13.8911L626.605 16.0196C624.812 14.8513 622.812 13.9871 620.651 13.539L620.331 10.2103H613.882L613.562 13.539C611.401 13.9871 609.385 14.8513 607.608 16.0196L605.032 13.8911L600.471 18.4522L602.599 21.0287C601.431 22.8211 600.567 24.8216 600.119 26.9821L596.79 27.3021V33.7516L600.119 34.0717C600.567 36.2322 601.431 38.2486 602.599 40.025L600.471 42.6016L605.032 47.1626L607.608 45.0341C609.401 46.2024 611.401 47.0666 613.562 47.5147L613.882 50.8434H620.331L620.651 47.5147C622.812 47.0666 624.828 46.2024 626.605 45.0341L629.181 47.1626L633.742 42.6016L631.614 40.009C632.782 38.2166 633.646 36.2162 634.094 34.0557L637.423 33.7356V27.2861L634.094 26.9821ZM625.837 30.5189C625.837 35.336 621.932 39.2568 617.099 39.2568C612.282 39.2568 608.361 35.352 608.361 30.5189C608.361 25.7018 612.266 21.7809 617.099 21.7809C621.932 21.7809 625.837 25.7018 625.837 30.5189Z" fill="#F0F0F0"></path><path d="M108.392 560.655H82.6906V561.055H108.392V560.655Z" fill="#E0E0E0"></path><path opacity="0.33" d="M358.289 556.318H272.621V556.718H358.289V556.318Z" fill="#263238"></path><path d="M168.006 575.522H109.993V575.922H168.006V575.522Z" fill="#E0E0E0"></path><path opacity="0.33" d="M674.616 556.11H605.496V556.51H674.616V556.11Z" fill="#263238"></path><path d="M699.005 556.11H688.875V556.51H699.005V556.11Z" fill="#E0E0E0"></path><path opacity="0.33" d="M592.293 566.08H506.05V566.48H592.293V566.08Z" fill="#263238"></path><path d="M454.262 612.604C455.606 595.752 464.856 578.692 479.74 567.105C483.453 564.225 491.262 558.511 484.941 555.487C477.707 552.03 463.832 568.162 461.896 571.138C466.009 558.287 478.444 548.989 491.951 543.66C498.624 541.019 504.978 538.523 497.872 534.618C490.766 530.713 475.387 540.203 471.818 544.268C480.252 534.858 490.894 525.448 501.825 519.815C513.876 513.605 508.434 503.235 496.016 511.253C488.318 516.23 475.659 528.649 475.659 528.649C475.659 528.649 495.551 496.737 489.55 493.857C481.772 490.128 468.153 533.61 464.376 542.188C465.385 535.082 466.329 517.894 459.703 517.142C453.654 516.47 455.126 559.28 453.734 566.833C452.854 570.13 452.438 571.81 451.75 575.123C451.093 569.426 447.076 554.382 441.075 556.127C435.97 557.599 439.139 568.85 440.451 574.195C443.652 587.126 446.884 599.641 446.916 612.908L454.262 612.604Z" fill="#EBEBEB"></path><path d="M443.235 619.949C441.875 597.928 432.193 575.651 416.653 560.527C412.781 556.767 404.651 549.293 411.18 545.356C418.718 540.859 433.201 561.904 435.218 565.793C430.945 549.021 417.95 536.874 403.883 529.913C396.921 526.472 390.28 523.223 397.705 518.102C405.115 512.981 421.183 525.399 424.863 530.697C416.061 518.39 404.955 506.083 393.576 498.77C381.013 490.672 386.743 477.133 399.642 487.599C407.755 494.08 420.942 510.26 420.942 510.26C420.942 510.26 400.202 468.603 406.475 464.762C414.525 459.833 428.784 516.742 432.705 527.864C431.665 518.598 430.689 496.129 437.65 495.153C443.956 494.272 442.403 550.173 443.876 560.047C444.804 564.352 445.236 566.513 445.94 570.866C446.644 563.424 450.789 543.804 457.095 546.06C462.408 547.981 459.111 562.672 457.735 569.633C454.39 586.517 450.997 602.857 450.997 620.173L443.235 619.949Z" fill="#E0E0E0"></path><path d="M419.23 608.939L426.336 647.939H468.377L475.915 608.939H419.23Z" fill="#DBDBDB"></path><path d="M481.756 597.688H414.141V610.699H481.756V597.688Z" fill="#DBDBDB"></path></svg>