<svg xmlns="http://www.w3.org/2000/svg" width="625" height="498" viewBox="0 0 625 498" fill="none"><path d="M532.859 349.148L529.466 475.481H534.251L539.82 349.148H532.859Z" fill="#263238"></path><path opacity="0.2" d="M532.859 349.148L529.466 475.481H534.251L539.82 349.148H532.859Z" fill="white"></path><path d="M558.928 352.029H601.69L615.213 475.481H620.75L608.284 343.243L558.928 344.555V352.029Z" fill="#263238"></path><path opacity="0.2" d="M558.928 352.029H601.69L615.213 475.481H620.75L608.284 343.243L558.928 344.555V352.029Z" fill="white"></path><path d="M555.824 344.555H495.25H492.129L478.814 475.481H481.823L482.415 470.728L481.935 475.481H484.944L500.243 352.317H550.047L550.447 475.481H553.567H553.807H556.928L558.928 344.555H555.824Z" fill="#263238"></path><path opacity="0.2" d="M555.824 344.555H495.25H492.129L478.814 475.481H481.823L482.415 470.728L481.935 475.481H484.944L500.243 352.317H550.047L550.447 475.481H553.567H553.807H556.928L558.928 344.555H555.824Z" fill="white"></path><path d="M533.851 331.096L547.262 237.491C547.982 230.658 553.071 225.521 559.104 225.521H621.534C623.103 225.521 624.367 226.977 624.367 228.753V327.512C624.367 341.243 614.605 352.381 602.57 352.381H532.939H477.71C476.958 352.381 476.35 351.677 476.35 350.829C476.35 344.667 480.719 339.69 486.112 339.69H525.369C529.69 339.674 533.339 335.993 533.851 331.096Z" fill="#263238"></path><path opacity="0.5" d="M624.367 228.763V327.489C624.367 341.237 614.605 352.375 602.57 352.375H477.71C476.958 352.375 476.318 351.655 476.318 350.807C476.318 347.718 477.422 344.933 479.183 342.933C480.943 340.901 483.407 339.668 486.096 339.668H525.369C526.249 339.668 527.097 339.524 527.913 339.22C531.05 338.116 533.435 334.995 533.851 331.09L547.278 237.517C547.982 230.668 553.087 225.53 559.12 225.53H621.55C622.607 225.53 623.535 226.187 623.999 227.163C624.223 227.627 624.367 228.155 624.367 228.763Z" fill="white"></path><path opacity="0.3" d="M612.829 225.537V314.356C612.829 328.088 603.066 339.226 591.032 339.226H527.913C531.05 338.122 533.435 335.001 533.851 331.096L547.278 237.523C547.982 230.674 553.087 225.537 559.12 225.537H612.829Z" fill="white"></path><path d="M537.467 429.47L543.213 462.63L529.594 468.119L518.263 433.343L537.467 429.47Z" fill="#6083FF"></path><path d="M538.988 459.909C538.075 462.406 535.867 463.606 533.482 463.142L531.898 460.901C530.538 458.981 528.633 458.277 526.553 459.701C525.529 460.389 524.648 462.374 524.744 464.806C524.921 469.191 523.176 472.024 523.176 472.024C523.176 472.024 515.718 482.042 512.71 484.955C510.901 486.699 508.549 489.132 508.181 492.188C508.069 493.069 508.069 494.029 508.197 495.117C508.293 496.013 509.157 497.694 509.189 497.742L534.443 484.907C534.443 484.907 536.251 482.09 537.371 481.578C539.356 480.666 541.084 481.914 541.084 481.914L550.302 477.321C550.302 477.321 549.758 475.817 548.958 473.624C548.606 472.632 548.19 471.512 547.758 470.328C545.917 465.222 543.773 458.693 543.229 457.253C542.316 454.708 538.988 459.909 538.988 459.909Z" fill="#263238"></path><path d="M519.047 477.193C519.111 477.033 519.271 476.937 519.447 476.953C520.248 477.033 521.016 477.305 521.688 477.785C522.04 478.041 521.656 478.649 521.304 478.393C520.696 477.961 520.023 477.705 519.335 477.641C519.111 477.625 518.967 477.417 519.047 477.193Z" fill="#6083FF"></path><path d="M520.471 475.145C520.535 474.985 520.695 474.889 520.872 474.905C521.672 474.985 522.44 475.257 523.112 475.737C523.464 475.993 523.08 476.601 522.728 476.345C522.12 475.913 521.448 475.657 520.76 475.593C520.519 475.593 520.391 475.369 520.471 475.145Z" fill="#6083FF"></path><path d="M521.976 473.144C522.04 472.984 522.2 472.888 522.376 472.904C523.176 472.984 523.944 473.256 524.616 473.736C524.968 473.992 524.584 474.601 524.232 474.345C523.624 473.912 522.952 473.656 522.264 473.592C522.04 473.592 521.896 473.368 521.976 473.144C521.976 473.16 521.976 473.16 521.976 473.144Z" fill="#6083FF"></path><path opacity="0.2" d="M508.149 493.773C508.149 494.221 508.181 494.701 508.229 495.197C508.325 496.093 509.189 497.774 509.221 497.822L534.475 484.987C534.475 484.987 536.283 482.17 537.403 481.658C539.388 480.746 541.116 481.994 541.116 481.994L550.334 477.401C550.334 477.401 549.79 475.897 548.99 473.704C548.926 473.528 548.862 473.336 548.798 473.16L508.149 493.773Z" fill="white"></path><path d="M522.36 473.32C521.992 472.408 521.624 471.48 521.096 470.648C520.568 469.815 519.879 469.047 519.015 468.599C518.615 468.391 518.103 468.247 517.703 468.471C517.287 468.711 517.175 469.271 517.239 469.751C517.351 470.68 517.911 471.496 518.663 472.056C519.399 472.616 521.464 473.128 522.36 473.32Z" stroke="#6083FF" stroke-width="0.25" stroke-miterlimit="10"></path><path d="M522.472 473.272C522.408 472.28 522.344 471.304 522.456 470.312C522.568 469.335 522.856 468.343 523.448 467.559C523.72 467.191 524.12 466.839 524.568 466.887C525.049 466.919 525.385 467.383 525.545 467.831C525.849 468.711 525.689 469.703 525.273 470.52C524.84 471.352 523.208 472.696 522.472 473.272Z" stroke="#6083FF" stroke-width="0.25" stroke-miterlimit="10"></path><path d="M493.698 422.381L499.443 455.54L485.808 461.029L474.494 426.254L493.698 422.381Z" fill="#6083FF"></path><path d="M495.202 452.82C494.29 455.316 492.081 456.516 489.697 456.052L488.113 453.812C486.752 451.891 484.848 451.187 482.767 452.612C481.743 453.3 480.863 455.284 480.959 457.717C481.135 462.102 479.391 464.934 479.391 464.934C479.391 464.934 471.933 474.953 468.924 477.865C467.116 479.61 464.763 482.042 464.395 485.099C464.283 485.979 464.283 486.939 464.411 488.028C464.507 488.924 465.371 490.604 465.403 490.652L490.657 477.817C490.657 477.817 492.466 475.001 493.586 474.489C495.57 473.576 497.299 474.825 497.299 474.825L506.517 470.232C506.517 470.232 505.973 468.727 505.172 466.535C504.82 465.543 504.404 464.422 503.972 463.238C502.132 458.133 499.987 451.603 499.443 450.163C498.547 447.635 495.202 452.82 495.202 452.82Z" fill="#263238"></path><path d="M475.278 470.104C475.342 469.944 475.502 469.848 475.678 469.864C476.478 469.944 477.246 470.216 477.918 470.696C478.27 470.952 477.886 471.56 477.534 471.304C476.926 470.872 476.254 470.616 475.566 470.552C475.326 470.536 475.182 470.328 475.278 470.104Z" fill="#6083FF"></path><path d="M476.686 468.071C476.75 467.911 476.91 467.815 477.086 467.831C477.886 467.911 478.654 468.183 479.327 468.663C479.679 468.919 479.295 469.527 478.943 469.271C478.334 468.839 477.662 468.583 476.974 468.519C476.75 468.503 476.606 468.279 476.686 468.071Z" fill="#6083FF"></path><path d="M478.206 466.071C478.27 465.911 478.43 465.815 478.606 465.831C479.407 465.911 480.175 466.183 480.847 466.663C481.199 466.919 480.815 467.527 480.463 467.271C479.855 466.839 479.183 466.583 478.494 466.519C478.254 466.503 478.11 466.279 478.206 466.071Z" fill="#6083FF"></path><path opacity="0.2" d="M464.379 486.683C464.379 487.131 464.411 487.612 464.459 488.108C464.555 489.004 465.419 490.684 465.451 490.732L490.705 477.897C490.705 477.897 492.514 475.081 493.634 474.569C495.618 473.656 497.347 474.905 497.347 474.905L506.565 470.312C506.565 470.312 506.021 468.807 505.22 466.615C505.156 466.439 505.092 466.247 505.028 466.071L464.379 486.683Z" fill="white"></path><path d="M478.59 466.231C478.222 465.318 477.854 464.39 477.326 463.558C476.798 462.726 476.11 461.958 475.246 461.51C474.846 461.302 474.333 461.158 473.933 461.382C473.517 461.622 473.405 462.182 473.469 462.662C473.581 463.59 474.141 464.406 474.894 464.966C475.614 465.543 477.678 466.039 478.59 466.231Z" stroke="#6083FF" stroke-width="0.25" stroke-miterlimit="10"></path><path d="M478.686 466.183C478.622 465.19 478.558 464.214 478.67 463.222C478.782 462.246 479.071 461.254 479.663 460.469C479.935 460.101 480.335 459.749 480.783 459.797C481.263 459.829 481.599 460.293 481.759 460.741C482.063 461.622 481.903 462.614 481.487 463.43C481.055 464.262 479.423 465.607 478.686 466.183Z" stroke="#6083FF" stroke-width="0.25" stroke-miterlimit="10"></path><path d="M603.531 280.205C603.531 280.205 570.675 312.324 553.615 328.28C536.539 344.235 482.815 341.867 482.815 341.867L503.092 445.346L475.246 448.707C475.246 448.707 448.984 371.921 438.789 330.872C437.317 324.919 440.07 315.941 442.758 312.148C454.009 296.304 537.564 293.616 537.564 293.616L539.404 282.461L603.531 280.205Z" fill="#263238"></path><path opacity="0.2" d="M486.896 362.703C486.896 362.703 472.189 336.794 469.052 326.423C465.916 316.053 466.876 312.18 474.606 309.059C482.319 305.923 536.988 299.377 536.988 299.377L537.852 294.864L549.118 307.171C549.118 307.171 484.48 311.492 485.2 322.102C485.936 332.697 486.896 362.703 486.896 362.703Z" fill="black"></path><path d="M603.531 280.205C603.531 280.205 610.284 320.102 596.505 330.328C583.35 340.09 527.721 345.9 527.721 345.9L544.781 449.939L517.527 454.724C517.527 454.724 491.009 375.41 480.799 334.361C479.327 328.408 480.591 320.742 483.279 316.949C494.53 301.106 577.349 296.288 577.349 296.288L603.531 280.205Z" fill="#263238"></path><path opacity="0.2" d="M527.737 345.9C527.737 345.9 523.384 339.578 520.104 336.97C520.104 336.97 529.53 340.106 531.322 345.691L527.737 345.9Z" fill="black"></path><path d="M472.605 281.117L478.59 289.999C478.59 289.999 516.167 277.292 520.6 273.035C525.033 268.778 530.538 230.498 530.538 230.498V203.372L530.986 183.719C530.986 183.719 515.415 187.496 514.166 200.027C513.798 203.74 507.125 258.824 507.125 258.824L472.605 281.117Z" fill="#E9B376"></path><path d="M484.912 303.378H511.478H539.66V303.394C539.644 305.491 537.308 307.171 534.443 307.155H506.277H490.161C490.129 307.155 490.113 307.155 490.081 307.155H445.239C442.39 307.139 440.102 305.443 440.118 303.362H484.912V303.378Z" fill="#263238"></path><path d="M444.439 306.947H494.466C495.33 306.947 496.018 306.371 496.018 305.683C496.018 305.555 495.986 305.427 495.938 305.299L473.693 254.279C473.133 252.823 471.453 251.831 469.548 251.815H419.489C418.641 251.815 417.953 252.359 417.953 253.047C417.953 253.191 417.985 253.335 418.049 253.463L440.294 304.482C440.87 305.939 442.534 306.931 444.439 306.947Z" fill="#263238"></path><path d="M419.489 251.815H469.548C471.453 251.815 473.117 252.823 473.693 254.279L495.106 303.378H511.494H539.676V303.394C539.66 305.491 537.324 307.171 534.459 307.155H506.293H490.177C490.145 307.155 490.129 307.155 490.097 307.155H445.255C444.359 307.155 443.527 306.963 442.79 306.659C441.622 306.275 440.694 305.491 440.294 304.482L418.049 253.463C417.985 253.335 417.953 253.191 417.953 253.047C417.953 252.375 418.641 251.815 419.489 251.815Z" fill="#6083FF"></path><path d="M449.544 278.973C450.632 281.421 452.809 283.102 454.457 282.765C456.089 282.429 456.521 280.189 455.481 277.74C454.425 275.292 452.216 273.643 450.584 273.979C448.936 274.331 448.456 276.46 449.544 278.973Z" fill="white"></path><g opacity="0.3"><path d="M473.677 254.279L495.09 303.378H492.77L469.532 251.83C471.437 251.83 473.117 252.823 473.677 254.279Z" fill="black"></path></g><path opacity="0.5" d="M419.489 251.815H469.548C471.453 251.815 473.117 252.823 473.693 254.279L495.106 303.378H511.494H539.676V303.394C539.66 305.491 537.324 307.171 534.459 307.155H506.293H490.177C490.145 307.155 490.129 307.155 490.097 307.155H445.255C444.359 307.155 443.527 306.963 442.79 306.659C441.622 306.275 440.694 305.491 440.294 304.482L418.049 253.463C417.985 253.335 417.953 253.191 417.953 253.047C417.953 252.375 418.641 251.815 419.489 251.815Z" fill="white"></path><path d="M533.466 293.76C533.466 293.76 524.761 283.293 527.561 281.261L528.569 184.439L530.986 183.703L550.67 179.206L570.995 174.821L581.669 177.03L600.458 197.738C600.458 197.738 603.098 248.262 603.242 250.566C603.418 253.383 604.763 289.983 604.763 289.983C572.579 297.057 532.938 296.256 533.466 293.76Z" fill="#6083FF"></path><path d="M543.975 180.902L552.169 193.177L567.228 174.597C567.228 174.597 563.211 171.492 559.834 168.596C557.146 166.291 549.88 157.105 549.88 157.105L547.896 158.849L535.237 169.78C535.237 169.78 544.279 174.933 544.055 176.869C544.407 178.534 544.791 180.246 543.863 180.902" fill="#E9B376"></path><path opacity="0.2" d="M544.045 176.869C544.397 178.742 544.589 179.126 543.981 180.902C553.455 178.918 548.926 158.913 548.926 158.913H547.886L535.227 169.844C535.227 169.844 544.317 175.045 544.045 176.869Z" fill="black"></path><path d="M510.79 139.357C509.493 144.75 511.158 155.553 518.295 151.504C525.433 147.471 513.014 130.075 510.79 139.357Z" fill="#263238"></path><path d="M549.246 143.886C551.007 157.409 552.271 165.011 546.814 173.109C538.604 185.303 521.32 182.439 515.527 169.668C510.325 158.177 508.325 137.981 520.44 130.251C532.378 122.649 547.486 130.363 549.246 143.886Z" fill="#E9B376"></path><path d="M548.446 125.706C545.197 118.696 534.875 116.472 530.442 121.225C529.786 121.929 535.995 122.809 535.275 122.697L537.772 133.484C538.524 133.148 540.268 133.788 541.548 136.092C541.548 136.092 542.317 150.624 549.262 155.441C562.465 145.967 558.976 126.89 548.446 125.706Z" fill="#263238"></path><path d="M556.672 154.016C556.272 157.665 554.207 160.77 551.807 162.594C548.206 165.347 544.685 162.514 544.253 158.225C543.869 154.368 545.277 148.287 549.582 147.215C553.823 146.175 557.136 149.839 556.672 154.016Z" fill="#E9B376"></path><path d="M530.858 151.44C531.114 152.816 530.602 154.048 529.706 154.208C528.81 154.368 527.865 153.392 527.609 152.032C527.353 150.672 527.865 149.423 528.762 149.263C529.642 149.087 530.586 150.063 530.858 151.44Z" fill="#263238"></path><path d="M517.479 154.288C517.735 155.649 517.223 156.897 516.327 157.057C515.43 157.217 514.486 156.241 514.23 154.881C513.974 153.52 514.486 152.272 515.382 152.112C516.279 151.936 517.223 152.912 517.479 154.288Z" fill="#263238"></path><path d="M521.704 152.688C521.704 152.688 518.679 160.322 517.831 163.362C520.072 164.723 523.192 163.282 523.192 163.282L521.704 152.688Z" fill="#D58745"></path><path d="M532.41 143.534C532.218 143.662 531.978 143.694 531.754 143.598C529.114 142.366 527.049 143.598 527.017 143.598C526.713 143.79 526.313 143.694 526.121 143.39C525.929 143.086 526.025 142.686 526.329 142.494C526.441 142.43 529.018 140.877 532.298 142.414C532.618 142.574 532.762 142.958 532.618 143.278C532.57 143.374 532.506 143.47 532.41 143.534Z" fill="#263238"></path><path d="M511.398 151.28C511.27 151.264 511.158 151.216 511.046 151.136C510.774 150.912 510.726 150.496 510.95 150.223C513.238 147.455 516.215 147.791 516.343 147.791C516.695 147.839 516.951 148.159 516.919 148.511C516.887 148.863 516.567 149.119 516.199 149.087C516.071 149.071 513.782 148.831 511.942 151.056C511.83 151.232 511.606 151.312 511.398 151.28Z" fill="#263238"></path><path d="M547.934 126.154C549.566 124.17 551.679 122.665 553.503 122.105" stroke="#263238" stroke-width="0.5" stroke-miterlimit="10" stroke-linecap="round" stroke-linejoin="round"></path><path d="M548.142 125.946C548.958 123.417 548.814 120.585 547.726 118.152" stroke="#263238" stroke-width="0.5" stroke-miterlimit="10" stroke-linecap="round" stroke-linejoin="round"></path><path opacity="0.2" d="M552.911 150.912C552.223 150.223 551.071 150.127 550.174 150.544C549.278 150.96 548.638 151.776 548.222 152.656C547.71 153.712 547.502 154.913 547.582 156.097" stroke="black" stroke-width="0.5" stroke-miterlimit="10" stroke-linecap="round" stroke-linejoin="round"></path><path d="M526.537 166.483C529.658 165.683 532.202 163.426 533.355 160.434C533.419 160.258 533.323 160.066 533.146 160.002H533.13C532.97 159.938 532.778 160.034 532.73 160.194V160.21C531.626 162.978 529.274 165.043 526.393 165.811C526.233 165.875 526.153 166.067 526.217 166.227C526.217 166.227 526.217 166.227 526.217 166.243C526.281 166.403 526.473 166.483 526.633 166.419C526.633 166.419 526.633 166.419 526.649 166.419L526.537 166.483Z" fill="#263238"></path><path d="M540.476 181.543C540.732 181.158 544.349 178.582 544.349 178.582L551.567 184.279L561.937 169.908L570.995 174.837L551.855 198.922L540.476 181.543Z" fill="#6083FF"></path><path opacity="0.1" d="M551.503 186.68C549.998 205.02 548.974 223.328 549.134 240.964C549.294 258.6 546.173 278.156 551.887 294.848" stroke="black" stroke-width="0.5" stroke-miterlimit="10" stroke-linecap="round" stroke-linejoin="round"></path><path opacity="0.2" d="M580.885 244.021L571.779 244.901L574.9 206.156L577.14 239.268L602.682 240.324L580.885 244.021Z" fill="black"></path><path opacity="0.2" d="M540.476 181.543C540.668 181.831 544.877 190.169 546.653 193.689C546.942 194.281 547.806 194.233 548.03 193.609L551.247 184.903L547.278 191.673L540.476 181.543Z" fill="black"></path><path opacity="0.2" d="M551.887 184.407C552.159 184.679 559.264 192.313 559.264 192.313L569.715 174.837L560.785 194.762C560.369 195.674 559.104 195.77 558.56 194.922L551.887 184.407Z" fill="black"></path><path d="M580.949 223.328C580.949 223.328 580.885 251.286 580.837 251.574C580.773 251.878 532.106 272.203 532.106 272.203C532.106 272.923 539.34 281.373 539.34 281.373C539.34 281.373 592.424 274.395 598.425 265.353C603.546 257.624 604.347 222.96 604.347 222.96L580.949 223.328Z" fill="#E9B376"></path><path d="M581.653 177.046C601.034 178.678 605.803 193.113 605.435 215.102C605.099 236.275 605.611 240.964 605.611 240.964L576.532 240.324C576.532 240.324 576.052 202.555 576.052 198.906C576.068 195.274 581.653 177.046 581.653 177.046Z" fill="#6083FF"></path><path d="M531.514 249.414L504.868 242.708C504.868 242.708 512.166 204.796 513.414 198.442C514.838 191.241 523.544 185.783 530.986 183.719L537.259 208.077L531.514 249.414Z" fill="#6083FF"></path><path opacity="0.2" d="M527.561 248.422C527.273 248.358 523.256 209.725 523.256 209.725L521.048 246.773L527.561 248.422Z" fill="black"></path><path d="M506.549 299.073C506.789 296.592 511.478 285.662 513.878 282.045C516.279 278.412 532.09 272.203 532.09 272.203L541.372 278.908C541.372 278.908 541.356 282.781 538.076 285.598C536.187 287.214 529.802 288.863 529.802 288.863C529.802 288.863 530.33 290.831 530.346 293.04C530.362 295.488 529.866 298.513 527.849 298.417C525.833 298.321 525.097 291.839 525.001 290.895C525.097 291.839 525.657 298.481 522.952 298.721C520.36 298.945 519.928 292.015 519.928 292.015C519.928 292.015 519.8 295.248 519.704 296.897C519.623 298.545 517.975 299.985 516.439 298.145C514.662 296.016 514.502 292.351 514.502 292.351C514.502 292.351 513.094 294.496 510.998 299.185C509.509 302.53 506.357 301.17 506.549 299.073Z" fill="#E9B376"></path><path opacity="0.1" d="M525.097 291.871C525.033 290.623 524.969 289.375 525.145 288.143C525.321 286.91 525.737 285.678 526.537 284.718" stroke="black" stroke-width="0.5" stroke-miterlimit="10" stroke-linecap="round" stroke-linejoin="round"></path><path opacity="0.1" d="M519.816 292.752C519.751 291.503 519.687 290.255 519.864 289.023C520.04 287.791 520.456 286.558 521.256 285.598" stroke="black" stroke-width="0.5" stroke-miterlimit="10" stroke-linecap="round" stroke-linejoin="round"></path><path opacity="0.1" d="M514.566 292.287C514.502 291.039 514.438 289.791 514.614 288.559C514.79 287.326 515.207 286.094 516.007 285.134" stroke="black" stroke-width="0.5" stroke-miterlimit="10" stroke-linecap="round" stroke-linejoin="round"></path><path d="M545.533 120.889C544.301 119.337 542.349 118.552 540.396 118.216C537.756 117.784 535.035 117.96 532.474 118.76C529.546 119.673 526.857 121.369 523.832 121.849C523.464 121.913 523.032 121.929 522.76 121.673C522.568 121.497 522.504 121.225 522.424 120.969C521.896 119.321 520.248 118.12 518.519 118.104C516.791 118.104 515.126 119.305 514.598 120.953C512.934 118.36 508.981 118.056 506.356 119.673C503.732 121.289 502.212 123.097 501.347 126.058C501.043 127.082 500.915 129.339 501.299 131.035C502.068 134.412 503.908 136.492 506.869 138.285C510.853 140.701 515.559 142.366 520.152 141.534C526.265 140.413 530.906 135.148 536.955 133.676C539.244 133.116 541.948 133.26 543.533 134.988L548.462 125.706C548.446 124.138 546.926 122.649 545.533 120.889Z" fill="#263238"></path><path d="M39.3389 64.5973C40.8912 72.343 44.412 87.8345 39.0668 93.0197C39.0668 93.0197 41.2273 100.765 55.5345 100.765C71.2501 100.765 62.9922 93.0197 62.9922 93.0197C54.3983 90.9712 54.5743 84.6178 56.0307 78.6325L39.3389 64.5973Z" fill="#B97964"></path><path d="M71.7461 50.4021C71.5541 50.4021 71.378 50.3221 71.234 50.194C70.962 49.922 70.962 49.4899 71.234 49.2178C72.8344 47.6655 75.0909 46.9613 77.2834 47.3454C77.6515 47.4254 77.8755 47.7935 77.7955 48.1616V48.1776C77.7155 48.5457 77.3634 48.7857 76.9793 48.7057H76.9633C75.2189 48.4016 73.4265 48.9618 72.1782 50.2101C72.0662 50.3221 71.9062 50.4021 71.7461 50.4021Z" fill="#263238"></path><path d="M73.8907 59.3641C74.3068 62.2448 75.123 65.0614 76.3072 67.718C74.9149 68.2941 73.3466 68.2141 72.0023 67.5099L73.8907 59.3641Z" fill="#A24E3F"></path><path d="M73.2825 57.1396C73.0265 58.2918 73.4265 59.3801 74.1787 59.5561C74.9309 59.7322 75.7631 58.948 75.9391 57.7957C76.1152 56.6595 75.8111 55.5712 75.0589 55.3792C74.3067 55.1872 73.5706 55.9713 73.2825 57.1396Z" fill="#263238"></path><path d="M74.8188 55.3472L77.7635 55.2032C77.7635 55.2032 75.8431 57.0436 74.8188 55.3472Z" fill="#263238"></path><path d="M35.45 43.9846C33.0495 58.3879 31.7372 64.4212 37.2104 73.4153C45.4522 86.9063 63.6323 86.8263 70.2578 73.4153C76.2431 61.3966 79.1558 39.8717 66.593 30.9417C57.743 24.5403 45.3882 26.5247 38.9868 35.3747C37.1304 37.9033 35.9141 40.8639 35.45 43.9846Z" fill="#B97964"></path><path d="M53.15 24.1082C65.1687 19.1791 77.7155 22.4758 78.9318 34.9746C80.1481 47.4734 66.0649 59.3641 66.0649 59.3641L53.15 24.1082Z" fill="#263238"></path><path d="M58.9433 56.5475C58.6072 59.3641 59.4074 62.1808 61.1358 64.4213C63.4723 67.3499 66.801 65.8136 67.9853 62.4688C69.0576 59.4761 69.1056 54.307 65.9048 52.5786C63.5683 51.3783 60.6877 52.2905 59.4714 54.6431C59.1513 55.2192 58.9753 55.8753 58.9433 56.5475Z" fill="#B97964"></path><path opacity="0.3" d="M64.5925 56.1634C64.0004 56.0834 63.4243 56.4354 63.1042 56.9315C62.7841 57.4277 62.6721 58.0358 62.6561 58.6279C62.6241 60.4363 63.4563 62.2287 64.8486 63.381" stroke="black" stroke-width="0.5" stroke-miterlimit="10" stroke-linecap="round" stroke-linejoin="round"></path><path d="M23.6873 126.579C22.9512 126.563 17.91 158.666 18.2621 159.611C19.5104 163.083 56.5747 155.322 56.5747 155.322L58.9112 165.228C58.9112 165.228 42.7316 173.086 25.3197 175.934C7.34765 178.863 0.642153 170.909 0.546131 158.73C0.466113 147.56 5.09115 120.418 5.09115 120.418L23.6873 126.579Z" fill="#B97964"></path><path d="M142.738 109.167C138.337 115.697 133.36 121.778 128.303 127.796C125.71 130.756 89.5261 170.669 86.8535 173.55L82.8686 177.903C81.4603 179.631 79.2198 180.607 76.7872 180.543C74.1146 180.543 71.7461 178.607 71.394 176.142C70.9939 173.902 71.7301 171.693 73.3785 170.173L77.4754 165.916C80.18 163.052 116.7 123.411 119.501 120.626C125.198 115.137 129.679 108.511 136.033 103.55C137.441 102.414 140.978 103.838 142.306 105.215C143.41 106.335 143.586 107.967 142.738 109.167Z" fill="#263238"></path><path d="M85.8133 182.896L28.9685 190.882C20.5666 201.892 19.6064 219.048 20.1825 237.292C21.7189 265.827 28.3764 308.124 29.0325 317.742C29.0645 317.742 29.6567 317.742 29.6887 317.742C29.6407 325.104 25.0476 349.926 25.0476 360.968C25.0316 398.625 29.4646 457.694 29.4646 457.694L32.8894 467.856L44.444 459.102C44.444 459.102 64.3365 326.928 64.5925 319.087C64.6245 318.222 64.6565 317.326 64.6885 316.43L65.4727 302.731C66.3209 290.2 67.4412 276.261 67.7932 262.194L69.0895 239.357C85.6693 233.387 93.303 213.159 96.1036 208.886C91.3025 192.93 89.9902 189.794 85.8133 182.896Z" fill="#B97964"></path><path d="M94.4073 202.084C94.4073 202.084 102.889 231.291 110.075 301.131C111.451 314.462 106.97 334.61 104.762 347.061L82.6926 459.887L67.6332 462.031C64.1124 407.827 69.7297 340.324 74.7068 318.767L41.9315 217.144L94.4073 202.084Z" fill="#B97964"></path><path d="M46.2844 457.166H41.4033C40.299 457.166 39.2748 457.726 38.6187 458.622C35.802 462.463 33.6896 461.023 30.6169 457.406C28.6644 457.182 28.1523 459.422 27.9923 460.014L24.3434 473.297C24.0234 474.402 24.6635 475.57 25.7838 475.874C25.9758 475.938 26.1839 475.954 26.3919 475.954C32.3292 475.954 35.1299 475.954 42.5075 475.954H65.0886C71.25 475.954 72.5143 469.745 69.9857 469.168C58.5912 466.656 50.5093 463.295 46.9885 459.982C46.3324 459.406 47.0046 458.974 46.2844 457.166Z" fill="#263238"></path><path d="M56.8948 460.943C57.4069 460.574 57.711 459.982 57.727 459.342C57.775 459.006 57.615 458.67 57.3269 458.478C55.7905 457.39 49.6932 460.254 49.005 460.59C48.925 460.622 48.861 460.67 48.845 460.75C48.797 460.895 48.861 461.039 49.005 461.103C50.5094 461.455 52.0457 461.663 53.5821 461.695C54.7343 461.807 55.8866 461.551 56.8948 460.943ZM56.9428 458.958C57.0708 459.038 57.1348 459.182 57.1028 459.326C57.0708 459.79 56.8628 460.206 56.4947 460.494C55.1024 461.535 51.7576 461.087 49.9492 460.75C52.4938 459.63 56.0946 458.366 56.9428 458.958Z" fill="#6083FF"></path><path d="M49.197 461.167C51.0375 460.398 54.8783 457.39 54.6703 455.789C54.6383 455.453 54.3982 455.053 53.566 454.941C50.2213 454.557 48.7809 460.574 48.7809 460.83C48.7489 460.926 48.7809 461.038 48.861 461.119C48.925 461.135 48.989 461.135 49.053 461.119L49.197 461.167ZM53.454 455.453C54.0781 455.517 54.0781 455.741 54.0781 455.821C54.2542 456.798 51.4695 459.294 49.4691 460.35C49.8852 458.942 51.1175 455.437 53.2299 455.437L53.454 455.453Z" fill="#6083FF"></path><path d="M49.6772 460.943C47.9968 461.167 46.4284 462.175 45.5322 463.615" stroke="#6083FF" stroke-width="0.5" stroke-miterlimit="10" stroke-linecap="round" stroke-linejoin="round"></path><path d="M52.7178 463.231C51.0374 463.455 49.4691 464.463 48.5729 465.904" stroke="#6083FF" stroke-width="0.5" stroke-miterlimit="10" stroke-linecap="round" stroke-linejoin="round"></path><path d="M56.4947 465.151C54.8143 465.376 53.2459 466.384 52.3497 467.824" stroke="#6083FF" stroke-width="0.5" stroke-miterlimit="10" stroke-linecap="round" stroke-linejoin="round"></path><path opacity="0.3" d="M64.0644 467.712L63.7603 475.874H59.0873L61.6638 467.024L64.0644 467.712Z" fill="black"></path><path d="M83.4448 457.47H78.5637C77.4594 457.47 76.4352 458.03 75.7791 458.926C72.9624 462.767 70.8499 461.327 67.7773 457.71C65.8248 457.486 65.3127 459.726 65.1527 460.318L61.5038 473.601C61.1838 474.706 61.8239 475.874 62.9442 476.178C63.1362 476.242 63.3443 476.258 63.5523 476.258C69.4896 476.258 72.2903 476.258 79.6679 476.258H102.249C108.41 476.258 109.675 470.049 107.146 469.472C95.7356 466.96 87.6697 463.599 84.1489 460.286C83.4928 459.71 84.1649 459.262 83.4448 457.47Z" fill="#263238"></path><path d="M94.0551 461.247C94.5673 460.879 94.8713 460.286 94.8873 459.646C94.9353 459.31 94.7753 458.974 94.4872 458.782C92.9509 457.694 86.8535 460.558 86.1654 460.895C86.0853 460.927 86.0213 460.975 86.0053 461.055C85.9573 461.199 86.0213 461.359 86.1654 461.407C87.6697 461.759 89.206 461.967 90.7424 461.999C91.8946 462.111 93.0469 461.839 94.0551 461.247ZM94.1031 459.246C94.2312 459.326 94.2952 459.47 94.2632 459.614C94.2312 460.078 94.0231 460.494 93.655 460.782C92.2627 461.823 88.918 461.375 87.1096 461.039C89.6541 459.918 93.255 458.67 94.1031 459.246Z" fill="#6083FF"></path><path d="M86.3574 461.471C88.1978 460.702 92.0387 457.694 91.8307 456.093C91.7987 455.757 91.5586 455.357 90.7264 455.245C87.3817 454.861 85.9413 460.879 85.9413 461.135C85.9093 461.231 85.9413 461.343 86.0214 461.423C86.0854 461.439 86.1494 461.439 86.2134 461.423L86.3574 461.471ZM90.6144 455.741C91.2385 455.805 91.2385 456.029 91.2385 456.109C91.4146 457.086 88.63 459.582 86.6295 460.638C87.0456 459.23 88.2779 455.725 90.3903 455.725L90.6144 455.741Z" fill="#6083FF"></path><path d="M86.8376 461.247C85.1572 461.471 83.5888 462.479 82.6926 463.919" stroke="#6083FF" stroke-width="0.5" stroke-miterlimit="10" stroke-linecap="round" stroke-linejoin="round"></path><path d="M89.8782 463.519C88.1978 463.743 86.6295 464.751 85.7333 466.192" stroke="#6083FF" stroke-width="0.5" stroke-miterlimit="10" stroke-linecap="round" stroke-linejoin="round"></path><path d="M93.6551 465.44C91.9747 465.664 90.4063 466.672 89.5101 468.112" stroke="#6083FF" stroke-width="0.5" stroke-miterlimit="10" stroke-linecap="round" stroke-linejoin="round"></path><path opacity="0.2" d="M29.4486 321.711L29.7047 317.742H64.6565L64.0004 324.704L29.4486 321.711Z" fill="black"></path><path opacity="0.2" d="M74.3707 317.742L74.7068 318.75L73.3945 325.376L108.106 328.593L109.643 317.742H74.3707Z" fill="black"></path><path d="M26.7761 185.937C26.7761 185.937 13.7331 217.384 16.0697 239.213C18.4062 261.09 23.1272 317.726 23.1272 317.726H114.092C114.092 317.726 111.931 284.775 109.307 268.131C106.682 251.488 100.297 210.422 91.5906 194.163C82.8686 177.903 26.7761 185.937 26.7761 185.937Z" fill="#6083FF"></path><path opacity="0.2" d="M65.1367 288.648C59.1994 262.514 49.0051 255.328 45.1162 250.735L68.3054 302.523L65.1367 288.648Z" fill="black"></path><path d="M90.1823 103.966C97.2239 117.345 99.9765 129.044 99.9765 129.044L71.7942 134.357C71.7942 134.357 65.5848 105.246 68.6255 98.0288C71.4421 91.3233 73.4585 94.524 83.6208 98.2529C86.4375 99.2771 88.774 101.326 90.1823 103.966Z" fill="#6083FF"></path><path d="M16.8218 132.005L8.25989 102.83C13.6691 94.7481 40.4431 88.5547 40.4431 88.5547L58.0791 89.5149C58.0791 89.5149 64.8646 91.0352 70.6579 92.9237C78.4037 95.4522 82.5966 97.4847 84.437 101.79C84.437 101.79 85.2372 117.681 83.3008 137.318C82.7726 142.711 83.9729 164.844 85.4772 174.11L94.1032 196.739C44.0439 217.608 21.3988 196.003 21.3988 196.003C22.8552 191.57 26.2799 179.967 26.9361 175.646C26.456 170.125 26.1999 167.821 23.8634 158.138C23.4313 156.282 17.606 133.813 16.8218 132.005Z" fill="#6083FF"></path><path d="M10.4844 100.477C4.21095 103.902 1.28229 126.147 1.28229 126.147L23.1592 135.621C23.1592 135.621 31.6251 116.561 28.0083 108.127C24.9196 100.989 18.4382 96.1244 10.4844 100.477Z" fill="#6083FF"></path><g opacity="0.4"><path d="M90.1823 103.966C97.2239 117.345 99.9765 129.044 99.9765 129.044L71.7942 134.357C71.7942 134.357 65.5848 105.246 68.6255 98.0288C71.4421 91.3233 73.4585 94.524 83.6208 98.2529C86.4375 99.2771 88.774 101.326 90.1823 103.966Z" fill="black"></path><path d="M16.8218 132.005L8.25989 102.83C13.6691 94.7481 40.4431 88.5547 40.4431 88.5547L58.0791 89.5149C58.0791 89.5149 64.8646 91.0352 70.6579 92.9237C78.4037 95.4522 82.5966 97.4847 84.437 101.79C84.437 101.79 85.2372 117.681 83.3008 137.318C82.7726 142.711 83.9729 164.844 85.4772 174.11L94.1032 196.739C44.0439 217.608 21.3988 196.003 21.3988 196.003C22.8552 191.57 26.2799 179.967 26.9361 175.646C26.456 170.125 26.1999 167.821 23.8634 158.138C23.4313 156.282 17.606 133.813 16.8218 132.005Z" fill="black"></path><path d="M10.4844 100.477C4.21095 103.902 1.28229 126.147 1.28229 126.147L23.1592 135.621C23.1592 135.621 31.6251 116.561 28.0083 108.127C24.9196 100.989 18.4382 96.1244 10.4844 100.477Z" fill="black"></path></g><path d="M97.528 129.508L105.514 149.528L119.325 131.348L130.127 135.861C130.127 135.861 121.661 150.073 114.988 164.46C107.866 179.775 98.2641 177.103 92.4708 166.396C87.1576 156.586 78.2916 133.157 78.2916 133.157L97.528 129.508Z" fill="#B97964"></path><path d="M137.697 121.826C137.617 123.715 131.584 133.221 131.584 133.221L124.382 146.168L116.908 135.045L120.237 130.26C119.181 128.676 117.837 122.914 118.621 121.074C119.469 119.09 121.437 117.649 121.437 117.649H122.382C122.382 117.649 122.43 121.538 124.942 121.682C127.295 121.826 131.728 121.106 132.928 120.658C134.592 120.05 137.697 116.513 137.697 116.513C137.697 116.513 138.673 117.233 138.513 118.673C138.353 120.114 137.457 121.106 137.457 121.106L137.697 121.826Z" fill="#B97964"></path><path opacity="0.3" d="M214.898 94.444C200.895 112.608 176.842 119.778 155.189 112.256C149.732 110.368 144.627 107.583 140.065 104.046C116.732 86.0101 112.427 52.4826 130.463 29.1493C148.499 5.81606 182.027 1.51109 205.36 19.5472C228.693 37.5832 232.998 71.1108 214.962 94.444H214.898Z" fill="white"></path><path opacity="0.4" d="M221.732 42.0002L121.485 54.8671C121.581 54.0669 121.661 53.2987 121.773 52.5146C122.542 47.4574 124.046 42.5603 126.254 37.9513L212.834 26.8448C216.627 31.3418 219.651 36.463 221.732 42.0002Z" fill="white"></path><path opacity="0.4" d="M222.884 75.1757L128.639 87.2424C124.526 80.4409 122.029 72.7912 121.357 64.8694L224.26 51.6664C225.621 59.5082 225.141 67.542 222.884 75.1757Z" fill="white"></path><path d="M209.697 12.9857C183.515 -7.16288 145.955 -2.28177 125.806 23.8841C105.658 50.066 110.539 87.6265 136.705 107.775C162.823 127.892 200.303 123.075 220.484 97.0206C240.712 70.9027 235.943 33.3263 209.825 13.0977C209.793 13.0497 209.745 13.0177 209.697 12.9857ZM141.202 101.758C118.429 84.1697 114.236 51.4584 131.808 28.6852C149.38 5.91208 182.107 1.71913 204.88 19.2911C227.605 36.8471 231.846 69.4784 214.354 92.2515C196.798 115.041 164.087 119.298 141.298 101.742C141.266 101.726 141.25 101.71 141.218 101.678L141.202 101.758Z" fill="#263238"></path><path opacity="0.3" d="M12.0847 107.439C12.1807 107.743 15.5735 127.603 22.455 129.412C25.7358 130.276 52.0617 129.796 52.0617 129.796L54.3982 126.131L58.3671 129.796H75.0909L65.5367 113.136L66.5129 85.9461L12.0847 107.439Z" fill="black"></path><path d="M63.5042 58.98C69.4096 47.7295 66.0648 27.3889 53.0059 23.5801C41.2592 20.1553 22.6471 23.6601 23.3512 44.6888C24.0554 65.7015 19.1423 63.509 13.8451 77.0001C8.27585 91.1792 9.90822 109.823 19.3343 125.091H45.3402L50.0932 118.257L55.7105 125.091H78.2916C67.1531 109.631 73.8105 103.598 75.1548 89.5629C76.4831 75.5277 58.4151 68.6462 63.5042 58.98Z" fill="#263238"></path><path d="M36.7623 27.4529C36.0741 25.8526 34.6498 24.3962 32.9054 24.2842C32.0092 24.2202 31.129 24.5243 30.2808 24.8123L30.1208 25.9166C29.4326 27.661 28.0403 29.0053 26.9841 30.5416C25.9278 32.094 25.2397 34.1584 26.1199 35.7908C26.792 37.0231 28.2003 37.6792 29.5927 37.8232C32.1212 38.0953 34.7298 36.815 36.1381 34.7026C37.5624 32.6221 37.7705 29.7894 36.7623 27.4529Z" fill="#6083FF"></path><path d="M33.7216 35.3107C34.5858 33.4383 35.1619 29.1493 34.7618 27.5489C34.1697 25.1804 32.5213 23.212 30.6169 21.6916C29.6567 20.9234 28.6004 20.2353 27.4322 19.8352C25.5117 19.1791 23.4153 19.3711 21.4308 19.8032C19.1903 20.2993 16.9498 21.1635 15.3175 22.7959C13.109 24.9884 12.3248 28.5092 13.397 31.4378C14.4693 34.3665 17.3339 36.559 20.4386 36.815C18.4862 37.3751 16.6458 38.2713 14.9814 39.4396C14.8373 39.5356 14.6773 39.6637 14.6613 39.8397C14.6453 40.0157 14.7573 40.1598 14.8854 40.2878C15.9096 41.344 17.4619 41.7281 18.9343 41.6481C20.4066 41.5681 21.7989 41.056 23.1912 40.5599C22.7591 41.9842 22.343 43.4085 21.9109 44.8168C21.7829 45.2489 21.6549 45.729 21.7669 46.1611C22.039 47.1534 23.3833 47.3614 24.3915 47.1854C27.5122 46.6252 30.0568 44.2567 31.5771 41.4881C32.6334 39.5516 33.2575 37.4552 33.7216 35.3107Z" fill="#263238"></path></svg>