<svg width="90" height="46" viewBox="0 0 90 46" fill="none" xmlns="http://www.w3.org/2000/svg">
<path d="M2.32642 26.5649H4.87604V39.0666H2.32642V26.5649Z" fill="#263238"/>
<path d="M6.3547 34.7829C6.35301 33.885 6.61775 33.0067 7.1154 32.2592C7.61306 31.5118 8.32126 30.9288 9.15039 30.584C9.97947 30.2392 10.8923 30.1482 11.7732 30.3223C12.6541 30.4965 13.4636 30.928 14.099 31.5624C14.7346 32.1967 15.1677 33.0053 15.3435 33.8859C15.5193 34.7665 15.43 35.6795 15.0867 36.5093C14.7434 37.339 14.1618 38.0483 13.4152 38.5473C12.6688 39.0465 11.791 39.3127 10.8931 39.3127C10.2958 39.3196 9.70335 39.2071 9.15021 38.982C8.59709 38.7569 8.09445 38.4236 7.67177 38.0017C7.2491 37.5798 6.91488 37.0778 6.68872 36.5251C6.46256 35.9724 6.349 35.3801 6.3547 34.7829ZM12.8647 34.7829C12.8547 34.3953 12.7306 34.0193 12.5079 33.7018C12.2853 33.3843 11.974 33.1395 11.6129 32.998C11.2518 32.8566 10.8571 32.8248 10.4781 32.9065C10.099 32.9882 9.75249 33.18 9.48177 33.4577C9.21114 33.7353 9.02835 34.0866 8.9563 34.4677C8.88425 34.8486 8.92618 35.2425 9.07677 35.5998C9.22743 35.9571 9.48006 36.2622 9.80307 36.4766C10.1262 36.6911 10.5053 36.8056 10.8931 36.8057C11.1583 36.8131 11.4223 36.7654 11.6682 36.6657C11.9142 36.566 12.1369 36.4165 12.3222 36.2264C12.5074 36.0363 12.6513 35.81 12.7446 35.5616C12.8381 35.3131 12.8789 35.048 12.8647 34.7829Z" fill="#263238"/>
<path d="M25.6811 30.4996V38.6414C25.6811 41.5225 23.4289 42.7378 21.1513 42.7378C20.3504 42.7974 19.5485 42.6354 18.8334 42.2696C18.1184 41.9039 17.5178 41.3484 17.0974 40.6641L19.2901 39.3978C19.4641 39.7485 19.7394 40.0389 20.0803 40.2313C20.4212 40.4237 20.8121 40.5094 21.2023 40.4771C21.459 40.52 21.7222 40.5032 21.9715 40.4282C22.2208 40.3532 22.4495 40.222 22.64 40.0446C22.8304 39.8672 22.9777 39.6484 23.0703 39.4051C23.1629 39.1619 23.1984 38.9006 23.174 38.6414V37.851C22.8743 38.2198 22.4918 38.5128 22.0577 38.7062C21.6236 38.8996 21.15 38.9881 20.6754 38.9644C19.5213 38.9644 18.4146 38.5059 17.5985 37.6899C16.7824 36.8739 16.324 35.7671 16.324 34.613C16.324 33.4589 16.7824 32.3522 17.5985 31.5362C18.4146 30.7201 19.5213 30.2617 20.6754 30.2617C21.1498 30.24 21.6226 30.3293 22.0564 30.5226C22.4902 30.7159 22.8729 31.0078 23.174 31.375V30.5251L25.6811 30.4996ZM23.174 34.613C23.191 34.1997 23.0839 33.7907 22.8666 33.4387C22.6493 33.0867 22.3317 32.8077 21.9546 32.6377C21.5775 32.4676 21.1581 32.4142 20.7504 32.4844C20.3427 32.5545 19.9653 32.745 19.6668 33.0313C19.3681 33.3177 19.162 33.6868 19.0749 34.0912C18.9877 34.4955 19.0235 34.9168 19.1777 35.3007C19.3319 35.6846 19.5973 36.0136 19.9399 36.2454C20.2825 36.4773 20.6866 36.6014 21.1003 36.6017C21.3704 36.6208 21.6414 36.5832 21.8959 36.4911C22.1505 36.399 22.383 36.2548 22.5783 36.0674C22.7736 35.88 22.9276 35.6537 23.0302 35.4033C23.1328 35.1528 23.1818 34.8836 23.174 34.613Z" fill="#263238"/>
<path d="M27.1513 34.7829C27.1496 33.885 27.4144 33.0067 27.912 32.2592C28.4097 31.5118 29.1179 30.9288 29.947 30.584C30.7761 30.2392 31.6889 30.1482 32.5698 30.3223C33.4507 30.4965 34.2602 30.928 34.8957 31.5624C35.5312 32.1967 35.9643 33.0053 36.1402 33.8859C36.3159 34.7665 36.2266 35.6795 35.8833 36.5093C35.5401 37.339 34.9584 38.0483 34.2119 38.5473C33.4654 39.0465 32.5876 39.3127 31.6897 39.3127C31.0925 39.3196 30.5 39.2071 29.9468 38.982C29.3937 38.7569 28.891 38.4236 28.4684 38.0017C28.0458 37.5798 27.7115 37.0778 27.4853 36.5251C27.2592 35.9724 27.1456 35.3801 27.1513 34.7829ZM33.6614 34.7829C33.6513 34.3953 33.5272 34.0193 33.3045 33.7018C33.0819 33.3843 32.7706 33.1395 32.4095 32.998C32.0485 32.8566 31.6538 32.8248 31.2747 32.9065C30.8956 32.9882 30.5491 33.18 30.2784 33.4577C30.0078 33.7353 29.825 34.0866 29.7529 34.4677C29.6809 34.8486 29.7228 35.2425 29.8734 35.5998C30.024 35.9571 30.2767 36.2622 30.5997 36.4766C30.9228 36.6911 31.3019 36.8056 31.6897 36.8057C31.9536 36.8107 32.2156 36.7614 32.4596 36.6606C32.7035 36.5598 32.9241 36.4098 33.1075 36.2199C33.291 36.0302 33.4332 35.8046 33.5257 35.5574C33.618 35.3101 33.6584 35.0464 33.6444 34.7829H33.6614Z" fill="#263238"/>
<path d="M37.4098 28.2053C37.4098 27.8994 37.5005 27.6003 37.6704 27.3459C37.8404 27.0916 38.082 26.8933 38.3646 26.7762C38.6473 26.6592 38.9582 26.6286 39.2583 26.6882C39.5584 26.7479 39.8339 26.8952 40.0503 27.1115C40.2667 27.3279 40.4139 27.6034 40.4736 27.9035C40.5333 28.2036 40.5026 28.5146 40.3856 28.7972C40.2685 29.0798 40.0703 29.3214 39.8159 29.4914C39.5615 29.6613 39.2625 29.752 38.9565 29.752C38.547 29.7498 38.1549 29.5861 37.8653 29.2965C37.5757 29.007 37.412 28.6149 37.4098 28.2053ZM37.6732 30.4999H40.2228V39.0666H37.6732V30.4999Z" fill="#263238"/>
<path d="M51.3386 34.7832C51.3695 35.3495 51.2881 35.9163 51.0991 36.451C50.91 36.9857 50.6172 37.4777 50.2372 37.8987C49.8572 38.3197 49.3977 38.6615 48.8852 38.9042C48.3726 39.1469 47.8172 39.2859 47.2507 39.3131C46.7752 39.3358 46.3003 39.2541 45.8598 39.0735C45.4193 38.8928 45.0238 38.6178 44.7011 38.2677V42.5171H42.1515V30.4998H44.7011V31.3072C45.0238 30.9571 45.4193 30.6821 45.8598 30.5014C46.3003 30.3208 46.7752 30.2391 47.2507 30.2618C47.8165 30.289 48.3712 30.4277 48.8831 30.6699C49.3951 30.9122 49.8542 31.2531 50.234 31.6732C50.6139 32.0933 50.907 32.5843 51.0965 33.118C51.2861 33.6517 51.3684 34.2176 51.3386 34.7832ZM48.789 34.7832C48.7789 34.3843 48.652 33.9971 48.424 33.6696C48.1961 33.3422 47.8771 33.0887 47.5066 32.9407C47.136 32.7926 46.7302 32.7566 46.3394 32.8369C45.9485 32.9172 45.5898 33.1104 45.3076 33.3926C45.0255 33.6747 44.8323 34.0334 44.7519 34.4243C44.6717 34.8151 44.7078 35.2209 44.8557 35.5915C45.0038 35.962 45.2572 36.281 45.5847 36.5089C45.9122 36.7369 46.2994 36.8638 46.6983 36.8739C46.9767 36.8916 47.2556 36.8495 47.5164 36.7505C47.7771 36.6514 48.0136 36.4977 48.2101 36.2997C48.4065 36.1016 48.5583 35.8638 48.6553 35.6023C48.7521 35.3407 48.792 35.0615 48.772 34.7832H48.789Z" fill="#263238"/>
<path d="M59.2763 36.5C59.2763 38.4717 57.5765 39.3131 55.7068 39.3131C54.9599 39.3792 54.2103 39.2203 53.5544 38.8568C52.8987 38.4933 52.3666 37.9418 52.0269 37.2734L54.2535 36.0071C54.3439 36.3162 54.5374 36.5852 54.8017 36.7691C55.0662 36.9531 55.3855 37.0411 55.7068 37.0184C56.3272 37.0184 56.6331 36.8229 56.6331 36.483C56.6331 35.5396 52.3838 36.0411 52.3838 33.0835C52.3838 31.2138 53.9646 30.2704 55.7833 30.2704C56.4544 30.2501 57.1188 30.4095 57.7076 30.7323C58.2963 31.055 58.788 31.5294 59.1318 32.1061L56.8967 33.279C56.7979 33.0546 56.6361 32.8636 56.4309 32.7293C56.2257 32.595 55.986 32.5232 55.7408 32.5226C55.2989 32.5226 55.0269 32.6926 55.0269 33.007C55.0609 33.9843 59.2763 33.33 59.2763 36.5Z" fill="#263238"/>
<path d="M68.6596 30.4998V39.0666H66.1099V38.2677C65.8133 38.6227 65.437 38.9024 65.0115 39.0841C64.5862 39.2658 64.1238 39.3442 63.6623 39.3131C61.9625 39.3131 60.4583 38.0807 60.4583 35.7606V30.4998H63.0079V35.3866C62.9855 35.5949 63.0098 35.8055 63.0789 36.0032C63.148 36.201 63.2602 36.3808 63.4076 36.5297C63.5548 36.6787 63.7334 36.7929 63.9304 36.8642C64.1273 36.9355 64.3377 36.962 64.5461 36.9419C65.4811 36.9419 66.1355 36.398 66.1355 35.1827V30.4998H68.6596Z" fill="#263238"/>
<path d="M83.3958 33.814V39.0662H80.8461V34.035C80.8461 33.1852 80.4297 32.6242 79.6139 32.6242C78.798 32.6242 78.2711 33.2276 78.2711 34.239V39.0662H75.7215V34.035C75.7215 33.1852 75.3135 32.6242 74.4891 32.6242C73.6648 32.6242 73.1548 33.2276 73.1548 34.239V39.0662H70.6052V30.4996H73.1548V31.2899C73.4213 30.9408 73.7708 30.6639 74.1716 30.4844C74.5723 30.3047 75.0116 30.2281 75.4495 30.2616C75.8892 30.2402 76.3271 30.3332 76.7202 30.5312C77.1134 30.7292 77.4486 31.0258 77.6932 31.3919C77.9776 31.0091 78.3544 30.7047 78.7884 30.507C79.2224 30.3094 79.6994 30.2249 80.1747 30.2616C82.1125 30.2616 83.3958 31.6724 83.3958 33.814Z" fill="#263238"/>
<path d="M85.5721 30.4489C86.6235 30.4489 87.4758 29.5965 87.4758 28.5451C87.4758 27.4937 86.6235 26.6414 85.5721 26.6414C84.5207 26.6414 83.6683 27.4937 83.6683 28.5451C83.6683 29.5965 84.5207 30.4489 85.5721 30.4489Z" fill="#263238"/>
<path d="M31.1797 20.0804C36.1035 20.0804 40.0949 16.0889 40.0949 11.1651C40.0949 6.24146 36.1035 2.25 31.1797 2.25C26.256 2.25 22.2645 6.24146 22.2645 11.1651C22.2645 16.0889 26.256 20.0804 31.1797 20.0804Z" fill="#263238"/>
<path d="M51.1098 20.0804C56.0335 20.0804 60.0249 16.0889 60.0249 11.1651C60.0249 6.24146 56.0335 2.25 51.1098 2.25C46.1861 2.25 42.1946 6.24146 42.1946 11.1651C42.1946 16.0889 46.1861 20.0804 51.1098 20.0804Z" fill="#263238"/>
<path d="M20.1658 2.25H2.34399V20.0718H20.1658V2.25Z" fill="#263238"/>
</svg>
