<svg width="149" height="42" viewBox="0 0 149 42" fill="none" xmlns="http://www.w3.org/2000/svg">
<path d="M48.3819 27.3258V10.2034H45.5742V27.3258H48.3819Z" fill="#263238"/>
<path d="M50.1003 21.6177C50.1003 25.1159 52.4479 27.6014 56.0151 27.6014C59.5822 27.6014 61.9297 25.1159 61.9297 21.6177C61.9297 18.1196 59.5822 15.6341 56.0151 15.6341C52.4479 15.6341 50.1003 18.1196 50.1003 21.6177ZM52.9312 21.6177C52.9312 19.5695 54.1509 18.1426 56.0151 18.1426C57.8792 18.1426 59.0989 19.5695 59.0989 21.6177C59.0989 23.643 57.8792 25.0929 56.0151 25.0929C54.1509 25.0929 52.9312 23.643 52.9312 21.6177Z" fill="#263238"/>
<path d="M62.8738 21.3877C62.8738 24.7017 65.0141 27.0952 68.2131 27.0952C69.8701 27.0952 71.297 26.4278 72.0104 25.3231V27.2563C72.0104 29.1204 70.8367 30.3632 68.8805 30.3632C67.1314 30.3632 65.9347 29.5116 65.7736 28.0157H62.9429C63.3111 30.9845 65.5895 32.9177 68.7194 32.9177C72.4017 32.9177 74.7491 30.5012 74.7491 26.7499V15.9564H72.2636L72.1025 17.4983C71.4121 16.3016 69.9852 15.5881 68.3052 15.5881C65.0602 15.5881 62.8738 18.0506 62.8738 21.3877ZM65.7276 21.3186C65.7276 19.4315 66.9243 18.0506 68.6964 18.0506C70.6296 18.0506 71.9184 19.4545 71.9184 21.3186C71.9184 23.2058 70.6296 24.6557 68.6964 24.6557C66.9473 24.6557 65.7276 23.2288 65.7276 21.3186Z" fill="#263238"/>
<path d="M76.1387 21.6177C76.1387 25.1159 78.4862 27.6014 82.0533 27.6014C85.6205 27.6014 87.968 25.1159 87.968 21.6177C87.968 18.1196 85.6205 15.6341 82.0533 15.6341C78.4862 15.6341 76.1387 18.1196 76.1387 21.6177ZM78.9695 21.6177C78.9695 19.5695 80.1892 18.1426 82.0533 18.1426C83.9175 18.1426 85.1372 19.5695 85.1372 21.6177C85.1372 23.643 83.9175 25.0929 82.0533 25.0929C80.1892 25.0929 78.9695 23.643 78.9695 21.6177Z" fill="#263238"/>
<path d="M91.0069 13.6328C91.9274 13.6328 92.6869 12.8963 92.6869 11.9527C92.6869 11.0322 91.9274 10.2957 91.0069 10.2957C90.0633 10.2957 89.3499 11.0322 89.3499 11.9527C89.3499 12.8963 90.0633 13.6328 91.0069 13.6328ZM89.603 27.3261H92.4107V15.9572H89.603V27.3261Z" fill="#263238"/>
<path d="M94.8698 32.5954H97.6091V25.7602C98.3225 26.9339 99.8645 27.6244 101.568 27.6244C104.928 27.6244 106.93 25.0468 106.884 21.5026C106.815 17.9354 104.766 15.611 101.544 15.611C99.8184 15.611 98.2535 16.3705 97.5631 17.6823L97.402 15.9562H94.8698V32.5954ZM97.7242 21.6407C97.7242 19.5925 98.9669 18.1656 100.923 18.1656C102.879 18.1656 104.053 19.6155 104.053 21.6407C104.053 23.6659 102.879 25.0928 100.923 25.0928C98.9669 25.0928 97.7242 23.689 97.7242 21.6407Z" fill="#263238"/>
<path d="M107.596 23.9191C107.688 26.1745 109.437 27.6244 112.153 27.6244C114.823 27.6244 116.641 26.1975 116.641 23.9881C116.641 22.3541 115.628 21.2495 113.764 20.7892L111.762 20.3059C110.91 20.0758 110.335 19.7766 110.335 19.0401C110.335 18.2576 110.956 17.7053 111.969 17.7053C113.027 17.7053 113.718 18.3037 113.718 19.2933H116.272C116.18 17.0379 114.5 15.611 112.038 15.611C109.598 15.611 107.78 17.0379 107.78 19.2012C107.78 20.6741 108.632 21.8939 110.818 22.4692L112.797 22.9755C113.534 23.1826 113.994 23.5279 113.994 24.1723C113.994 25.0698 113.143 25.4841 112.107 25.4841C110.864 25.4841 110.151 24.9087 110.151 23.9191H107.596Z" fill="#263238"/>
<path d="M122.465 27.625C124.007 27.625 125.48 26.9115 126.147 25.8529L126.332 27.3258H128.955V15.9568H126.147V21.9175C126.147 23.9657 125.365 25.1164 123.524 25.1164C122.097 25.1164 121.107 24.426 121.107 22.0786V15.9568H118.3V23.0682C118.3 25.7838 119.773 27.625 122.465 27.625Z" fill="#263238"/>
<path d="M134.24 27.3252V20.7892C134.24 18.9481 135.322 18.0735 136.657 18.0735C137.992 18.0735 138.866 18.925 138.866 20.536V27.3252H141.605V20.8122C141.605 18.9481 142.664 18.0735 143.998 18.0735C145.356 18.0735 146.231 18.925 146.231 20.536V27.3252H148.946V19.8916C148.946 17.268 147.497 15.611 144.735 15.611C143.009 15.611 141.651 16.4395 141.099 17.7743C140.477 16.4395 139.235 15.611 137.347 15.611C136.013 15.611 134.816 16.2324 134.148 17.245L134.01 15.9562H131.433V27.3252H134.24Z" fill="#263238"/>
<path fill-rule="evenodd" clip-rule="evenodd" d="M1.87421 21.0243L1.87602 20.8365L1.87974 20.6486L1.8854 20.4607L1.89299 20.2728L1.90251 20.0849L1.91395 19.897L1.92733 19.7092L1.94263 19.5214L1.95988 19.3337L1.97905 19.146L2.00015 18.9586L2.02318 18.7712L2.04814 18.5839L2.07504 18.3969L2.10385 18.21L2.1346 18.0235L2.16728 17.837L2.20187 17.6509L2.23838 17.4649L2.27683 17.2793L2.31719 17.0939L2.35945 16.909L2.40364 16.7244L2.44973 16.54L2.49774 16.3562L2.54764 16.1726L2.59945 15.9895L2.65316 15.8068L2.70876 15.6247L2.76624 15.443L2.82561 15.2617L2.88687 15.0809L2.95001 14.9007L3.015 14.7211L3.08187 14.542L3.1506 14.3635L3.22119 14.1856L3.29363 14.0083L3.36792 13.8318L3.44404 13.6558L3.522 13.4805L3.60178 13.3059L3.68339 13.132L3.76681 12.9589L3.85204 12.7864L3.93907 12.6149L4.02788 12.444L4.11849 12.2739L4.21087 12.1048L4.30502 11.9364L4.40095 11.7688L4.49861 11.6022L4.59803 11.4364L4.69918 11.2716L4.80207 11.1077L4.90667 10.9447L5.01298 10.7828L5.121 10.6217L5.23071 10.4618L5.3421 10.3027L5.45516 10.1447L5.56988 9.98787L5.68626 9.83193L5.80428 9.67721L5.92394 9.52353L6.04521 9.37091L6.1681 9.21948L6.29258 9.06918L6.41865 8.92005L6.5463 8.77209L6.67552 8.62533L6.80628 8.47979L6.93859 8.33547L7.07244 8.19239L7.2078 8.05057L7.34466 7.91002L7.48302 7.77075L7.62285 7.63279L7.76416 7.49615L7.90692 7.36085L8.05112 7.2269L8.19674 7.0943L8.34379 6.96308L8.49223 6.83325L8.64207 6.70482L8.79327 6.57783L8.94583 6.45226L9.09974 6.32814L9.25498 6.20549L9.41154 6.0843L9.56935 5.96461L9.72857 5.84642L9.889 5.72975L10.0507 5.6146L10.2135 5.501L10.3777 5.38895L10.543 5.27845L10.7095 5.16955L10.8773 5.06223L11.0462 4.95653L11.2162 4.85244L11.3874 4.74996L11.5597 4.64914L11.733 4.54997L11.9075 4.45245L12.083 4.35661L12.2596 4.26245L12.4372 4.17L12.6158 4.07924L12.7954 3.9902L12.976 3.90289L13.1576 3.81732L13.3401 3.73349L13.5236 3.65143L13.7079 3.57113L13.8932 3.49261L14.0793 3.41588L14.2662 3.34094L14.454 3.2678L14.6427 3.19648L14.8321 3.12698L15.0223 3.05932L15.2133 2.99349L15.405 2.9295L15.5974 2.86738L15.7905 2.80712L15.9844 2.74872L16.179 2.69222L16.3741 2.63759L16.5699 2.58485L16.7663 2.53401L16.9633 2.48509L17.1609 2.43808L17.3591 2.39298L17.5577 2.34982L17.7569 2.30857L17.9566 2.26927L18.1567 2.23192L18.3574 2.19651L18.5585 2.16305L18.7599 2.13155L18.9618 2.10202L19.164 2.07446L19.3666 2.04886L19.5696 2.02525L19.7729 2.0036L19.9764 1.98396L20.1802 1.9663L20.3843 1.95062L20.5886 1.93695L21.6873 1.87421L21.75 7.16761L21.7859 7.1672L21.9376 7.16699L22.0893 7.16826L22.241 7.17103L22.3929 7.17529L22.5447 7.18104L22.6966 7.18828L22.8485 7.19702L23.0004 7.20726L23.1523 7.21899L23.3042 7.23222L23.4559 7.24695L23.6076 7.26318L23.7591 7.2809L23.9107 7.30012L24.062 7.32084L24.2132 7.34305L24.3643 7.36677L24.5153 7.39198L24.666 7.41867L24.8166 7.44687L24.9669 7.47656L25.1169 7.50775L25.2668 7.54041L25.4164 7.57457L25.5657 7.61021L25.7148 7.64734L25.8635 7.68596L26.0118 7.72605L26.1599 7.76762L26.3077 7.81066L26.455 7.85517L26.6019 7.90115L26.7485 7.94861L26.8947 7.99753L27.0404 8.04789L27.1857 8.09973L27.3305 8.153L27.4748 8.20774L27.6187 8.26391L27.7621 8.32153L27.9049 8.38059L28.0471 8.44107L28.1889 8.50298L28.3301 8.56632L28.4707 8.63108L28.6107 8.69723L28.7502 8.76481L28.8889 8.83379L29.0271 8.90417L29.1645 8.97593L29.3014 9.04908L29.4375 9.12362L29.5729 9.19952L29.7077 9.2768L29.8417 9.35543L29.975 9.43544L30.1075 9.51678L30.2392 9.59943L30.3701 9.68349L30.5003 9.76877L30.6296 9.85545L30.7582 9.94345L30.8858 10.0327L31.0127 10.1233L31.1387 10.2151L31.2637 10.3083L31.3879 10.4027L31.5111 10.4984L31.6335 10.5954L31.7549 10.6935L31.8754 10.7929L31.9949 10.8937L32.1134 10.9955L32.231 11.0986L32.3476 11.2029L32.4631 11.3084L32.5776 11.4152L32.6911 11.523L32.8035 11.632L32.9148 11.7422L33.0251 11.8536L33.1343 11.9661L33.2425 12.0797L33.3494 12.1944L33.4553 12.3102L33.5599 12.4272L33.6635 12.5451L33.7659 12.6642L33.8671 12.7844L33.9672 12.9055L34.0661 13.0278L34.1637 13.1511L34.2602 13.2753L34.3554 13.4006L34.4494 13.5269L34.542 13.6542L34.6335 13.7825L34.7236 13.9117L34.8126 14.0418L34.9002 14.1729L34.9865 14.3049L35.0715 14.4379L35.1551 14.5717L35.2375 14.7064L35.3184 14.842L35.3981 14.9784L35.4763 15.1157L35.5533 15.2538L35.6288 15.3928L35.7029 15.5325L35.7756 15.6731L35.847 15.8144L35.9169 15.9565L35.9854 16.0994L36.0525 16.243L36.1181 16.3873L36.1823 16.5323L36.2449 16.6781L36.3061 16.8245L36.3659 16.9716L36.4242 17.1193L36.481 17.2677L36.5363 17.4168L36.5901 17.5663L36.6424 17.7167L36.6932 17.8674L36.7425 18.0189L36.7902 18.1708L36.8364 18.3232L36.881 18.4763L36.9241 18.6298L36.9656 18.7838L37.0056 18.9384L37.0439 19.0933L37.0808 19.2487L37.1161 19.4046L37.1497 19.5609L37.1819 19.7175L37.2123 19.8746L37.2412 20.0321L37.2685 20.1899L37.2942 20.348L37.3183 20.5064L37.3408 20.6653L37.3616 20.8243L37.3808 20.9837L37.3984 21.1433L37.4144 21.3032L37.4287 21.4632L37.4414 21.6235L37.4525 21.7841L37.4619 21.9448L37.4697 22.1056L37.4758 22.2667L37.4802 22.4278L37.4831 22.589L37.4843 22.7504L37.4838 22.9119L37.4816 23.0734L37.4778 23.2351L37.4724 23.3966L37.4652 23.5583L37.4565 23.7199L37.446 23.8816L37.4339 24.0433L37.4202 24.2048L37.4047 24.3664L37.3877 24.5278L37.3688 24.6891L37.3484 24.8504L37.3264 25.0115L37.3026 25.1725L37.2772 25.3333L37.2501 25.4939L37.2213 25.6543L37.191 25.8146L37.1589 25.9746L37.1252 26.1344L37.0897 26.2939L37.0527 26.4532L37.0141 26.6121L36.9737 26.7708L36.9318 26.9291L36.8882 27.0871L36.8429 27.2447L36.7961 27.4019L36.7475 27.5589L36.6973 27.7153L36.6456 27.8714L36.5921 28.027L36.537 28.1822L36.4804 28.3369L36.4222 28.491L36.3623 28.6447L36.3008 28.7979L36.2377 28.9506L36.1731 29.1027L36.1068 29.2543L36.039 29.4052L35.9695 29.5556L35.8985 29.7053L35.826 29.8544L35.7517 30.003L35.6761 30.1508L35.5988 30.298L35.5201 30.4443L35.4397 30.5902L35.3579 30.7351L35.2745 30.8794L35.1896 31.023L35.1032 31.1657L35.0153 31.3078L34.9258 31.4489L34.8349 31.5893L34.7426 31.7288L34.6487 31.8675L34.5534 32.0054L34.4566 32.1424L34.3584 32.2785L34.2587 32.4137L34.1575 32.548L34.055 32.6813L33.9511 32.8136L33.8458 32.9451L33.739 33.0756L33.6309 33.205L33.5213 33.3334L33.4105 33.4609L33.2982 33.5873L33.1846 33.7127L33.0697 33.8371L32.9535 33.9603L32.8359 34.0825L32.7171 34.2035L32.5969 34.3234L32.4754 34.4422L32.3528 34.5599L32.2288 34.6765L32.1036 34.7919L31.9771 34.9061L31.8494 35.019L31.7205 35.1308L31.5903 35.2415L31.459 35.3509L31.3265 35.4589L31.1929 35.5658L31.0581 35.6714L30.9221 35.7757L30.785 35.8787L30.6468 35.9805L30.5075 36.081L30.367 36.18L30.2255 36.2778L30.083 36.3743L29.9394 36.4693L29.7947 36.563L29.6491 36.6554L29.5025 36.7463L29.3548 36.8359L29.2061 36.924L29.0564 37.0107L28.9059 37.096L28.7543 37.1798L28.6019 37.2623L28.4485 37.3431L28.2942 37.4226L28.1391 37.5007L27.983 37.5771L27.8262 37.6521L27.6684 37.7257L27.5099 37.7976L27.3506 37.8681L27.1904 37.937L27.0295 38.0044L26.8679 38.0702L26.7055 38.1345L26.5423 38.1972L26.3784 38.2584L26.2139 38.3179L26.0486 38.3759L25.8827 38.4322L25.7162 38.4871L25.5489 38.5402L25.3811 38.5917L25.2127 38.6417L25.0437 38.6899L24.8741 38.7366L24.704 38.7817L24.5333 38.825L24.3621 38.8667L24.1905 38.9068L24.0182 38.9451L23.8456 38.9819L23.6725 39.0169L23.499 39.0503L23.3251 39.0819L23.1508 39.1118L22.976 39.1401L22.8009 39.1667L22.6254 39.1916L22.4497 39.2147L22.2736 39.2362L22.0972 39.2559L21.9205 39.2739L21.7436 39.2902L21.5665 39.3047L21.3891 39.3175L21.2115 39.3286L21.0336 39.338L20.8557 39.3456L20.6776 39.3514L20.4993 39.3555L20.321 39.3578L20.1425 39.3585L19.9639 39.3574L19.7853 39.3545L19.6066 39.3499L19.4279 39.3434L19.2492 39.3352L19.0705 39.3254L18.8919 39.3137L18.7132 39.3003L18.5347 39.2851L18.3561 39.2681L18.1777 39.2495L17.9995 39.2291L17.8213 39.2069L17.6433 39.1829L17.4655 39.1571L17.2878 39.1296L17.1104 39.1004L16.9332 39.0695L16.7562 39.0367L16.5796 39.0022L16.4031 38.966L16.227 38.928L16.0511 38.8882L15.8757 38.8468L15.7006 38.8036L15.5258 38.7586L15.3514 38.712L15.1775 38.6636L15.0039 38.6135L14.8307 38.5617L14.6581 38.5081L14.486 38.4528L14.3143 38.3958L14.1431 38.337L13.9724 38.2766L13.8024 38.2146L13.6328 38.1507L13.4639 38.0852L13.2956 38.018L13.1278 37.9492L12.9607 37.8786L12.7943 37.8064L12.6285 37.7326L12.4634 37.6571L12.2991 37.5799L12.1354 37.501L11.9726 37.4205L11.8104 37.3385L11.649 37.2548L11.4885 37.1694L11.3286 37.0825L11.1697 36.994L11.0116 36.9038L10.8543 36.8121L10.6979 36.7187L10.5424 36.6239L10.3878 36.5274L10.2341 36.4295L10.0815 36.3298L9.92967 36.2288L9.77889 36.1261L9.62914 36.022L9.48033 35.9164L9.33256 35.8092L9.18582 35.7006L9.04014 35.5904L8.89554 35.4788L8.75201 35.3657L8.60958 35.2511L8.46827 35.1352L8.32809 35.0178L8.18905 34.899L8.05117 34.7787L7.91448 34.657L7.77897 34.534L7.64468 34.4096L7.51159 34.2838L7.37975 34.1567L7.24915 34.0281L7.11981 33.8983L6.99176 33.7672L6.86499 33.6347L6.73953 33.501L6.6154 33.366L6.4926 33.2296L6.37114 33.092L6.25104 32.9533L6.13232 32.8132L6.01498 32.6719L5.89905 32.5294L5.78453 32.3858L5.67144 32.2409L5.55978 32.0949L5.44958 31.9477L5.34084 31.7993L5.23358 31.6498L5.12779 31.4992L5.02352 31.3476L4.92076 31.1949L4.81952 31.041L4.71983 30.8862L4.62166 30.7303L4.52507 30.5733L4.43004 30.4154L4.3366 30.2564L4.24475 30.0965L4.1545 29.9356L4.06586 29.7738L3.97885 29.6109L3.89346 29.4472L3.80973 29.2826L3.72764 29.1171L3.64722 28.9508L3.56848 28.7835L3.49141 28.6155L3.41604 28.4465L3.34236 28.2769L3.2704 28.1064L3.20017 27.9351L3.13164 27.7631L3.06487 27.5903L2.99984 27.4168L2.93656 27.2426L2.87504 27.0678L2.81528 26.8922L2.7573 26.716L2.70111 26.5391L2.6467 26.3617L2.5941 26.1836L2.5433 26.0049L2.49431 25.8256L2.44714 25.6459L2.40179 25.4656L2.35827 25.2847L2.3166 25.1034L2.27676 24.9215L2.23877 24.7392L2.20263 24.5565L2.16836 24.3734L2.13594 24.1898L2.1054 24.0059L2.07672 23.8215L2.04993 23.6368L2.02502 23.4517L2.00201 23.2664L1.98088 23.0807L1.96164 22.8948L1.9443 22.7087L1.92887 22.5222L1.91534 22.3356L1.90372 22.1487L1.89401 21.9617L1.88621 21.7744L1.88033 21.5871L1.87636 21.3996L1.87433 21.212L1.87421 21.0243ZM20.0336 7.27849L19.9908 3.67044L19.9502 3.67436L19.764 3.69419L19.5781 3.71582L19.3924 3.73928L19.2074 3.76449L19.0226 3.79154L18.838 3.82039L18.6539 3.85101L18.4701 3.88347L18.2872 3.91761L18.104 3.95366L17.9221 3.99133L17.7399 4.0309L17.5587 4.07215L17.3776 4.11524L17.1974 4.15998L17.0177 4.20652L16.8384 4.25479L16.6597 4.3048L16.4818 4.35649L16.3042 4.40996L16.1276 4.46509L15.9514 4.52197L15.7762 4.58043L15.6012 4.64073L15.4272 4.70265L15.254 4.7662L15.0813 4.83149L14.9096 4.89837L14.7387 4.96687L14.5683 5.03712L14.3988 5.10897L14.2301 5.18246L14.0624 5.25749L13.8955 5.33416L13.7295 5.41237L13.5641 5.4923L13.4 5.5737L13.2366 5.65668L13.0742 5.74123L12.9128 5.82734L12.7524 5.91492L12.5927 6.00412L12.4341 6.09487L12.2768 6.18691L12.1201 6.28076L11.9648 6.37584L11.8105 6.47241L11.657 6.57056L11.5048 6.67015L11.3536 6.77119L11.2039 6.87342L11.0547 6.97746L10.907 7.08261L10.7604 7.18921L10.6149 7.29728L10.4707 7.40663L10.3278 7.5173L10.1857 7.62951L10.0452 7.7428L9.90577 7.85758L9.76764 7.9736L9.63073 8.09097L9.49523 8.20947L9.36073 8.32947L9.22778 8.45053L9.09596 8.57299L8.96566 8.69649L8.83655 8.82132L8.70888 8.94727L8.58251 9.07448L8.45737 9.20299L8.33387 9.33239L8.21176 9.4629L8.09073 9.59494L7.97138 9.72782L7.85349 9.86164L7.73681 9.99686L7.62183 10.1329L7.50812 10.2702L7.39594 10.4084L7.28523 10.5478L7.17596 10.6881L7.06831 10.8293L6.96206 10.9715L6.85727 11.1149L6.75417 11.259L6.65245 11.4042L6.55235 11.5502L6.45379 11.6971L6.35672 11.845L6.26128 11.9937L6.16741 12.1432L6.07512 12.2936L5.98447 12.4448L5.89531 12.5969L5.80776 12.7498L5.72193 12.9033L5.63764 13.0576L5.55496 13.2128L5.47395 13.3687L5.39454 13.5253L5.31684 13.6824L5.24075 13.8403L5.16635 13.9989L5.09356 14.1582L5.0225 14.318L4.95305 14.4785L4.8853 14.6396L4.81928 14.8011L4.75491 14.9633L4.69223 15.1261L4.63127 15.2894L4.572 15.4532L4.51448 15.6173L4.45862 15.7822L4.40449 15.9474L4.3521 16.1131L4.30144 16.279L4.25246 16.4457L4.20526 16.6125L4.15978 16.7797L4.11603 16.9473L4.07402 17.1153L4.03376 17.2835L3.99524 17.4521L3.95847 17.621L3.92345 17.7901L3.89019 17.9595L3.85866 18.1291L3.8289 18.2989L3.80089 18.469L3.77464 18.6391L3.75014 18.8095L3.72741 18.9801L3.70643 19.1507L3.68721 19.3215L3.66975 19.4924L3.65405 19.6633L3.64011 19.8342L3.62793 20.0054L3.61751 20.1765L3.60884 20.3475L3.60193 20.5186L3.59678 20.6896L3.59339 20.8606L3.59174 21.0316L3.59185 21.2025L3.5937 21.3732L3.59731 21.544L3.60266 21.7145L3.60976 21.8849L3.6186 22.0552L3.62917 22.2252L3.64149 22.3951L3.65553 22.5647L3.67132 22.7341L3.68881 22.9034L3.70804 23.0722L3.72898 23.2409L3.75164 23.4092L3.77602 23.5772L3.80211 23.745L3.82988 23.9122L3.85937 24.0792L3.89055 24.2459L3.92342 24.412L3.95797 24.5779L3.9942 24.7432L4.0321 24.9081L4.07168 25.0726L4.11291 25.2366L4.15581 25.4001L4.20034 25.563L4.24654 25.7255L4.29437 25.8874L4.34383 26.0488L4.39492 26.2096L4.44761 26.3697L4.50193 26.5293L4.55786 26.6882L4.61538 26.8466L4.67447 27.0042L4.73518 27.1613L4.79744 27.3176L4.86126 27.4732L4.92666 27.6282L4.9936 27.7823L5.06209 27.9358L5.13212 28.0886L5.20366 28.2405L5.27672 28.3916L5.35129 28.5419L5.42736 28.6915L5.50492 28.8402L5.58396 28.9881L5.66448 29.1351L5.74644 29.2812L5.82987 29.4265L5.91473 29.5709L6.00104 29.7142L6.08872 29.8568L6.17788 29.9984L6.26839 30.1389L6.36032 30.2787L6.45363 30.4174L6.54829 30.555L6.64431 30.6917L6.7417 30.8274L6.84039 30.9621L6.94045 31.0957L7.04177 31.2282L7.14445 31.3597L7.24836 31.4901L7.35357 31.6194L7.46009 31.7477L7.56779 31.8747L7.67677 32.0007L7.78697 32.1255L7.89842 32.2492L8.01104 32.3717L8.12483 32.4931L8.23983 32.6132L8.35599 32.7322L8.47333 32.85L8.59178 32.9665L8.71139 33.0818L8.83208 33.1959L8.95387 33.3088L9.07679 33.4204L9.20076 33.5307L9.32572 33.6397L9.45184 33.7475L9.57901 33.8539L9.70701 33.9591L9.83624 34.063L9.96631 34.1654L10.0974 34.2666L10.2295 34.3665L10.3625 34.465L10.4964 34.5621L10.6313 34.6579L10.767 34.7522L10.9037 34.8453L11.0412 34.9368L11.1797 35.0271L11.3188 35.1159L11.4589 35.2033L11.5999 35.2893L11.7415 35.3738L11.884 35.4569L12.0272 35.5386L12.1712 35.6188L12.3159 35.6975L12.4615 35.7748L12.6075 35.8506L12.7544 35.925L12.902 35.9978L13.0502 36.0692L13.199 36.1391L13.3485 36.2076L13.4985 36.2744L13.6493 36.3398L13.8006 36.4036L13.9525 36.466L14.1049 36.5268L14.2578 36.5861L14.4113 36.6439L14.5652 36.7001L14.7196 36.7547L14.8746 36.8079L15.03 36.8595L15.1858 36.9095L15.3419 36.958L15.4987 37.0049L15.6557 37.0503L15.8131 37.0941L15.9709 37.1363L16.129 37.177L16.2875 37.2161L16.4461 37.2536L16.6052 37.2895L16.7646 37.3238L16.9241 37.3566L17.0839 37.3878L17.244 37.4175L17.4042 37.4455L17.5647 37.4719L17.7253 37.4967L17.8861 37.52L18.0471 37.5416L18.2081 37.5618L18.3693 37.5802L18.5305 37.5971L18.6919 37.6125L18.8534 37.6261L19.0148 37.6383L19.1763 37.6488L19.3379 37.6578L19.4993 37.6651L19.6608 37.6709L19.8222 37.6752L19.9837 37.6777L20.145 37.6787L20.3063 37.6782L20.4674 37.676L20.6284 37.6723L20.7893 37.667L20.9501 37.6602L21.1108 37.6517L21.2711 37.6417L21.4313 37.6302L21.5914 37.6171L21.7512 37.6023L21.9107 37.586L22.07 37.5682L22.2289 37.5489L22.3877 37.528L22.546 37.5055L22.7041 37.4816L22.8618 37.4561L23.0193 37.429L23.1763 37.4004L23.3329 37.3703L23.4891 37.3387L23.645 37.3056L23.8004 37.271L23.9553 37.2348L24.1098 37.1971L24.2638 37.1581L24.4172 37.1174L24.5702 37.0753L24.7227 37.0317L24.8747 36.9867L25.0261 36.9402L25.1769 36.8923L25.3272 36.8428L25.4768 36.792L25.6257 36.7397L25.7743 36.686L25.9221 36.6308L26.0692 36.5742L26.2157 36.5163L26.3614 36.457L26.5064 36.3962L26.6508 36.3341L26.7945 36.2705L26.9373 36.2057L27.0796 36.1394L27.221 36.0718L27.3615 36.0029L27.5015 35.9325L27.6404 35.8609L27.7787 35.788L27.9161 35.7137L28.0526 35.6382L28.1883 35.5613L28.323 35.4833L28.4571 35.4038L28.59 35.3232L28.7223 35.2412L28.8534 35.1581L28.9837 35.0737L29.1131 34.988L29.2416 34.901L29.3688 34.8131L29.4952 34.7238L29.6207 34.6334L29.7452 34.5418L29.8687 34.449L29.991 34.3552L30.1125 34.26L30.2327 34.1638L30.3519 34.0665L30.4703 33.9681L30.5874 33.8684L30.7034 33.7679L30.8183 33.6661L30.9321 33.5634L31.0448 33.4596L31.1565 33.3547L31.2668 33.2489L31.3761 33.1419L31.4843 33.0339L31.5912 32.9251L31.697 32.8151L31.8015 32.7044L31.9047 32.5927L32.0071 32.4797L32.1079 32.3661L32.2077 32.2514L32.3061 32.1359L32.4034 32.0194L32.4993 31.9022L32.594 31.784L32.6875 31.6649L32.7796 31.5452L32.8706 31.4244L32.9601 31.3029L33.0485 31.1805L33.1356 31.0573L33.2211 30.9336L33.3055 30.8089L33.3885 30.6836L33.4702 30.5574L33.5507 30.4304L33.6296 30.3029L33.7072 30.1747L33.7835 30.0455L33.8583 29.9161L33.9319 29.7857L34.0041 29.6547L34.0748 29.5234L34.1442 29.391L34.2123 29.2582L34.2787 29.1252L34.3439 28.9911L34.4077 28.8565L34.4701 28.7216L34.531 28.5861L34.5905 28.45L34.6485 28.3136L34.7052 28.1764L34.7604 28.0388L34.8141 27.9011L34.8664 27.7624L34.9172 27.6237L34.9666 27.4844L35.0146 27.3448L35.0611 27.2047L35.106 27.0646L35.1497 26.9234L35.1916 26.7825L35.2322 26.6411L35.2714 26.4995L35.3091 26.3573L35.3451 26.2152L35.3799 26.0726L35.4131 25.9296L35.4448 25.7866L35.4751 25.6433L35.5038 25.5L35.5311 25.356L35.5568 25.2125L35.5811 25.0684L35.6039 24.9241L35.6251 24.7799L35.645 24.6354L35.6633 24.4911L35.6801 24.3461L35.6954 24.2017L35.7093 24.0568L35.7216 23.9122L35.7324 23.7672L35.7418 23.6227L35.7497 23.4777L35.7561 23.3326L35.7609 23.188L35.7644 23.0435L35.7663 22.8986L35.7667 22.7539L35.7657 22.6094L35.7632 22.465L35.7591 22.3206L35.7536 22.1767L35.7467 22.0323L35.7383 21.8886L35.7283 21.7448L35.717 21.6015L35.7041 21.458L35.6899 21.3151L35.6742 21.172L35.6569 21.0295L35.6383 20.8871L35.6182 20.7451L35.5966 20.603L35.5736 20.4616L35.5492 20.3207L35.5234 20.1797L35.496 20.0391L35.4673 19.8991L35.4372 19.759L35.4058 19.6199L35.3727 19.4807L35.3385 19.3423L35.3026 19.2038L35.2655 19.0664L35.227 18.9291L35.187 18.7921L35.1458 18.6559L35.1032 18.5202L35.059 18.3846L35.0138 18.2501L34.9669 18.1156L34.9189 17.982L34.8695 17.8486L34.8188 17.7162L34.7666 17.584L34.7132 17.4525L34.6585 17.3219L34.6026 17.1918L34.545 17.0619L34.4867 16.9332L34.4266 16.8047L34.3655 16.6773L34.3031 16.5504L34.2393 16.424L34.1744 16.2986L34.1082 16.1738L34.0406 16.0495L33.9722 15.9265L33.9022 15.8037L33.8311 15.682L33.7587 15.5608L33.6854 15.4409L33.6105 15.3212L33.5348 15.2027L33.4577 15.0847L33.3796 14.9677L33.3004 14.8518L33.2198 14.7364L33.1382 14.622L33.0555 14.5084L32.9716 14.3958L32.8867 14.2839L32.8007 14.1732L32.7136 14.0632L32.6255 13.9542L32.5362 13.8461L32.4459 13.7389L32.3545 13.6327L32.2622 13.5275L32.169 13.4233L32.0746 13.32L31.979 13.2176L31.883 13.1166L31.7853 13.0161L31.6872 12.9171L31.588 12.8188L31.4879 12.7217L31.3865 12.6254L31.2847 12.5305L31.1817 12.4364L31.0777 12.3435L30.9732 12.2517L30.8677 12.161L30.761 12.0711L30.6537 11.9826L30.5456 11.8952L30.4367 11.8089L30.3268 11.7236L30.2164 11.6397L30.1048 11.5565L29.9928 11.4749L29.8799 11.3943L29.7662 11.3147L29.6519 11.2365L29.5365 11.1592L29.421 11.0834L29.3043 11.0086L29.1871 10.935L29.069 10.8626L28.9505 10.7913L28.8313 10.7214L28.7116 10.6528L28.5908 10.5851L28.4701 10.5189L28.3482 10.4538L28.2259 10.39L28.1032 10.3275L27.9797 10.2661L27.8557 10.2059L27.7312 10.1472L27.6061 10.0895L27.4807 10.0333L27.3547 9.97821L27.2242 9.92274L27.1014 9.87204L26.9737 9.82069L26.8461 9.77093L26.7176 9.7221L26.589 9.67487L26.4599 9.62877L26.3304 9.58407L26.2005 9.54049L26.0704 9.49841L25.9398 9.45756L25.8089 9.41801L25.6778 9.37987L25.5463 9.34291L25.4142 9.30723L25.2824 9.27299L25.1503 9.24006L25.0173 9.20834L24.8848 9.17808L24.7516 9.14903L24.6184 9.12139L24.4848 9.095L24.3514 9.07L24.2176 9.04629L24.0838 9.02396L23.9494 9.00287L23.8154 8.98318L23.6812 8.9648L23.5467 8.94773L23.4122 8.93201L23.2777 8.91763L23.1432 8.90457L23.0085 8.89284L22.8737 8.88243L22.7389 8.87334L22.6044 8.8656L22.4698 8.85918L22.3348 8.85407L22.2005 8.8503L22.066 8.84785L21.9315 8.84672L21.7968 8.84691L21.7698 8.84722L21.8123 12.429L21.8887 12.4287L21.987 12.4292L22.0853 12.4307L22.1837 12.4332L22.2821 12.4367L22.3806 12.4412L22.4791 12.4466L22.5777 12.453L22.6763 12.4604L22.7749 12.4688L22.8735 12.4781L22.972 12.4884L23.0705 12.4998L23.169 12.5121L23.2674 12.5253L23.3658 12.5396L23.4641 12.5548L23.5623 12.571L23.6605 12.5882L23.7586 12.6064L23.8565 12.6256L23.9543 12.6458L24.0521 12.6669L24.1496 12.689L24.247 12.7121L24.3442 12.7362L24.4412 12.7612L24.5381 12.7873L24.6348 12.8143L24.7314 12.8423L24.8277 12.8712L24.9238 12.9011L25.0195 12.9321L25.1151 12.9639L25.2105 12.9968L25.3055 13.0307L25.4004 13.0654L25.4948 13.1011L25.5891 13.1379L25.683 13.1755L25.7766 13.2141L25.8699 13.2538L25.9628 13.2943L26.0554 13.3358L26.1476 13.3781L26.2395 13.4215L26.331 13.4658L26.4221 13.5111L26.5128 13.5573L26.6031 13.6044L26.693 13.6524L26.7825 13.7014L26.8715 13.7513L26.9601 13.8021L27.0483 13.8538L27.136 13.9065L27.2231 13.96L27.3098 14.0144L27.396 14.0698L27.4818 14.126L27.567 14.1831L27.6517 14.2411L27.7358 14.3001L27.8194 14.3597L27.9024 14.4204L27.9849 14.4819L28.0669 14.5443L28.1482 14.6075L28.2289 14.6716L28.3091 14.7365L28.3886 14.8023L28.4675 14.8689L28.5459 14.9363L28.6235 15.0045L28.7006 15.0735L28.777 15.1435L28.8526 15.2141L28.9276 15.2856L29.002 15.3579L29.0756 15.431L29.1486 15.5048L29.2209 15.5795L29.2925 15.6548L29.3632 15.731L29.4333 15.808L29.5026 15.8856L29.5712 15.964L29.6391 16.0432L29.7062 16.123L29.7725 16.2036L29.838 16.2849L29.9028 16.3669L29.9667 16.4497L30.0299 16.5331L30.0922 16.6172L30.1537 16.702L30.2144 16.7874L30.2742 16.8735L30.3332 16.9603L30.3913 17.0477L30.4486 17.1357L30.505 17.2245L30.5605 17.3138L30.6153 17.4037L30.6691 17.4942L30.7219 17.5854L30.7739 17.677L30.825 17.7693L30.8751 17.8622L30.9244 17.9556L30.9728 18.0496L31.0201 18.1442L31.0666 18.2393L31.1121 18.3349L31.1566 18.4309L31.2002 18.5276L31.2429 18.6247L31.2846 18.7224L31.3252 18.8205L31.365 18.9191L31.4037 19.0181L31.4413 19.1175L31.4781 19.2175L31.5138 19.3179L31.5485 19.4187L31.5823 19.5199L31.6149 19.6216L31.6466 19.7236L31.6772 19.826L31.7068 19.9288L31.7354 20.032L31.7629 20.1355L31.7894 20.2393L31.8148 20.3436L31.8391 20.448L31.8625 20.5529L31.8847 20.658L31.9059 20.7635L31.9259 20.8692L31.9449 20.9753L31.9629 21.0815L31.9798 21.188L31.9955 21.2948L32.0103 21.4017L32.0238 21.5089L32.0364 21.6164L32.0477 21.7241L32.058 21.8319L32.0673 21.9399L32.0754 22.0481L32.0824 22.1564L32.0882 22.2648L32.093 22.3734L32.0967 22.4822L32.0992 22.591L32.1006 22.7L32.1009 22.8091L32.1 22.9182L32.0981 23.0273L32.095 23.1366L32.0907 23.246L32.0854 23.3552L32.0789 23.4646L32.0714 23.574L32.0626 23.6834L32.0527 23.7928L32.0417 23.9021L32.0296 24.0114L32.0163 24.1207L32.0019 24.2299L31.9864 24.3391L31.9697 24.4482L31.9519 24.5572L31.9329 24.6661L31.9128 24.7748L31.8916 24.8836L31.8692 24.9921L31.8457 25.1005L31.8211 25.2087L31.7954 25.3168L31.7685 25.4246L31.7405 25.5324L31.7113 25.6399L31.681 25.7472L31.6497 25.8542L31.6171 25.961L31.5835 26.0677L31.5486 26.174L31.5127 26.28L31.4757 26.3858L31.4377 26.4914L31.3984 26.5965L31.358 26.7014L31.3166 26.8059L31.2741 26.9101L31.2304 27.0141L31.1856 27.1175L31.1398 27.2207L31.0928 27.3235L31.0448 27.4258L30.9956 27.5278L30.9454 27.6294L30.8941 27.7305L30.8417 27.8312L30.7883 27.9314L30.7337 28.0312L30.6782 28.1305L30.6216 28.2294L30.5638 28.3277L30.5051 28.4256L30.4453 28.5229L30.3845 28.6198L30.3225 28.716L30.2596 28.8118L30.1956 28.9069L30.1307 29.0016L30.0647 29.0957L29.9977 29.1891L29.9297 29.282L29.8607 29.3743L29.7907 29.4659L29.7197 29.5569L29.6477 29.6472L29.5747 29.737L29.5008 29.826L29.4259 29.9145L29.35 30.0022L29.2732 30.0893L29.1954 30.1756L29.1167 30.2612L29.037 30.3461L28.9565 30.4304L28.875 30.5138L28.7926 30.5965L28.7092 30.6784L28.625 30.7597L28.5399 30.8401L28.4539 30.9196L28.3671 30.9986L28.2793 31.0765L28.1907 31.1537L28.1012 31.2302L28.011 31.3057L27.9198 31.3805L27.8279 31.4544L27.735 31.5274L27.6414 31.5995L27.547 31.6708L27.4518 31.7412L27.3557 31.8107L27.259 31.8794L27.1615 31.9471L27.0632 32.0139L26.964 32.0798L26.8642 32.1447L26.7637 32.2087L26.6625 32.2718L26.5604 32.3338L26.4578 32.395L26.3543 32.4552L26.2503 32.5143L26.1456 32.5725L26.0401 32.6298L25.9341 32.686L25.8273 32.7412L25.7199 32.7954L25.612 32.8485L25.5034 32.9007L25.3941 32.9518L25.2843 33.0018L25.1739 33.0508L25.0629 33.0988L24.9513 33.1457L24.8392 33.1915L24.7266 33.2363L24.6134 33.2799L24.4997 33.3226L24.3855 33.3641L24.2708 33.4045L24.1555 33.4437L24.0399 33.482L23.9237 33.519L23.8071 33.555L23.6901 33.5898L23.5725 33.6235L23.4547 33.6561L23.3363 33.6875L23.2176 33.7178L23.0985 33.7469L22.979 33.7749L22.859 33.8017L22.7389 33.8274L22.6183 33.8519L22.4974 33.8752L22.3762 33.8974L22.2547 33.9184L22.1329 33.9382L22.0109 33.9567L21.8885 33.9741L21.7658 33.9904L21.6429 34.0054L21.5199 34.0192L21.3966 34.0319L21.2731 34.0433L21.1494 34.0535L21.0255 34.0625L20.9014 34.0703L20.7772 34.0769L20.6528 34.0822L20.5283 34.0863L20.4036 34.0892L20.2789 34.0909L20.154 34.0914L20.0291 34.0906L19.9041 34.0886L19.779 34.0854L19.6539 34.0809L19.5288 34.0752L19.4036 34.0682L19.2785 34.0601L19.1533 34.0507L19.0282 34.04L18.9031 34.0281L18.778 34.015L18.653 34.0007L18.5281 33.9851L18.4032 33.9682L18.2785 33.9502L18.1538 33.9309L18.0293 33.9103L17.9048 33.8885L17.7806 33.8655L17.6565 33.8413L17.5326 33.8157L17.4088 33.789L17.2853 33.7611L17.162 33.7318L17.0388 33.7014L16.916 33.6697L16.7933 33.6368L16.6709 33.6027L16.5489 33.5674L16.4271 33.5308L16.3056 33.493L16.1844 33.454L16.0636 33.4138L15.943 33.3723L15.8229 33.3297L15.7031 33.2858L15.5836 33.2408L15.4646 33.1945L15.346 33.1471L15.2277 33.0983L15.1099 33.0485L14.9926 32.9975L14.8757 32.9452L14.7592 32.8918L14.6433 32.8372L14.5279 32.7815L14.4129 32.7245L14.2984 32.6664L14.1845 32.6072L14.0711 32.5467L13.9583 32.4852L13.846 32.4225L13.7343 32.3586L13.6232 32.2936L13.5127 32.2275L13.4028 32.1602L13.2935 32.0919L13.1849 32.0223L13.0769 31.9518L12.9696 31.88L12.863 31.8072L12.757 31.7333L12.6518 31.6584L12.5472 31.5823L12.4434 31.5051L12.3402 31.4269L12.2379 31.3476L12.1363 31.2673L12.0354 31.1859L11.9354 31.1035L11.836 31.02L11.7375 30.9356L11.6399 30.85L11.543 30.7635L11.4469 30.676L11.3518 30.5875L11.2575 30.498L11.1639 30.4075L11.0713 30.3161L10.9797 30.2237L10.8889 30.1302L10.7989 30.036L10.7099 29.9407L10.6219 29.8445L10.5348 29.7473L10.4485 29.6493L10.3634 29.5503L10.279 29.4505L10.1958 29.3498L10.1134 29.2481L10.0322 29.1457L9.95188 29.0423L9.8726 28.9381L9.79435 28.8331L9.71704 28.7273L9.64085 28.6206L9.56579 28.5131L9.49167 28.4047L9.41867 28.2957L9.34675 28.1858L9.27592 28.0752L9.20617 27.9637L9.13754 27.8516L9.07001 27.7386L9.0036 27.6251L8.93832 27.5106L8.87418 27.3957L8.81119 27.2798L8.74935 27.1634L8.68866 27.0463L8.62915 26.9285L8.57081 26.8101L8.51366 26.691L8.45769 26.5713L8.40293 26.4509L8.34936 26.33L8.29702 26.2084L8.24589 26.0862L8.19598 25.9636L8.14731 25.8403L8.09988 25.7165L8.05369 25.5921L8.00874 25.4673L7.96506 25.3418L7.92265 25.2159L7.8815 25.0895L7.84163 24.9626L7.80304 24.8354L7.76573 24.7076L7.72972 24.5794L7.695 24.4507L7.66159 24.3216L7.62949 24.1922L7.59868 24.0623L7.56921 23.932L7.54105 23.8014L7.51422 23.6705L7.48872 23.5392L7.46456 23.4075L7.44173 23.2756L7.42025 23.1433L7.40011 23.0108L7.38132 22.8781L7.36389 22.745L7.34782 22.6116L7.33311 22.4781L7.31975 22.3444L7.30777 22.2104L7.29716 22.0762L7.28792 21.9419L7.28005 21.8073L7.27356 21.6727L7.26846 21.5379L7.26474 21.403L7.26239 21.2679L7.26144 21.1327L7.26188 20.9975L7.2637 20.8621L7.26692 20.7268L7.27152 20.5914L7.27753 20.4559L7.28493 20.3205L7.29372 20.185L7.30392 20.0496L7.3155 19.9141L7.32849 19.7788L7.34288 19.6433L7.35866 19.5081L7.37585 19.3729L7.39443 19.2378L7.41441 19.1027L7.4358 18.9679L7.45857 18.8331L7.48274 18.6986L7.50832 18.5641L7.53529 18.4298L7.56364 18.2958L7.59341 18.1619L7.62456 18.0282L7.65709 17.8948L7.69102 17.7616L7.72634 17.6288L7.76303 17.4961L7.80112 17.3637L7.84059 17.2317L7.88143 17.0999L7.92365 16.9685L7.96725 16.8375L8.01221 16.7067L8.05855 16.5764L8.10625 16.4464L8.15531 16.3168L8.20572 16.1877L8.2575 16.0589L8.31062 15.9306L8.3651 15.8028L8.42091 15.6754L8.47807 15.5485L8.53656 15.4221L8.59638 15.2961L8.65753 15.1707L8.72001 15.0459L8.7838 14.9215L8.8489 14.7978L8.9153 14.6746L8.98302 14.552L9.05202 14.43L9.12232 14.3086L9.1939 14.1879L9.26677 14.0677L9.34091 13.9483L9.41632 13.8294L9.49298 13.7113L9.57095 13.5939L9.65004 13.4771L9.73054 13.3611L9.81216 13.2457L9.895 13.1311L9.97915 13.0173L10.0644 12.9042L10.151 12.792L10.2387 12.6805L10.3277 12.5698L10.4177 12.46L10.509 12.3509L10.6015 12.2426L10.6951 12.1352L10.7898 12.0288L10.8858 11.9232L10.9828 11.8184L11.081 11.7146L11.1803 11.6116L11.2807 11.5096L11.3822 11.4085L11.4848 11.3083L11.5885 11.2092L11.6933 11.1109L11.7991 11.0137L11.906 10.9174L12.014 10.8222L12.1229 10.7279L12.2329 10.6347L12.3439 10.5424L12.4559 10.4513L12.5689 10.3611L12.683 10.2721L12.798 10.1841L12.9139 10.0972L13.0308 10.0114L13.1486 9.92667L13.2674 9.84308L13.3871 9.76062L13.5077 9.67928L13.6292 9.59915L13.7517 9.52006L13.8749 9.44219L13.9991 9.36548L14.1241 9.28994L14.2499 9.21559L14.3765 9.14244L14.5041 9.07048L14.6324 8.99974L14.7614 8.93024L14.8913 8.86196L15.0219 8.79492L15.1533 8.72912L15.2854 8.66459L15.4183 8.60131L15.5519 8.53931L15.6862 8.47859L15.8213 8.41915L15.957 8.36101L16.0933 8.30418L16.2303 8.24864L16.3679 8.19443L16.5062 8.14154L16.6451 8.08998L16.7846 8.03976L16.9247 7.99088L17.0654 7.94335L17.2066 7.89718L17.3483 7.85238L17.4906 7.80893L17.6334 7.76687L17.7768 7.72619L17.9206 7.68688L18.0649 7.64898L18.2097 7.61247L18.3549 7.57736L18.5005 7.54367L18.6466 7.51138L18.7931 7.48051L18.94 7.45107L19.0873 7.42306L19.2349 7.39647L19.3828 7.37132L19.5312 7.34761L19.6798 7.32535L19.8287 7.30453L19.9779 7.28516L20.0336 7.27849ZM20.0965 12.5911L20.0536 8.96988L19.9313 8.98697L19.7998 9.00668L19.6683 9.0277L19.5375 9.04992L19.4066 9.07349L19.2764 9.09828L19.1464 9.12434L19.0169 9.15162L18.8877 9.18019L18.7587 9.21003L18.6301 9.24109L18.5021 9.27339L18.3742 9.30697L18.2514 9.34051L18.1205 9.37772L17.994 9.41492L17.8682 9.45334L17.743 9.49289L17.6181 9.53374L17.4936 9.57582L17.3697 9.61902L17.2465 9.66335L17.1237 9.70898L17.0015 9.75565L16.8798 9.80363L16.759 9.85264L16.6382 9.90296L16.5184 9.95432L16.3991 10.0068L16.2806 10.0604L16.1625 10.1152L16.0449 10.1712L15.9285 10.228L15.8122 10.2862L15.6971 10.3454L15.5822 10.4058L15.4684 10.467L15.3549 10.5297L15.2424 10.593L15.1307 10.6576L15.0196 10.7233L14.9093 10.7899L14.7995 10.8578L14.6909 10.9264L14.5828 10.9962L14.4757 11.0669L14.3693 11.1386L14.2637 11.2114L14.1587 11.2853L14.055 11.3598L13.9518 11.4356L13.8495 11.5123L13.7481 11.5898L13.6476 11.6683L13.5478 11.7478L13.4492 11.8282L13.3513 11.9094L13.2542 11.9918L13.1584 12.0747L13.0632 12.1588L12.9689 12.2437L12.8757 12.3293L12.7834 12.4158L12.6919 12.5033L12.6016 12.5914L12.5122 12.6805L12.4237 12.7704L12.3363 12.861L12.2498 12.9526L12.1643 13.0448L12.0799 13.1378L11.9964 13.2316L11.9138 13.3262L11.8327 13.4213L11.7523 13.5174L11.6729 13.6142L11.5946 13.7116L11.5175 13.8096L11.4412 13.9085L11.3662 14.008L11.2921 14.1081L11.2192 14.209L11.1473 14.3105L11.0767 14.4124L11.0071 14.5151L10.9385 14.6185L10.871 14.7224L10.8047 14.8268L10.7396 14.9319L10.6755 15.0377L10.6125 15.1437L10.5508 15.2505L10.4901 15.3578L10.4306 15.4653L10.3723 15.5737L10.3149 15.6826L10.259 15.7916L10.2041 15.9015L10.1504 16.0117L10.0978 16.1222L10.0464 16.2333L9.99621 16.3447L9.9472 16.4566L9.89931 16.5689L9.85273 16.6815L9.80728 16.7945L9.76296 16.908L9.71985 17.0218L9.67806 17.1358L9.63729 17.2504L9.59794 17.365L9.55961 17.48L9.52259 17.5954L9.4867 17.711L9.45212 17.8269L9.41867 17.943L9.38652 18.0593L9.35552 18.1759L9.32575 18.2927L9.29722 18.4097L9.26991 18.527L9.24381 18.6443L9.21893 18.7619L9.19531 18.8796L9.17288 18.9974L9.15168 19.1155L9.13173 19.2336L9.11298 19.3518L9.09549 19.47L9.07919 19.5884L9.06414 19.7069L9.05031 19.8254L9.0377 19.944L9.02633 20.0626L9.01618 20.1812L9.00726 20.2998L8.99956 20.4185L8.99307 20.5372L8.98781 20.6557L8.98378 20.7742L8.98096 20.8927L8.97937 21.0111L8.97899 21.1296L8.97982 21.2479L8.98187 21.366L8.98513 21.4841L8.98959 21.602L8.99527 21.7199L9.00215 21.8376L9.01023 21.955L9.01952 22.0724L9.02999 22.1896L9.04167 22.3065L9.05453 22.4233L9.06858 22.5399L9.08383 22.6562L9.10025 22.7723L9.11786 22.8882L9.13663 23.0036L9.15658 23.119L9.1777 23.2341L9.19997 23.3487L9.22342 23.4632L9.24801 23.5772L9.27377 23.6911L9.30065 23.8044L9.3287 23.9175L9.35789 24.0302L9.38821 24.1426L9.4196 24.2545L9.45222 24.3661L9.48586 24.4772L9.52072 24.588L9.55661 24.6984L9.59363 24.8082L9.63176 24.9176L9.67094 25.0266L9.71123 25.1351L9.75265 25.2431L9.7951 25.3506L9.83858 25.4576L9.88319 25.5642L9.92883 25.6702L9.97559 25.7756L10.0233 25.8805L10.0721 25.9848L10.122 26.0887L10.1728 26.1919L10.2247 26.2946L10.2775 26.3967L10.3314 26.4982L10.3863 26.599L10.4422 26.6993L10.4991 26.7989L10.5569 26.8979L10.6157 26.9962L10.6755 27.0939L10.7362 27.1909L10.7979 27.2872L10.8606 27.383L10.924 27.4778L10.9886 27.5722L11.0539 27.6657L11.1203 27.7586L11.1875 27.8507L11.2556 27.9421L11.3246 28.0327L11.3945 28.1227L11.4651 28.2118L11.5367 28.3002L11.6092 28.3878L11.6824 28.4746L11.7566 28.5606L11.8315 28.6459L11.9072 28.7303L11.9838 28.814L12.0611 28.8967L12.1393 28.9787L12.2182 29.0599L12.2979 29.1402L12.3783 29.2196L12.4596 29.2983L12.5416 29.376L12.6241 29.4529L12.7076 29.529L12.7917 29.604L12.8765 29.6783L12.9621 29.7516L13.0483 29.8241L13.1351 29.8957L13.2227 29.9662L13.3108 30.036L13.3997 30.1047L13.4892 30.1727L13.5793 30.2396L13.6699 30.3056L13.7612 30.3706L13.8532 30.4347L13.9456 30.4979L14.0388 30.5601L14.1324 30.6213L14.2266 30.6815L14.3213 30.7408L14.4165 30.7991L14.5123 30.8565L14.6086 30.9128L14.7054 30.9681L14.8027 31.0224L14.9004 31.0758L14.9987 31.1282L15.0973 31.1795L15.1964 31.2297L15.296 31.2791L15.3961 31.3274L15.4965 31.3747L15.5972 31.4209L15.6985 31.4662L15.8 31.5103L15.9019 31.5534L16.0043 31.5956L16.107 31.6366L16.2099 31.6766L16.3132 31.7156L16.4169 31.7536L16.5208 31.7905L16.625 31.8263L16.7296 31.8612L16.8344 31.8948L16.9394 31.9275L17.0447 31.9591L17.1503 31.9896L17.256 32.0192L17.362 32.0475L17.4681 32.075L17.5745 32.1012L17.681 32.1265L17.7878 32.1506L17.8947 32.1738L18.0017 32.1958L18.1088 32.2167L18.2162 32.2366L18.3235 32.2554L18.4311 32.2732L18.5387 32.2898L18.6464 32.3054L18.7541 32.32L18.8619 32.3335L18.9698 32.3458L19.0776 32.3572L19.1856 32.3674L19.2935 32.3766L19.4015 32.3846L19.5094 32.3918L19.6173 32.3977L19.7252 32.4026L19.8331 32.4065L19.9409 32.4093L20.0486 32.411L20.1562 32.4116L20.2638 32.4112L20.3713 32.4097L20.4787 32.4073L20.5859 32.4037L20.6931 32.3992L20.8 32.3934L20.9068 32.3868L21.0135 32.379L21.12 32.3702L21.2263 32.3604L21.3325 32.3495L21.4385 32.3376L21.5442 32.3247L21.6497 32.3107L21.7549 32.2958L21.86 32.2798L21.9647 32.2627L22.0691 32.2447L22.1734 32.2256L22.2774 32.2055L22.381 32.1846L22.4845 32.1624L22.5874 32.1394L22.6901 32.1154L22.7924 32.0903L22.8945 32.0643L22.9961 32.0373L23.0974 32.0093L23.1984 31.9804L23.2989 31.9505L23.399 31.9196L23.4987 31.8878L23.5981 31.855L23.697 31.8212L23.7955 31.7866L23.8935 31.751L23.9911 31.7144L24.0881 31.6769L24.1848 31.6385L24.281 31.5991L24.3767 31.5589L24.4718 31.5178L24.5665 31.4758L24.6606 31.4329L24.7543 31.389L24.8475 31.3443L24.9399 31.2989L25.0321 31.2523L25.1235 31.2051L25.2144 31.1568L25.3046 31.1079L25.3944 31.0581L25.4836 31.0074L25.572 30.9558L25.66 30.9034L25.7474 30.8503L25.834 30.7963L25.9202 30.7415L26.0055 30.686L26.0903 30.6296L26.1745 30.5724L26.2579 30.5144L26.3406 30.4559L26.4228 30.3963L26.5042 30.3362L26.585 30.2752L26.6651 30.2134L26.7442 30.1511L26.823 30.0879L26.901 30.024L26.9779 29.9595L27.0546 29.894L27.1302 29.8281L27.205 29.7616L27.2795 29.694L27.3527 29.6262L27.4255 29.5575L27.4974 29.4881L27.5685 29.4182L27.6388 29.3476L27.7085 29.2763L27.7772 29.2045L27.8451 29.132L27.9123 29.0589L27.9787 28.9853L28.0441 28.9111L28.109 28.8362L28.1728 28.7608L28.2358 28.6849L28.2981 28.6083L28.3594 28.5314L28.4199 28.4537L28.4796 28.3757L28.5385 28.297L28.5964 28.2179L28.6533 28.1384L28.7097 28.0581L28.765 27.9776L28.8194 27.8965L28.8731 27.8149L28.9256 27.7331L28.9775 27.6506L29.0284 27.5677L29.0784 27.4845L29.1274 27.4008L29.1758 27.3166L29.2229 27.2323L29.2694 27.1472L29.3149 27.062L29.3593 26.9765L29.403 26.8903L29.4456 26.8043L29.4875 26.7173L29.5281 26.6306L29.5682 26.543L29.607 26.4556L29.6452 26.3674L29.6823 26.2793L29.7184 26.1908L29.7536 26.102L29.7879 26.0129L29.8211 25.9237L29.8536 25.8341L29.8849 25.7443L29.9153 25.6543L29.9449 25.5641L29.9735 25.4736L30.0011 25.3829L30.0277 25.2922L30.0534 25.2011L30.078 25.1101L30.1018 25.0187L30.1246 24.9272L30.1464 24.8358L30.1673 24.7438L30.1872 24.652L30.2062 24.5601L30.2241 24.4681L30.2412 24.376L30.2572 24.2835L30.2723 24.1914L30.2864 24.099L30.2996 24.0065L30.3117 23.9142L30.323 23.8217L30.3333 23.7289L30.3426 23.6368L30.351 23.544L30.3584 23.4515L30.3648 23.3592L30.3703 23.2666L30.3748 23.1742L30.3784 23.0819L30.381 22.9893L30.3826 22.8973L30.3833 22.8049L30.3831 22.7127L30.3819 22.6206L30.3798 22.5289L30.3767 22.437L30.3727 22.3452L30.3677 22.2538L30.3618 22.1622L30.3549 22.0708L30.3473 21.9799L30.3385 21.8887L30.3289 21.7981L30.3183 21.7073L30.3069 21.617L30.2945 21.5267L30.2812 21.4366L30.267 21.3468L30.2519 21.2573L30.2358 21.168L30.2189 21.079L30.201 20.9899L30.1822 20.9014L30.1627 20.8132L30.1421 20.7251L30.1207 20.6372L30.0985 20.5501L30.0752 20.4627L30.0512 20.376L30.0263 20.2894L30.0005 20.2034L29.9739 20.1174L29.9464 20.0319L29.9181 19.9469L29.8889 19.8622L29.8587 19.7775L29.828 19.6937L29.7962 19.61L29.7637 19.5269L29.7304 19.4439L29.6962 19.3614L29.6612 19.2796L29.6253 19.1978L29.5888 19.1168L29.5514 19.0362L29.5131 18.9558L29.4741 18.8759L29.4344 18.7967L29.3938 18.7177L29.3525 18.6394L29.3104 18.5616L29.2675 18.484L29.224 18.4072L29.1796 18.3307L29.1346 18.2549L29.0886 18.1794L29.0422 18.1047L28.9948 18.0302L28.9469 17.9566L28.8982 17.8834L28.8488 17.8107L28.7986 17.7385L28.7478 17.667L28.6965 17.5961L28.6442 17.5256L28.5914 17.4559L28.5378 17.3866L28.4838 17.3181L28.4289 17.25L28.3734 17.1826L28.3173 17.1158L28.2606 17.0495L28.2034 16.9841L28.1453 16.9191L28.0868 16.8549L28.0275 16.7912L27.9679 16.7284L27.9074 16.6659L27.8466 16.6043L27.7849 16.5431L27.7229 16.4829L27.6604 16.4233L27.5972 16.3642L27.5334 16.3058L27.4691 16.2483L27.4044 16.1914L27.3389 16.135L27.2734 16.0797L27.2069 16.0247L27.1401 15.9706L27.0728 15.9173L27.005 15.8645L26.9368 15.8125L26.8683 15.7615L26.7989 15.7109L26.7291 15.6609L26.6593 15.6121L26.5885 15.5637L26.5179 15.5163L26.4466 15.4695L26.3748 15.4234L26.3025 15.378L26.2302 15.3336L26.1571 15.2897L26.0839 15.2468L26.01 15.2045L25.9363 15.1631L25.8619 15.1225L25.7871 15.0824L25.7121 15.0433L25.6368 15.005L25.5611 14.9674L25.485 14.9305L25.4088 14.8946L25.3324 14.8594L25.2552 14.8248L25.1784 14.7913L25.101 14.7585L25.0232 14.7263L24.9453 14.6951L24.8673 14.6648L24.789 14.6352L24.7102 14.6062L24.6316 14.5783L24.5525 14.551L24.4732 14.5246L24.394 14.499L24.3144 14.4743L24.2349 14.4503L24.1547 14.427L24.0747 14.4047L23.9946 14.3832L23.9143 14.3625L23.8339 14.3425L23.7531 14.3234L23.6725 14.3051L23.5919 14.2877L23.511 14.271L23.4298 14.2551L23.3491 14.2402L23.2679 14.2259L23.1868 14.2125L23.1054 14.1999L23.0244 14.1882L22.9428 14.1771L22.8617 14.1671L22.7804 14.1577L22.6991 14.1492L22.6178 14.1415L22.5364 14.1346L22.4553 14.1285L22.3738 14.1232L22.2926 14.1187L22.2117 14.1151L22.1301 14.1122L22.0493 14.1101L21.9683 14.1089L21.8874 14.1084L21.8321 14.1086L21.874 17.6466L21.8991 17.6467L21.9455 17.6473L21.9921 17.6484L22.0388 17.6499L22.0854 17.6521L22.1322 17.6546L22.179 17.6576L22.2258 17.6612L22.2727 17.6652L22.3196 17.6697L22.3666 17.6747L22.4135 17.6801L22.4606 17.6861L22.5075 17.6926L22.5546 17.6995L22.6016 17.707L22.6486 17.715L22.6956 17.7234L22.7426 17.7324L22.7896 17.7418L22.8365 17.7518L22.8835 17.7622L22.9304 17.7732L22.9772 17.7846L23.0241 17.7965L23.0708 17.809L23.1175 17.8219L23.1642 17.8353L23.2107 17.8493L23.2572 17.8637L23.3036 17.8787L23.35 17.8941L23.3962 17.9101L23.4424 17.9265L23.4884 17.9434L23.5343 17.9609L23.5801 17.9788L23.6259 17.9972L23.6714 18.0162L23.7169 18.0356L23.7622 18.0555L23.8074 18.0759L23.8525 18.0968L23.8973 18.1183L23.942 18.1401L23.9867 18.1625L24.031 18.1855L24.0752 18.2088L24.1193 18.2327L24.1631 18.2571L24.2068 18.2819L24.2503 18.3072L24.2935 18.333L24.3366 18.3593L24.3794 18.3861L24.422 18.4134L24.4644 18.441L24.5066 18.4692L24.5485 18.498L24.5902 18.5272L24.6317 18.5568L24.6729 18.5869L24.7138 18.6174L24.7545 18.6484L24.7949 18.6799L24.8351 18.7119L24.8749 18.7443L24.9145 18.7771L24.9538 18.8104L24.9928 18.8442L25.0315 18.8784L25.0699 18.9131L25.108 18.9482L25.1458 18.9837L25.1831 19.0197L25.2204 19.0562L25.2571 19.093L25.2935 19.1303L25.3297 19.168L25.3654 19.2061L25.4008 19.2447L25.4359 19.2837L25.4707 19.323L25.5049 19.3629L25.5389 19.4031L25.5725 19.4436L25.6057 19.4847L25.6385 19.5261L25.6709 19.5679L25.703 19.6102L25.7346 19.6527L25.7658 19.6957L25.7966 19.739L25.827 19.7828L25.857 19.8269L25.8865 19.8714L25.9157 19.9162L25.9445 19.9615L25.9727 20.007L26.0005 20.053L26.0279 20.0992L26.0548 20.1458L26.0813 20.1928L26.1072 20.2401L26.1328 20.2877L26.1579 20.3357L26.1825 20.3839L26.2067 20.4325L26.2303 20.4814L26.2534 20.5307L26.2761 20.5802L26.2983 20.63L26.32 20.6802L26.3412 20.7306L26.3619 20.7813L26.3821 20.8323L26.4018 20.8835L26.421 20.9351L26.4396 20.9869L26.4577 21.039L26.4753 21.0913L26.4924 21.1438L26.5089 21.1967L26.5249 21.2497L26.5404 21.3031L26.5553 21.3567L26.5697 21.4104L26.5836 21.4643L26.5968 21.5186L26.6095 21.573L26.6217 21.6276L26.6333 21.6825L26.6444 21.7375L26.6548 21.7926L26.6647 21.8481L26.6741 21.9036L26.6829 21.9593L26.691 22.0153L26.6986 22.0713L26.7057 22.1275L26.7121 22.1839L26.718 22.2404L26.7233 22.297L26.728 22.3538L26.7321 22.4108L26.7356 22.4678L26.7385 22.525L26.7407 22.5822L26.7425 22.6396L26.7435 22.697L26.7441 22.7545L26.7439 22.8121L26.7432 22.8698L26.7419 22.9276L26.74 22.9854L26.7374 23.0434L26.7342 23.1013L26.7305 23.1593L26.7261 23.2173L26.721 23.2754L26.7154 23.3335L26.7092 23.3916L26.7023 23.4497L26.6948 23.5079L26.6867 23.5661L26.678 23.6242L26.6686 23.6823L26.6586 23.7404L26.648 23.7985L26.6368 23.8566L26.625 23.9146L26.6124 23.9726L26.5993 24.0305L26.5856 24.0884L26.5712 24.1462L26.5562 24.2041L26.5406 24.2617L26.5243 24.3193L26.5075 24.3768L26.4899 24.4342L26.4719 24.4916L26.4531 24.5487L26.4337 24.6059L26.4138 24.6629L26.393 24.7197L26.3718 24.7764L26.3499 24.833L26.3274 24.8895L26.3043 24.9457L26.2806 25.0018L26.2562 25.0578L26.2312 25.1136L26.2056 25.1692L26.1794 25.2246L26.1525 25.2799L26.1251 25.3349L26.097 25.3897L26.0683 25.4443L26.039 25.4987L26.0091 25.5528L25.9787 25.6068L25.9475 25.6605L25.9158 25.714L25.8835 25.7672L25.8506 25.8202L25.8171 25.8729L25.783 25.9252L25.7482 25.9774L25.713 26.0293L25.6771 26.0809L25.6406 26.1322L25.6035 26.1831L25.566 26.2338L25.5277 26.2842L25.4889 26.3342L25.4496 26.384L25.4096 26.4333L25.3692 26.4824L25.3281 26.5311L25.2865 26.5794L25.2442 26.6274L25.2015 26.675L25.1582 26.7223L25.1144 26.7692L25.07 26.8157L25.0251 26.8619L24.9796 26.9076L24.9336 26.9529L24.8871 26.9979L24.84 27.0424L24.7924 27.0864L24.7443 27.1301L24.6957 27.1734L24.6466 27.2162L24.5969 27.2586L24.5468 27.3004L24.4961 27.342L24.4449 27.383L24.3933 27.4235L24.3412 27.4636L24.2886 27.5032L24.2355 27.5424L24.1819 27.581L24.1279 27.6192L24.0734 27.6569L24.0184 27.694L23.963 27.7308L23.9072 27.7668L23.8509 27.8025L23.7941 27.8377L23.7369 27.8723L23.6793 27.9063L23.6213 27.9398L23.5628 27.9728L23.5039 28.0052L23.4446 28.0372L23.3849 28.0685L23.3249 28.0993L23.2643 28.1295L23.2035 28.1592L23.1422 28.1883L23.0806 28.2168L23.0186 28.2447L22.9562 28.2719L22.8935 28.2987L22.8304 28.3249L22.767 28.3504L22.7032 28.3753L22.6391 28.3997L22.5746 28.4234L22.5099 28.4465L22.4448 28.469L22.3794 28.4909L22.3137 28.5121L22.2478 28.5326L22.1815 28.5526L22.1149 28.572L22.0481 28.5907L21.981 28.6087L21.9136 28.6261L21.8459 28.6429L21.778 28.6589L21.7099 28.6743L21.6414 28.6891L21.5728 28.7032L21.504 28.7166L21.4349 28.7293L21.3657 28.7414L21.2961 28.7529L21.2265 28.7636L21.1566 28.7736L21.0866 28.783L21.0163 28.7917L20.9459 28.7996L20.8754 28.8068L20.8046 28.8135L20.7338 28.8193L20.6627 28.8246L20.5915 28.829L20.5203 28.8328L20.4489 28.8359L20.3774 28.8382L20.3057 28.8398L20.234 28.8408L20.1622 28.841L20.0903 28.8406L20.0184 28.8394L19.9463 28.8374L19.8742 28.8348L19.8021 28.8314L19.7298 28.8273L19.6576 28.8225L19.5853 28.817L19.5131 28.8107L19.4407 28.8037L19.3685 28.796L19.2961 28.7874L19.2239 28.7783L19.1516 28.7683L19.0793 28.7577L19.0071 28.7463L18.9349 28.7342L18.8627 28.7214L18.7907 28.7078L18.7186 28.6936L18.6466 28.6785L18.5748 28.6627L18.503 28.6461L18.4313 28.6289L18.3596 28.611L18.2881 28.5922L18.2168 28.5728L18.1455 28.5526L18.0744 28.5317L18.0034 28.5101L17.9326 28.4877L17.8619 28.4646L17.7913 28.4408L17.7211 28.4163L17.6509 28.391L17.5809 28.3649L17.5111 28.3382L17.4415 28.3107L17.3722 28.2825L17.303 28.2537L17.2341 28.2241L17.1654 28.1937L17.0969 28.1627L17.0288 28.1309L16.9608 28.0984L16.8931 28.0652L16.8257 28.0313L16.7587 27.9967L16.6918 27.9614L16.6253 27.9254L16.559 27.8887L16.4932 27.8513L16.4275 27.8131L16.3623 27.7743L16.2973 27.7349L16.2327 27.6947L16.1685 27.6538L16.1045 27.6123L16.041 27.5701L15.9779 27.5271L15.9152 27.4836L15.8527 27.4393L15.7907 27.3944L15.7291 27.3488L15.668 27.3026L15.6072 27.2557L15.5469 27.2081L15.487 27.16L15.4275 27.1112L15.3685 27.0617L15.3099 27.0115L15.2518 26.9607L15.1941 26.9094L15.137 26.8574L15.0803 26.8047L15.0241 26.7515L14.9684 26.6976L14.9131 26.6432L14.8585 26.5881L14.8043 26.5324L14.7506 26.4761L14.6975 26.4193L14.6449 26.3617L14.5929 26.3037L14.5414 26.2452L14.4905 26.1859L14.4401 26.1263L14.3902 26.0659L14.341 26.005L14.2924 25.9436L14.2443 25.8817L14.1968 25.8192L14.1499 25.7561L14.1037 25.6926L14.0581 25.6285L14.013 25.5638L13.9686 25.4987L13.9248 25.4331L13.8817 25.3669L13.8393 25.3003L13.7974 25.2332L13.7563 25.1656L13.7157 25.0975L13.6758 25.029L13.6367 24.9599L13.5982 24.8905L13.5603 24.8206L13.5232 24.7502L13.4867 24.6794L13.4509 24.6081L13.4159 24.5365L13.3816 24.4644L13.348 24.3919L13.3151 24.319L13.2829 24.2458L13.2514 24.172L13.2207 24.098L13.1907 24.0235L13.1615 23.9487L13.133 23.8734L13.1053 23.7979L13.0784 23.722L13.0521 23.6458L13.0266 23.5693L13.002 23.4923L12.9781 23.4151L12.9549 23.3376L12.9325 23.2597L12.911 23.1816L12.8903 23.1031L12.8702 23.0244L12.8511 22.9454L12.8327 22.8662L12.8151 22.7867L12.7983 22.7069L12.7824 22.6269L12.7672 22.5467L12.7529 22.4662L12.7394 22.3855L12.7267 22.3046L12.7148 22.2235L12.7038 22.1422L12.6937 22.0607L12.6843 21.9791L12.6758 21.8972L12.6681 21.8152L12.6612 21.733L12.6552 21.6507L12.6501 21.5683L12.6458 21.4857L12.6423 21.403L12.6397 21.3202L12.638 21.2373L12.6372 21.1543L12.6371 21.0712L12.6379 20.988L12.6397 20.9048L12.6422 20.8215L12.6457 20.7381L12.65 20.6547L12.6552 20.5713L12.6611 20.4878L12.6681 20.4043L12.6759 20.3208L12.6845 20.2373L12.694 20.1538L12.7044 20.0703L12.7157 19.9869L12.7279 19.9035L12.7409 19.8201L12.7549 19.7368L12.7696 19.6535L12.7852 19.5703L12.8018 19.4871L12.8192 19.4041L12.8375 19.3212L12.8566 19.2383L12.8767 19.1557L12.8976 19.073L12.9194 18.9906L12.9421 18.9083L12.9656 18.8261L12.99 18.744L13.0153 18.6622L13.0414 18.5805L13.0684 18.499L13.0963 18.4177L13.1251 18.3366L13.1547 18.2557L13.1852 18.175L13.2166 18.0946L13.2488 18.0144L13.2819 17.9343L13.3158 17.8547L13.3506 17.7752L13.3863 17.696L13.4227 17.6171L13.4601 17.5385L13.4983 17.4603L13.5373 17.3822L13.5772 17.3045L13.6179 17.2272L13.6594 17.1502L13.7019 17.0735L13.7451 16.9971L13.7891 16.9211L13.834 16.8456L13.8798 16.7704L13.9262 16.6955L13.9737 16.6211L14.0218 16.547L14.0707 16.4733L14.1205 16.4001L14.1711 16.3273L14.2225 16.255L14.2747 16.1831L14.3276 16.1116L14.3813 16.0405L14.4358 15.9701L14.4911 15.9L14.5473 15.8304L14.6041 15.7613L14.6617 15.6928L14.7201 15.6247L14.7792 15.5571L14.8391 15.4901L14.8997 15.4236L14.9611 15.3577L15.0232 15.2923L15.0861 15.2274L15.1496 15.1631L15.2139 15.0994L15.279 15.0362L15.3447 14.9737L15.4111 14.9118L15.4782 14.8504L15.5459 14.7897L15.6144 14.7295L15.6837 14.6701L15.7535 14.6112L15.8241 14.553L15.8952 14.4954L15.9671 14.4385L16.0395 14.3822L16.1127 14.3267L16.1865 14.2718L16.2609 14.2175L16.3359 14.164L16.4115 14.1111L16.4878 14.0589L16.5648 14.0075L16.6422 13.9568L16.7202 13.9068L16.7989 13.8576L16.8781 13.809L16.958 13.7612L17.0383 13.7142L17.1192 13.6679L17.2007 13.6223L17.2827 13.5775L17.3652 13.5336L17.4483 13.4904L17.5319 13.4479L17.6159 13.4063L17.7005 13.3655L17.7856 13.3255L17.8712 13.2862L17.9572 13.2478L18.0437 13.2102L18.1308 13.1734L18.2182 13.1374L18.306 13.1023L18.3944 13.068L18.4831 13.0346L18.5722 13.002L18.6618 12.9703L18.7519 12.9394L18.8422 12.9094L18.933 12.8802L19.0241 12.8519L19.1157 12.8246L19.2075 12.7981L19.2997 12.7725L19.3923 12.7477L19.4852 12.7238L19.5784 12.7009L19.6719 12.6789L19.7658 12.6578L19.8599 12.6375L19.9544 12.6182L20.049 12.5999L20.0965 12.5911ZM21.2603 19.3947L20.1802 19.6528L20.1168 14.3024L20.0659 14.3138L19.9892 14.3319L19.9127 14.3508L19.8367 14.3702L19.7608 14.3905L19.6853 14.4115L19.6099 14.4333L19.5352 14.4556L19.4603 14.4789L19.3864 14.5026L19.3123 14.5272L19.2386 14.5525L19.1653 14.5785L19.0923 14.6051L19.02 14.6324L18.9477 14.6605L18.8759 14.6891L18.8044 14.7185L18.7331 14.7486L18.6628 14.7792L18.5924 14.8107L18.5227 14.8426L18.453 14.8754L18.3841 14.9087L18.3153 14.9427L18.2472 14.9773L18.1795 15.0125L18.1122 15.0484L18.0454 15.0849L17.979 15.122L17.913 15.1598L17.8478 15.198L17.7824 15.2371L17.718 15.2765L17.6541 15.3166L17.5905 15.3573L17.5274 15.3986L17.4649 15.4405L17.4028 15.483L17.3413 15.5259L17.2803 15.5694L17.2197 15.6135L17.1597 15.6582L17.1003 15.7034L17.0414 15.7491L16.9831 15.7952L16.9254 15.842L16.868 15.8893L16.8112 15.9372L16.7552 15.9854L16.6996 16.0342L16.6446 16.0834L16.5902 16.1331L16.5363 16.1835L16.483 16.2342L16.4304 16.2852L16.3782 16.337L16.3267 16.389L16.2759 16.4415L16.2256 16.4944L16.1758 16.548L16.1268 16.6017L16.0783 16.6559L16.0304 16.7107L15.9833 16.7656L15.9366 16.8212L15.8908 16.8768L15.8453 16.9332L15.8007 16.9897L15.7566 17.0468L15.7132 17.1043L15.6705 17.1619L15.6283 17.2199L15.5869 17.2783L15.546 17.3371L15.5058 17.3962L15.4664 17.4557L15.4276 17.5153L15.3894 17.5752L15.3519 17.6357L15.3151 17.6962L15.2789 17.7573L15.2434 17.8183L15.2086 17.8799L15.1744 17.9417L15.141 18.0036L15.1082 18.0658L15.0762 18.1283L15.0447 18.1912L15.014 18.254L14.984 18.3173L14.9546 18.3807L14.926 18.4443L14.898 18.5081L14.8708 18.5722L14.8442 18.6363L14.8184 18.7008L14.7933 18.7654L14.7687 18.8301L14.745 18.8949L14.7219 18.96L14.6995 19.0252L14.6779 19.0905L14.6569 19.156L14.6367 19.2216L14.6171 19.2873L14.5983 19.353L14.5802 19.419L14.5626 19.4851L14.546 19.5511L14.5299 19.6173L14.5146 19.6835L14.4999 19.7499L14.4861 19.8163L14.4729 19.8827L14.4603 19.9491L14.4485 20.0158L14.4374 20.0822L14.427 20.1487L14.4173 20.2155L14.4083 20.2819L14.4 20.3486L14.3925 20.4151L14.3855 20.4817L14.3793 20.5484L14.3738 20.6148L14.369 20.6814L14.3649 20.7479L14.3614 20.8143L14.3587 20.8806L14.3567 20.9469L14.3553 21.0132L14.3546 21.0794L14.3547 21.1454L14.3553 21.2114L14.3568 21.2774L14.3588 21.3432L14.3615 21.4089L14.3649 21.4745L14.369 21.5399L14.3738 21.6052L14.3792 21.6704L14.3853 21.7354L14.3921 21.8005L14.3995 21.865L14.4075 21.9298L14.4163 21.9941L14.4257 22.0585L14.4358 22.1225L14.4464 22.1864L14.4578 22.2502L14.4698 22.3136L14.4824 22.377L14.4956 22.44L14.5096 22.5029L14.5241 22.5655L14.5393 22.628L14.555 22.6901L14.5715 22.7522L14.5885 22.8138L14.6061 22.8753L14.6244 22.9364L14.6432 22.9974L14.6627 23.0581L14.6828 23.1183L14.7035 23.1786L14.7248 23.2384L14.7466 23.2978L14.769 23.3571L14.792 23.416L14.8157 23.4746L14.8398 23.5329L14.8645 23.5908L14.8899 23.6485L14.9157 23.7059L14.9422 23.7629L14.9692 23.8195L14.9966 23.8757L15.0248 23.9318L15.0533 23.9873L15.0824 24.0425L15.1122 24.0974L15.1424 24.1519L15.1732 24.206L15.2044 24.2598L15.2361 24.313L15.2685 24.3661L15.3012 24.4187L15.3344 24.4708L15.3683 24.5226L15.4025 24.5739L15.4372 24.625L15.4724 24.6753L15.5081 24.7256L15.5443 24.7752L15.5808 24.8244L15.618 24.8733L15.6555 24.9217L15.6934 24.9696L15.7319 25.0171L15.7708 25.0642L15.8099 25.1107L15.8498 25.1569L15.8899 25.2026L15.9303 25.2478L15.9715 25.2926L16.0127 25.3367L16.0545 25.3807L16.0967 25.424L16.1391 25.4668L16.1821 25.5092L16.2254 25.5511L16.2691 25.5925L16.3132 25.6333L16.3576 25.6737L16.4024 25.7136L16.4474 25.753L16.4929 25.7919L16.5386 25.8303L16.5847 25.8682L16.6312 25.9056L16.6781 25.9424L16.725 25.9787L16.7724 26.0145L16.8201 26.0498L16.8681 26.0846L16.9164 26.1188L16.9649 26.1525L17.0137 26.1857L17.0628 26.2183L17.1121 26.2503L17.1617 26.2819L17.2117 26.313L17.2618 26.3434L17.3121 26.3734L17.3628 26.4028L17.4135 26.4316L17.4645 26.4599L17.5159 26.4877L17.5674 26.5149L17.619 26.5415L17.6708 26.5675L17.723 26.5931L17.7751 26.618L17.8277 26.6425L17.8803 26.6664L17.9329 26.6896L17.986 26.7124L18.0391 26.7346L18.0922 26.7563L18.1457 26.7774L18.1992 26.7978L18.253 26.8177L18.3066 26.8371L18.3606 26.856L18.4145 26.8742L18.4686 26.8919L18.5228 26.909L18.5772 26.9256L18.6316 26.9415L18.686 26.957L18.7406 26.9718L18.7953 26.9861L18.8499 26.9998L18.9046 27.013L18.9594 27.0256L19.0142 27.0376L19.0691 27.0491L19.124 27.06L19.1789 27.0704L19.2338 27.0801L19.2888 27.0894L19.3438 27.098L19.3989 27.1062L19.4537 27.1137L19.5087 27.1206L19.5636 27.1271L19.6186 27.133L19.6735 27.1382L19.7284 27.143L19.7833 27.1472L19.838 27.1509L19.8928 27.154L19.9474 27.1565L20.002 27.1586L20.0567 27.16L20.1111 27.1609L20.1654 27.1613L20.2198 27.1611L20.2739 27.1604L20.3282 27.1591L20.3823 27.1574L20.436 27.1551L20.4898 27.1522L20.5437 27.1488L20.5971 27.1449L20.6506 27.1405L20.7039 27.1355L20.7571 27.1301L20.8101 27.124L20.8629 27.1175L20.9158 27.1105L20.9682 27.1029L21.0205 27.0948L21.0729 27.0863L21.1249 27.0772L21.1767 27.0677L21.2285 27.0576L21.28 27.047L21.3312 27.0359L21.3821 27.0244L21.4331 27.0123L21.4838 26.9997L21.5342 26.9868L21.5845 26.9733L21.6344 26.9593L21.6844 26.9448L21.7338 26.9299L21.7829 26.9145L21.8322 26.8986L21.881 26.8823L21.9295 26.8656L21.9778 26.8484L22.0258 26.8307L22.0736 26.8125L22.1212 26.7939L22.1683 26.7749L22.2152 26.7555L22.2619 26.7356L22.3084 26.7152L22.3543 26.6945L22.4002 26.6733L22.4457 26.6518L22.4907 26.6298L22.5357 26.6074L22.5801 26.5846L22.6245 26.5613L22.6684 26.5376L22.712 26.5137L22.7552 26.4893L22.7982 26.4645L22.8408 26.4392L22.883 26.4137L22.9249 26.3877L22.9665 26.3614L23.0077 26.3348L23.0487 26.3077L23.0892 26.2803L23.1294 26.2525L23.1692 26.2244L23.2086 26.196L23.2476 26.1671L23.2863 26.138L23.3247 26.1084L23.3626 26.0786L23.4003 26.0485L23.4374 26.0181L23.4742 25.9874L23.5106 25.9563L23.5466 25.9249L23.5823 25.8932L23.6175 25.8611L23.6524 25.8289L23.6867 25.7964L23.7208 25.7635L23.7544 25.7303L23.7877 25.697L23.8205 25.6633L23.8528 25.6293L23.8848 25.5952L23.9165 25.5606L23.9475 25.526L23.9783 25.491L24.0086 25.4558L24.0384 25.4204L24.068 25.3846L24.0969 25.3488L24.1255 25.3127L24.1537 25.2764L24.1814 25.2398L24.2087 25.203L24.2355 25.1662L24.262 25.1289L24.288 25.0915L24.3135 25.0541L24.3386 25.0162L24.3634 24.9784L24.3875 24.9403L24.4113 24.9021L24.4346 24.8637L24.4575 24.8251L24.4799 24.7864L24.5019 24.7475L24.5234 24.7085L24.5445 24.6692L24.5651 24.6301L24.5853 24.5906L24.605 24.5511L24.6244 24.5114L24.6432 24.4715L24.6616 24.4317L24.6795 24.3917L24.6969 24.3517L24.7139 24.3114L24.7304 24.2712L24.7466 24.2306L24.7622 24.1904L24.7775 24.1495L24.7921 24.1093L24.8064 24.0685L24.8203 24.0276L24.8336 23.9869L24.8465 23.9461L24.859 23.9053L24.8711 23.8641L24.8825 23.8234L24.8938 23.7821L24.9044 23.7414L24.9146 23.7002L24.9243 23.6589L24.9336 23.618L24.9424 23.5771L24.9508 23.5357L24.9588 23.4948L24.9663 23.4534L24.9733 23.4126L24.98 23.3715L24.9862 23.3304L24.9919 23.2893L24.9971 23.2482L25.002 23.2074L25.0064 23.1666L25.0103 23.1254L25.0139 23.0847L25.017 23.0438L25.0196 23.0031L25.0219 22.9624L25.0237 22.9218L25.025 22.8814L25.0259 22.8408L25.0265 22.8002L25.0266 22.76L25.0262 22.7198L25.0254 22.6797L25.0242 22.6397L25.0226 22.5994L25.0206 22.56L25.0181 22.5197L25.0153 22.4804L25.012 22.441L25.0084 22.4013L25.0043 22.362L24.9998 22.3231L24.9949 22.2836L24.9896 22.245L24.9839 22.2061L24.9779 22.1678L24.9714 22.1291L24.9645 22.0907L24.9573 22.0526L24.9497 22.0147L24.9417 21.9766L24.9332 21.9391L24.9245 21.9015L24.9153 21.8642L24.9059 21.8272L24.8958 21.7899L24.8857 21.7533L24.875 21.7164L24.8641 21.6801L24.8527 21.6439L24.841 21.6079L24.8289 21.572L24.8165 21.5362L24.8038 21.501L24.7907 21.4658L24.7772 21.4306L24.7634 21.3959L24.7493 21.3611L24.7349 21.327L24.72 21.2927L24.705 21.2588L24.6896 21.2253L24.6738 21.1917L24.6578 21.1586L24.6414 21.1256L24.6247 21.0928L24.6078 21.0603L24.5904 21.0281L24.5729 20.9962L24.555 20.9644L24.5367 20.9329L24.5184 20.9017L24.4996 20.8708L24.4805 20.8399L24.4612 20.8097L24.4416 20.7795L24.4217 20.7496L24.4016 20.7199L24.3813 20.6907L24.3606 20.6615L24.3397 20.6327L24.3185 20.6043L24.297 20.576L24.2755 20.5481L24.2534 20.5204L24.2313 20.4931L24.2089 20.466L24.1863 20.4392L24.1635 20.4127L24.1405 20.3866L24.1172 20.3607L24.0937 20.3351L24.07 20.3097L24.0461 20.2848L24.0219 20.2602L23.9975 20.2357L23.9731 20.2117L23.9483 20.188L23.9235 20.1646L23.8982 20.1413L23.8731 20.1186L23.8476 20.096L23.822 20.0739L23.7961 20.0519L23.7702 20.0305L23.744 20.0092L23.7178 19.9883L23.6914 19.9677L23.6648 19.9473L23.638 19.9275L23.6112 19.9078L23.5841 19.8885L23.557 19.8696L23.5297 19.8508L23.5024 19.8326L23.4748 19.8146L23.4471 19.7968L23.4194 19.7795L23.3914 19.7625L23.3635 19.7458L23.3355 19.7295L23.3072 19.7134L23.2789 19.6977L23.2506 19.6823L23.2222 19.6672L23.1936 19.6525L23.1651 19.6382L23.1362 19.624L23.1075 19.6104L23.0787 19.5971L23.0498 19.5839L23.0209 19.5712L22.9917 19.5587L22.9629 19.5467L22.9336 19.535L22.9044 19.5236L22.8752 19.5125L22.846 19.5018L22.8168 19.4913L22.7874 19.4812L22.7581 19.4714L22.7289 19.462L22.6994 19.4528L22.67 19.444L22.6408 19.4356L22.6112 19.4274L22.5819 19.4197L22.5525 19.4122L22.5231 19.4049L22.4937 19.3981L22.4643 19.3915L22.4349 19.3854L22.4056 19.3795L22.3763 19.3738L22.3471 19.3686L22.3177 19.3636L22.2886 19.359L22.2592 19.3547L22.2302 19.3507L22.201 19.3469L22.1719 19.3436L22.1431 19.3405L22.114 19.3378L22.0852 19.3352L22.0563 19.3331L22.0275 19.3312L21.9988 19.3296L21.9701 19.3284L21.9417 19.3274L21.9131 19.3267L21.8847 19.3263L21.8563 19.3262L21.8281 19.3265L21.7999 19.327L21.7719 19.3277L21.7439 19.3289L21.7161 19.3302L21.6882 19.3319L21.6607 19.3337L21.6331 19.3359L21.6056 19.3384L21.5784 19.3411L21.551 19.3441L21.524 19.3474L21.497 19.351L21.4702 19.3548L21.4434 19.3589L21.4169 19.3632L21.3904 19.3678L21.3643 19.3727L21.3379 19.3779L21.312 19.3832L21.286 19.3888L21.2603 19.3947Z" fill="#263238"/>
</svg>
