<svg width="117" height="30" viewBox="0 0 117 30" fill="none" xmlns="http://www.w3.org/2000/svg">
<path d="M44.5099 2.13715C42.0173 2.13715 39.5806 2.8763 37.5082 4.26112C35.4356 5.64594 33.8203 7.61423 32.8664 9.91708C31.9125 12.22 31.6631 14.754 32.1493 17.1986C32.6356 19.6434 33.8358 21.8889 35.5984 23.6515C37.3609 25.4141 39.6065 26.6144 42.0512 27.1007C44.496 27.5869 47.0299 27.3375 49.3328 26.3835C51.6358 25.4296 53.604 23.8143 54.9889 21.7417C56.3736 19.6692 57.1128 17.2325 57.1128 14.74C57.1089 11.3986 55.7798 8.1954 53.4171 5.83275C51.0545 3.4701 47.8513 2.14105 44.5099 2.13715ZM44.5099 22.4914C42.9769 22.4914 41.4783 22.0367 40.2035 21.185C38.9289 20.3333 37.9353 19.1228 37.3486 17.7063C36.762 16.29 36.6085 14.7314 36.9075 13.2277C37.2066 11.7241 37.9449 10.343 39.0289 9.25893C40.1129 8.17491 41.4941 7.43666 42.9978 7.13757C44.5014 6.83848 46.0599 6.99199 47.4763 7.57867C48.8926 8.16535 50.1033 9.15886 50.955 10.4336C51.8068 11.7082 52.2613 13.2069 52.2613 14.74C52.2582 16.7948 51.4405 18.7647 49.9876 20.2176C48.5345 21.6706 46.5647 22.4882 44.5099 22.4914ZM102.212 2.13715C99.719 2.13696 97.2823 2.87593 95.2094 4.26064C93.1366 5.64534 91.5216 7.61356 90.5676 9.91643C89.6136 12.2192 89.3638 14.7533 89.85 17.1981C90.3362 19.6428 91.5364 21.8886 93.2988 23.6512C95.0611 25.4139 97.3072 26.6143 99.7522 27.1006C102.196 27.5869 104.731 27.3375 107.034 26.3836C109.336 25.4297 111.305 23.8144 112.689 21.7418C114.075 19.6693 114.814 17.2326 114.814 14.74C114.81 11.3989 113.481 8.19571 111.119 5.83309C108.757 3.47048 105.553 2.14132 102.212 2.13715ZM102.212 22.4914C100.679 22.4915 99.1801 22.0371 97.9051 21.1855C96.63 20.3339 95.6369 19.1233 95.0501 17.707C94.4632 16.2906 94.3094 14.732 94.6079 13.2284C94.9073 11.7248 95.6452 10.3435 96.7295 9.2593C97.8138 8.17515 99.1948 7.4368 100.698 7.13764C102.202 6.83847 103.761 6.99192 105.177 7.57858C106.593 8.16523 107.804 9.15873 108.656 10.4335C109.507 11.7082 109.962 13.2069 109.962 14.74C109.959 16.7946 109.142 18.7642 107.688 20.2172C106.236 21.6702 104.266 22.488 102.212 22.4914ZM73.3604 2.13715C70.8677 2.13715 68.4311 2.8763 66.3586 4.26112C64.2861 5.64594 62.6707 7.61423 61.7169 9.91708C60.763 12.22 60.5135 14.754 60.9997 17.1986C61.486 19.6434 62.6863 21.8889 64.4488 23.6515C66.2113 25.4141 68.457 26.6144 70.9016 27.1007C73.3464 27.5869 75.8804 27.3375 78.1833 26.3835C80.4861 25.4296 82.4544 23.8143 83.8392 21.7417C85.2241 19.6692 85.9632 17.2325 85.9632 14.74C85.9593 11.3986 84.6302 8.1954 82.2676 5.83275C79.9049 3.4701 76.7017 2.14105 73.3604 2.13715ZM73.3604 22.4914C71.932 22.492 70.5313 22.0981 69.3126 21.3529C68.0941 20.6077 67.105 19.5405 66.4548 18.2687C65.8047 16.9969 65.5184 15.5701 65.6279 14.146C65.7374 12.7219 66.2381 11.3556 67.0751 10.1982C67.912 9.04071 69.0526 8.13699 70.3706 7.58679C71.6888 7.03658 73.1333 6.86129 74.5448 7.08025C75.9562 7.29922 77.2797 7.90392 78.3692 8.82763C79.4587 9.75134 80.2718 10.9582 80.7187 12.3147H73.3604V17.1653H80.7187C80.2068 18.7133 79.2206 20.0609 77.8998 21.0169C76.5791 21.9729 74.9908 22.4887 73.3604 22.4914Z" fill="#263238"/>
<path fill-rule="evenodd" clip-rule="evenodd" d="M28.0963 27.3428H2.89062V2.13715H28.0963V27.3428ZM7.74111 6.98863H13.0702V17.1653H23.2448V22.4914H7.74111V6.98863ZM17.9187 12.3147H23.2448V6.98863H17.9187V12.3147Z" fill="#263238"/>
</svg>
