<svg xmlns="http://www.w3.org/2000/svg" width="186" height="45" viewBox="0 0 186 45" fill="none"><path d="M57.134 28.204C56.2613 28.204 55.4963 28.051 54.839 27.745C54.1817 27.439 53.666 27.0027 53.292 26.436C52.9293 25.8693 52.7423 25.195 52.731 24.413H54.635C54.6463 25.0477 54.8673 25.586 55.298 26.028C55.7287 26.47 56.335 26.691 57.117 26.691C57.8083 26.691 58.3467 26.5267 58.732 26.198C59.1287 25.858 59.327 25.4273 59.327 24.906C59.327 24.4867 59.2307 24.1467 59.038 23.886C58.8567 23.6253 58.6017 23.41 58.273 23.24C57.9557 23.07 57.5873 22.917 57.168 22.781C56.7487 22.645 56.3067 22.4977 55.842 22.339C54.924 22.033 54.2327 21.6363 53.768 21.149C53.3147 20.6617 53.088 20.0213 53.088 19.228C53.0767 18.5593 53.2297 17.9757 53.547 17.477C53.8757 16.9783 54.329 16.593 54.907 16.321C55.4963 16.0377 56.182 15.896 56.964 15.896C57.7347 15.896 58.409 16.0377 58.987 16.321C59.5763 16.6043 60.0353 17.001 60.364 17.511C60.6927 18.0097 60.8627 18.5933 60.874 19.262H58.97C58.97 18.956 58.8907 18.667 58.732 18.395C58.5733 18.1117 58.341 17.8793 58.035 17.698C57.729 17.5167 57.355 17.426 56.913 17.426C56.3463 17.4147 55.876 17.5563 55.502 17.851C55.1393 18.1457 54.958 18.5537 54.958 19.075C54.958 19.5397 55.094 19.8967 55.366 20.146C55.638 20.3953 56.012 20.605 56.488 20.775C56.964 20.9337 57.508 21.1207 58.12 21.336C58.7093 21.5287 59.2363 21.761 59.701 22.033C60.1657 22.305 60.534 22.662 60.806 23.104C61.0893 23.546 61.231 24.107 61.231 24.787C61.231 25.3877 61.078 25.9487 60.772 26.47C60.466 26.98 60.007 27.3993 59.395 27.728C58.783 28.0453 58.0293 28.204 57.134 28.204ZM67.0771 28.204C66.2498 28.204 65.5131 28.0227 64.8671 27.66C64.2325 27.286 63.7338 26.7703 63.3711 26.113C63.0085 25.4557 62.8271 24.6907 62.8271 23.818C62.8271 22.934 63.0028 22.1577 63.3541 21.489C63.7168 20.8203 64.2155 20.299 64.8501 19.925C65.4961 19.551 66.2441 19.364 67.0941 19.364C67.9215 19.364 68.6411 19.551 69.2531 19.925C69.8651 20.2877 70.3411 20.775 70.6811 21.387C71.0211 21.999 71.1911 22.6733 71.1911 23.41C71.1911 23.5233 71.1855 23.648 71.1741 23.784C71.1741 23.9087 71.1685 24.0503 71.1571 24.209H64.5951C64.6518 25.025 64.9181 25.6483 65.3941 26.079C65.8815 26.4983 66.4425 26.708 67.0771 26.708C67.5871 26.708 68.0121 26.5947 68.3521 26.368C68.7035 26.13 68.9641 25.8127 69.1341 25.416H70.9361C70.7095 26.2093 70.2561 26.8723 69.5761 27.405C68.9075 27.9377 68.0745 28.204 67.0771 28.204ZM67.0771 20.843C66.4765 20.843 65.9438 21.0243 65.4791 21.387C65.0145 21.7383 64.7311 22.271 64.6291 22.985H69.3891C69.3551 22.3277 69.1228 21.8063 68.6921 21.421C68.2615 21.0357 67.7231 20.843 67.0771 20.843ZM77.0049 28.204C76.1775 28.204 75.4409 28.0227 74.7949 27.66C74.1602 27.286 73.6615 26.7703 73.2989 26.113C72.9362 25.4557 72.7549 24.6907 72.7549 23.818C72.7549 22.934 72.9305 22.1577 73.2819 21.489C73.6445 20.8203 74.1432 20.299 74.7779 19.925C75.4239 19.551 76.1719 19.364 77.0219 19.364C77.8492 19.364 78.5689 19.551 79.1809 19.925C79.7929 20.2877 80.2689 20.775 80.6089 21.387C80.9489 21.999 81.1189 22.6733 81.1189 23.41C81.1189 23.5233 81.1132 23.648 81.1019 23.784C81.1019 23.9087 81.0962 24.0503 81.0849 24.209H74.5229C74.5795 25.025 74.8459 25.6483 75.3219 26.079C75.8092 26.4983 76.3702 26.708 77.0049 26.708C77.5149 26.708 77.9399 26.5947 78.2799 26.368C78.6312 26.13 78.8919 25.8127 79.0619 25.416H80.8639C80.6372 26.2093 80.1839 26.8723 79.5039 27.405C78.8352 27.9377 78.0022 28.204 77.0049 28.204ZM77.0049 20.843C76.4042 20.843 75.8715 21.0243 75.4069 21.387C74.9422 21.7383 74.6589 22.271 74.5569 22.985H79.3169C79.2829 22.3277 79.0505 21.8063 78.6199 21.421C78.1892 21.0357 77.6509 20.843 77.0049 20.843ZM87.2718 28V15.76H89.0738V20.928C89.3571 20.4407 89.7481 20.061 90.2468 19.789C90.7568 19.5057 91.3178 19.364 91.9298 19.364C92.9385 19.364 93.7318 19.6813 94.3098 20.316C94.8878 20.9507 95.1768 21.897 95.1768 23.155V28H93.3918V23.342C93.3918 21.71 92.7401 20.894 91.4368 20.894C90.7568 20.894 90.1901 21.132 89.7368 21.608C89.2948 22.084 89.0738 22.764 89.0738 23.648V28H87.2718ZM101.243 28.204C100.438 28.204 99.7132 28.0227 99.0672 27.66C98.4325 27.286 97.9282 26.7703 97.5542 26.113C97.1802 25.4443 96.9932 24.668 96.9932 23.784C96.9932 22.9 97.1802 22.1293 97.5542 21.472C97.9395 20.8033 98.4552 20.2877 99.1012 19.925C99.7472 19.551 100.467 19.364 101.26 19.364C102.065 19.364 102.784 19.551 103.419 19.925C104.065 20.2877 104.575 20.8033 104.949 21.472C105.334 22.1293 105.527 22.9 105.527 23.784C105.527 24.668 105.334 25.4443 104.949 26.113C104.575 26.7703 104.065 27.286 103.419 27.66C102.773 28.0227 102.048 28.204 101.243 28.204ZM101.243 26.657C101.674 26.657 102.07 26.5493 102.433 26.334C102.807 26.1187 103.107 25.8013 103.334 25.382C103.561 24.9513 103.674 24.4187 103.674 23.784C103.674 23.1493 103.561 22.6223 103.334 22.203C103.119 21.7723 102.824 21.4493 102.45 21.234C102.087 21.0187 101.691 20.911 101.26 20.911C100.829 20.911 100.427 21.0187 100.053 21.234C99.6905 21.4493 99.3958 21.7723 99.1692 22.203C98.9425 22.6223 98.8292 23.1493 98.8292 23.784C98.8292 24.4187 98.9425 24.9513 99.1692 25.382C99.3958 25.8013 99.6905 26.1187 100.053 26.334C100.416 26.5493 100.812 26.657 101.243 26.657ZM108.843 28L106.361 19.568H108.163L109.795 25.926L111.631 19.568H113.637L115.473 25.926L117.105 19.568H118.907L116.425 28H114.572L112.634 21.37L110.696 28H108.843ZM125.695 17.97C125.355 17.97 125.072 17.868 124.845 17.664C124.63 17.4487 124.522 17.1823 124.522 16.865C124.522 16.5477 124.63 16.287 124.845 16.083C125.072 15.8677 125.355 15.76 125.695 15.76C126.035 15.76 126.313 15.8677 126.528 16.083C126.755 16.287 126.868 16.5477 126.868 16.865C126.868 17.1823 126.755 17.4487 126.528 17.664C126.313 17.868 126.035 17.97 125.695 17.97ZM124.794 28V19.568H126.596V28H124.794ZM132.511 28C131.684 28 131.026 27.8017 130.539 27.405C130.052 26.997 129.808 26.2773 129.808 25.246V21.081H128.363V19.568H129.808L130.029 17.426H131.61V19.568H133.99V21.081H131.61V25.246C131.61 25.7107 131.706 26.0337 131.899 26.215C132.103 26.385 132.449 26.47 132.936 26.47H133.905V28H132.511ZM141.814 28L139.332 19.568H141.134L142.766 25.926L144.602 19.568H146.608L148.444 25.926L150.076 19.568H151.878L149.396 28H147.543L145.605 21.37L143.667 28H141.814ZM156.991 28.204C156.187 28.204 155.461 28.0227 154.815 27.66C154.181 27.286 153.676 26.7703 153.302 26.113C152.928 25.4443 152.741 24.668 152.741 23.784C152.741 22.9 152.928 22.1293 153.302 21.472C153.688 20.8033 154.203 20.2877 154.849 19.925C155.495 19.551 156.215 19.364 157.008 19.364C157.813 19.364 158.533 19.551 159.167 19.925C159.813 20.2877 160.323 20.8033 160.697 21.472C161.083 22.1293 161.275 22.9 161.275 23.784C161.275 24.668 161.083 25.4443 160.697 26.113C160.323 26.7703 159.813 27.286 159.167 27.66C158.521 28.0227 157.796 28.204 156.991 28.204ZM156.991 26.657C157.422 26.657 157.819 26.5493 158.181 26.334C158.555 26.1187 158.856 25.8013 159.082 25.382C159.309 24.9513 159.422 24.4187 159.422 23.784C159.422 23.1493 159.309 22.6223 159.082 22.203C158.867 21.7723 158.572 21.4493 158.198 21.234C157.836 21.0187 157.439 20.911 157.008 20.911C156.578 20.911 156.175 21.0187 155.801 21.234C155.439 21.4493 155.144 21.7723 154.917 22.203C154.691 22.6223 154.577 23.1493 154.577 23.784C154.577 24.4187 154.691 24.9513 154.917 25.382C155.144 25.8013 155.439 26.1187 155.801 26.334C156.164 26.5493 156.561 26.657 156.991 26.657ZM163.224 28V19.568H164.839L164.992 21.166C165.287 20.6107 165.695 20.1743 166.216 19.857C166.749 19.5283 167.389 19.364 168.137 19.364V21.251H167.644C167.145 21.251 166.698 21.336 166.301 21.506C165.916 21.6647 165.604 21.9423 165.366 22.339C165.139 22.7243 165.026 23.2627 165.026 23.954V28H163.224ZM169.682 28V15.76H171.484V23.053L174.714 19.568H176.873L173.286 23.393L177.4 28H175.122L171.484 23.682V28H169.682ZM181.714 28.204C180.649 28.204 179.77 27.9433 179.079 27.422C178.388 26.9007 177.991 26.2093 177.889 25.348H179.708C179.799 25.7333 180.014 26.0677 180.354 26.351C180.694 26.623 181.142 26.759 181.697 26.759C182.241 26.759 182.638 26.6457 182.887 26.419C183.136 26.1923 183.261 25.9317 183.261 25.637C183.261 25.2063 183.085 24.9173 182.734 24.77C182.394 24.6113 181.918 24.4697 181.306 24.345C180.83 24.243 180.354 24.107 179.878 23.937C179.413 23.767 179.022 23.529 178.705 23.223C178.399 22.9057 178.246 22.4807 178.246 21.948C178.246 21.2113 178.529 20.5993 179.096 20.112C179.663 19.6133 180.456 19.364 181.476 19.364C182.417 19.364 183.176 19.5907 183.754 20.044C184.343 20.4973 184.689 21.1377 184.791 21.965H183.057C183 21.6023 182.83 21.319 182.547 21.115C182.275 20.911 181.907 20.809 181.442 20.809C180.989 20.809 180.637 20.9053 180.388 21.098C180.139 21.2793 180.014 21.5173 180.014 21.812C180.014 22.1067 180.184 22.339 180.524 22.509C180.875 22.679 181.334 22.832 181.901 22.968C182.468 23.0927 182.989 23.24 183.465 23.41C183.952 23.5687 184.343 23.8067 184.638 24.124C184.933 24.4413 185.08 24.906 185.08 25.518C185.091 26.2887 184.791 26.929 184.179 27.439C183.578 27.949 182.757 28.204 181.714 28.204Z" fill="#263238"></path><circle cx="22.5" cy="22.5" r="21.4" stroke="#263238" stroke-width="2.2"></circle><path d="M20 16.5V28L29 22L20 16.5Z" fill="#263238"></path></svg>